<svg width="100" height="100" viewBox="0 0 100 100" fill="none" xmlns="http://www.w3.org/2000/svg">
<path d="M97.0588 11.9117V9.3382C97.0588 5.07349 94.9387 2.94118 90.6985 2.94118H9.30147C5.06127 2.94118 2.94118 5.07349 2.94118 9.3382V11.9117V91.0662C3.06373 95.0613 5.18382 97.0588 9.30147 97.0588H14.3382H85.7353H90.6985C94.8162 97.0588 96.9363 95.0613 97.0588 91.0662V11.9117ZM90.6985 0C96.8995 0 100 3.11271 100 9.3382V91.0662V91.1765C99.8529 97.0588 96.7525 100 90.6985 100H9.30147C3.24754 100 0.147059 97.0588 0 91.1765V91.0662V9.3382C0 3.11271 3.10049 0 9.30147 0H90.6985Z" fill="#6D4526"/>
<path d="M2.94116 11.9117V9.33818C2.94116 5.07348 5.06126 2.94116 9.30145 2.94116H90.6985C94.9387 2.94116 97.0588 5.07348 97.0588 9.33818V11.9117C96.9363 7.89211 94.8162 5.88234 90.6985 5.88234H9.30145C5.1838 5.88234 3.06371 7.89211 2.94116 11.9117Z" fill="#B4723F"/>
<path d="M85.7353 97.0589H14.3382C15.6128 90.0246 18.9338 83.8482 24.3015 78.5295C31.4093 71.4707 39.9755 67.9413 50 67.9413C60.0245 67.9413 68.5784 71.4707 75.6618 78.5295C81.0784 83.8482 84.4363 90.0246 85.7353 97.0589ZM78.8603 49.228C78.8603 47.0221 78.0883 45.1349 76.5441 43.5663C74.951 42.0221 73.0637 41.2501 70.8824 41.2501C68.6765 41.2501 66.7892 42.0221 65.2206 43.5663C63.652 45.1349 62.8677 47.0221 62.8677 49.228L62.9044 49.9633C63.0515 51.875 63.8236 53.5173 65.2206 54.8898C66.7892 56.4584 68.6765 57.2427 70.8824 57.2427C73.0637 57.2427 74.951 56.4584 76.5441 54.8898C77.9167 53.5173 78.6765 51.875 78.8236 49.9633L78.8603 49.228ZM89.8162 34.9634C89.5956 35.7967 88.9951 36.6055 88.0147 37.3898C86.201 38.7868 85.8088 41.1765 86.8383 44.5589C87.2549 46.0295 87.4633 47.5858 87.4633 49.228V49.9633C87.2917 54.228 85.674 57.8923 82.6103 60.956C79.375 64.2158 75.4657 65.8457 70.8824 65.8457C66.6667 65.8457 63.0147 64.4609 59.9265 61.6913L60 61.1765L60.0368 60.5148L59.8897 58.8971C59.5956 56.8383 58.6642 55.0124 57.0956 53.4192L55.9559 52.4266L54.4118 51.5075L54.3015 49.9633L54.2647 49.228C54.2647 47.6348 54.4608 46.1276 54.853 44.706C60.8334 37.1325 72.4878 33.8849 89.8162 34.9634ZM40.0735 61.728C36.9853 64.4731 33.3333 65.8457 29.1177 65.8457C24.5343 65.8457 20.625 64.2158 17.3897 60.956C14.326 57.8923 12.7206 54.228 12.5735 49.9633L12.5368 49.228C12.5368 47.5858 12.7451 46.0295 13.1618 44.5589C14.1912 41.1765 13.799 38.7868 11.9853 37.3898C11.0049 36.6055 10.4044 35.7967 10.1838 34.9634C27.5123 33.8849 39.1667 37.1325 45.1471 44.706C45.5392 46.1276 45.7353 47.6348 45.7353 49.228V49.9633L45.5882 51.5075L44.0441 52.4266L42.8676 53.4192C41.3235 55.0124 40.3922 56.8383 40.0735 58.8971C40 59.4118 39.9633 59.9511 39.9633 60.5148V61.1765L40.0735 61.728ZM21.1397 49.228L21.1765 49.9633C21.3235 51.875 22.0833 53.5173 23.4559 54.8898C25.049 56.4584 26.9363 57.2427 29.1177 57.2427C31.3235 57.2427 33.2108 56.4584 34.7794 54.8898C36.1765 53.5173 36.9485 51.875 37.0956 49.9633L37.1324 49.228C37.1324 47.0221 36.348 45.1349 34.7794 43.5663C33.2108 42.0221 31.3235 41.2501 29.1177 41.2501C26.9363 41.2501 25.049 42.0221 23.4559 43.5663C21.9118 45.1349 21.1397 47.0221 21.1397 49.228ZM44.9265 82.2795C46.3235 83.6766 48.0147 84.3751 50 84.3751C51.9608 84.3751 53.6397 83.6766 55.0368 82.2795C56.4338 80.8825 57.1324 79.2035 57.1324 77.2428C57.1324 76.5075 57.0343 75.8089 56.8382 75.1471L56.6544 74.8898L56.3603 74.8163H55.9191C55.7966 74.8163 55.6863 74.853 55.5883 74.9266L55.4412 75.2574C55.3677 76.6055 54.8407 77.7575 53.8603 78.7133C52.7819 79.7918 51.4951 80.331 50 80.331C48.4804 80.331 47.1936 79.7918 46.1397 78.7133C45.1593 77.7575 44.6201 76.6055 44.5221 75.2574L44.375 74.9266L44.0441 74.8163H43.6029L43.3088 74.8898L43.1618 75.1471C42.9657 75.8089 42.8676 76.5075 42.8676 77.2428C42.8676 79.2281 43.5539 80.907 44.9265 82.2795ZM35.8456 88.9707C37.6838 88.9707 39.2647 88.3089 40.5883 86.9854L41.25 86.2133L41.3971 85.7722L41.2132 85.2942L40.8088 85.0736L40.3309 85.1472C39.424 85.6129 38.4191 85.8457 37.3162 85.8457C35.5515 85.8457 34.0319 85.1961 32.7574 83.8971C31.7279 82.8922 31.103 81.7158 30.8824 80.3678L30.6618 79.9633L30.2206 79.7427C30.049 79.7427 29.8897 79.7918 29.7427 79.8898L29.4485 80.2575C29.2525 80.8947 29.1544 81.5687 29.1544 82.2795C29.1544 84.1177 29.8039 85.6864 31.1029 86.9854L31.1397 87.0221C32.4387 88.3211 34.0074 88.9707 35.8456 88.9707ZM64.1544 88.9707C65.9927 88.9707 67.5613 88.3211 68.8603 87.0221L68.8971 86.9854C70.1961 85.6864 70.8456 84.1177 70.8456 82.2795C70.8456 81.5687 70.7476 80.8947 70.5515 80.2575L70.2574 79.8898L69.7794 79.7427C69.6079 79.7672 69.4608 79.8408 69.3382 79.9633L69.1177 80.3678C68.8971 81.7158 68.2721 82.8922 67.2427 83.8971C65.9682 85.1961 64.4485 85.8457 62.6838 85.8457C61.5809 85.8457 60.576 85.6129 59.6691 85.1472L59.1912 85.0736L58.7868 85.2942C58.6642 85.4167 58.603 85.5761 58.603 85.7722C58.5785 85.9192 58.6275 86.0663 58.75 86.2133L59.4118 86.9854C60.7353 88.3089 62.3162 88.9707 64.1544 88.9707Z" fill="#EBCEB7"/>
<path d="M78.8602 49.228L78.8235 49.9633C78.6764 51.8751 77.9166 53.5173 76.5441 54.8899C74.9509 56.4585 73.0637 57.2428 70.8823 57.2428C68.6764 57.2428 66.7892 56.4585 65.2205 54.8899C63.8235 53.5173 63.0514 51.8751 62.9043 49.9633L62.8676 49.228C62.8676 47.0222 63.6519 45.1349 65.2205 43.5663C66.7892 42.0222 68.6764 41.2501 70.8823 41.2501C73.0637 41.2501 74.9509 42.0222 76.5441 43.5663C78.0882 45.1349 78.8602 47.0222 78.8602 49.228ZM74.2279 49.228C74.2279 47.978 73.7745 46.9119 72.8676 46.0295C71.9852 45.1472 70.9191 44.7061 69.6691 44.7061C68.4191 44.7061 67.3284 45.1472 66.397 46.0295C65.5146 46.9119 65.0735 47.978 65.0735 49.228L65.147 49.9633C65.2696 50.9192 65.6862 51.7649 66.397 52.5002C67.3284 53.3825 68.4191 53.8236 69.6691 53.8236C70.9191 53.8236 71.9852 53.3825 72.8676 52.5002C73.6029 51.7649 74.0441 50.9192 74.1911 49.9633L74.2279 49.228ZM25.772 49.228L25.8455 49.9633C25.9681 50.9192 26.397 51.7649 27.1323 52.5002C28.0146 53.3825 29.0808 53.8236 30.3308 53.8236C31.5808 53.8236 32.6715 53.3825 33.6029 52.5002C34.3137 51.7649 34.7426 50.9192 34.8897 49.9633L34.9264 49.228C34.9264 47.978 34.4852 46.9119 33.6029 46.0295C32.6715 45.1472 31.5808 44.7061 30.3308 44.7061C29.0808 44.7061 28.0146 45.1472 27.1323 46.0295C26.2254 46.9119 25.772 47.978 25.772 49.228ZM21.1396 49.228C21.1396 47.0222 21.9117 45.1349 23.4558 43.5663C25.049 42.0222 26.9362 41.2501 29.1176 41.2501C31.3235 41.2501 33.2107 42.0222 34.7793 43.5663C36.348 45.1349 37.1323 47.0222 37.1323 49.228L37.0955 49.9633C36.9485 51.8751 36.1764 53.5173 34.7793 54.8899C33.2107 56.4585 31.3235 57.2428 29.1176 57.2428C26.9362 57.2428 25.049 56.4585 23.4558 54.8899C22.0833 53.5173 21.3235 51.8751 21.1764 49.9633L21.1396 49.228Z" fill="white"/>
<path d="M74.228 49.228L74.1912 49.9633C74.0442 50.9192 73.603 51.7649 72.8677 52.5002C71.9853 53.3825 70.9192 53.8236 69.6692 53.8236C68.4192 53.8236 67.3285 53.3825 66.3971 52.5002C65.6863 51.7649 65.2697 50.9192 65.1471 49.9633L65.0736 49.228C65.0736 47.978 65.5147 46.9119 66.3971 46.0295C67.3285 45.1472 68.4192 44.7061 69.6692 44.7061C70.9192 44.7061 71.9853 45.1472 72.8677 46.0295C73.7746 46.9119 74.228 47.978 74.228 49.228ZM25.7721 49.228C25.7721 47.978 26.2255 46.9119 27.1324 46.0295C28.0147 45.1472 29.0809 44.7061 30.3309 44.7061C31.5809 44.7061 32.6716 45.1472 33.603 46.0295C34.4853 46.9119 34.9265 47.978 34.9265 49.228L34.8898 49.9633C34.7427 50.9192 34.3138 51.7649 33.603 52.5002C32.6716 53.3825 31.5809 53.8236 30.3309 53.8236C29.0809 53.8236 28.0147 53.3825 27.1324 52.5002C26.3971 51.7649 25.9682 50.9192 25.8456 49.9633L25.7721 49.228Z" fill="#5B5B5B"/>
<path d="M97.0588 11.9117V91.0661C96.9363 95.0612 94.8162 97.0588 90.6985 97.0588H85.7353C84.4363 90.0245 81.0784 83.848 75.6617 78.5294C68.5784 71.4706 60.0245 67.9412 50 67.9412C39.9755 67.9412 31.4093 71.4706 24.3014 78.5294C18.9338 83.848 15.6127 90.0245 14.3382 97.0588H9.30145C5.1838 97.0588 3.06371 95.0612 2.94116 91.0661V11.9117C3.06371 7.89209 5.1838 5.88232 9.30145 5.88232H90.6985C94.8162 5.88232 96.9363 7.89209 97.0588 11.9117ZM89.8162 34.9632C89.9142 34.5221 89.9019 34.0686 89.7794 33.6029C89.3382 31.9607 87.5368 30.9558 84.375 30.5882C81.2132 30.1715 77.3774 30.4044 72.8676 31.2868C66.4216 32.7083 61.8505 34.7794 59.1544 37.5C57.0221 39.6078 55.5882 42.0098 54.8529 44.7059C54.4608 46.1275 54.2647 47.6347 54.2647 49.2279L54.3015 49.9632L54.4118 51.5074C53.0637 50.8456 51.5931 50.5146 50 50.5146C48.4068 50.5146 46.9363 50.8456 45.5882 51.5074L45.7353 49.9632V49.2279C45.7353 47.6347 45.5392 46.1275 45.147 44.7059C44.4117 42.0098 42.9779 39.6078 40.8456 37.5C38.1495 34.7794 33.5784 32.7083 27.1323 31.2868C22.6225 30.4044 18.7867 30.1715 15.625 30.5882C12.4632 30.9558 10.6617 31.9607 10.2206 33.6029C10.098 34.0686 10.0858 34.5221 10.1838 34.9632C10.4044 35.7966 11.0049 36.6053 11.9853 37.3897C13.799 38.7867 14.1912 41.1764 13.1617 44.5588C12.7451 46.0294 12.5367 47.5857 12.5367 49.2279L12.5735 49.9632C12.7206 54.2279 14.326 57.8921 17.3897 60.9559C20.625 64.2157 24.5343 65.8456 29.1176 65.8456C33.3333 65.8456 36.9853 64.473 40.0735 61.7279C40.3676 62.9779 41.299 64.0686 42.8676 65C44.8284 66.1519 47.2059 66.7279 50 66.7279C52.7696 66.7279 55.1348 66.1519 57.0956 65C58.6887 64.0686 59.6323 62.9657 59.9265 61.6912C63.0147 64.4608 66.6666 65.8456 70.8823 65.8456C75.4657 65.8456 79.375 64.2157 82.6103 60.9559C85.674 57.8921 87.2917 54.2279 87.4632 49.9632V49.2279C87.4632 47.5857 87.2549 46.0294 86.8382 44.5588C85.8088 41.1764 86.201 38.7867 88.0147 37.3897C88.9951 36.6053 89.5956 35.7966 89.8162 34.9632ZM59.8529 24.7793C61.7647 21.4705 62.9044 18.3701 63.272 15.4779C63.7132 12.6103 63.2598 10.7966 61.9118 10.0368C60.5637 9.25244 58.7377 9.75484 56.4338 11.5441C54.1789 13.3333 52.0956 15.8823 50.1838 19.1911L49.522 20.3309C48.7377 21.8995 48.4436 23.4926 48.6397 25.1103C48.8358 26.8995 49.6078 28.1863 50.9559 28.9706C52.3039 29.7304 53.8113 29.7549 55.4779 29.0441C56.9485 28.4068 58.174 27.3529 59.1544 25.8823L59.8529 24.7793ZM45.3676 19.1176C44.1176 16.9117 42.7206 15.2205 41.1765 14.0441C39.6814 12.8431 38.4926 12.5122 37.6103 13.0514C36.7279 13.5416 36.4216 14.7426 36.6912 16.6544C36.9608 18.5662 37.7206 20.6127 38.9706 22.7941L39.4118 23.5662C40.0735 24.5466 40.8946 25.2451 41.875 25.6618C42.9779 26.1519 43.9706 26.1397 44.8529 25.625C45.7353 25.0857 46.25 24.2157 46.397 23.0147C46.5196 21.9853 46.3235 20.9436 45.8088 19.8897L45.3676 19.1176Z" fill="#A16639"/>
<path d="M54.8529 44.7061C55.5882 42.01 57.022 39.608 59.1544 37.5002C61.8504 34.7796 66.4215 32.7085 72.8676 31.287C77.3774 30.4046 81.2132 30.1717 84.3749 30.5884C87.5367 30.956 89.3382 31.9609 89.7794 33.6031C89.9019 34.0688 89.9142 34.5223 89.8161 34.9635C72.4877 33.885 60.8333 37.1326 54.8529 44.7061ZM10.1838 34.9635C10.0857 34.5223 10.098 34.0688 10.2205 33.6031C10.6617 31.9609 12.4632 30.956 15.6249 30.5884C18.7867 30.1717 22.6225 30.4046 27.1323 31.287C33.5784 32.7085 38.1494 34.7796 40.8455 37.5002C42.9779 39.608 44.4117 42.01 45.147 44.7061C39.1666 37.1326 27.5122 33.885 10.1838 34.9635Z" fill="#DEC2AD"/>
<path d="M45.3677 19.1178L45.8088 19.8899C46.3236 20.9438 46.5196 21.9854 46.3971 23.0149C46.25 24.2158 45.7353 25.0859 44.853 25.6251C43.9706 26.1398 42.978 26.1521 41.875 25.6619C40.8947 25.2452 40.0736 24.5467 39.4118 23.5663L38.9706 22.7942C37.7206 20.6129 36.9608 18.5663 36.6912 16.6545C36.4216 14.7428 36.728 13.5418 37.6103 13.0516C38.4927 12.5124 39.6814 12.8432 41.1765 14.0442C42.7206 15.2207 44.1177 16.9119 45.3677 19.1178ZM59.853 24.7795L59.1545 25.8824C58.1741 27.353 56.9486 28.407 55.478 29.0442C53.8113 29.755 52.3039 29.7305 50.9559 28.9707C49.6079 28.1864 48.8358 26.8996 48.6397 25.1104C48.4437 23.4928 48.7378 21.8996 49.5221 20.331L50.1839 19.1913C52.0956 15.8825 54.179 13.3334 56.4339 11.5442C58.7378 9.75498 60.5638 9.25259 61.9118 10.0369C63.2598 10.7967 63.7133 12.6104 63.2721 15.4781C62.9044 18.3703 61.7647 21.4707 59.853 24.7795Z" fill="#8E5A32"/>
<path d="M45.5882 51.5076C46.9362 50.8458 48.4068 50.5149 50 50.5149C51.5931 50.5149 53.0637 50.8458 54.4117 51.5076L55.9558 52.4267L57.0955 53.4194C58.6642 55.0125 59.5956 56.8384 59.8897 58.8973L59.0441 60.037C58.6519 58.5419 57.8308 57.2061 56.5808 56.0296L55.5514 55.1841L55.2573 55.0003C53.7132 53.9954 51.9607 53.4929 50 53.4929C48.0392 53.4929 46.2867 53.9954 44.7426 55.0003C44.6446 55.0738 44.5588 55.1351 44.4853 55.1841L43.3823 56.0296C42.1568 57.2061 41.348 58.5419 40.9558 60.037C40.5147 59.6939 40.2205 59.3139 40.0735 58.8973C40.3921 56.8384 41.3235 55.0125 42.8676 53.4194L44.0441 52.4267L45.5882 51.5076Z" fill="#FF9900"/>
<path d="M40.9558 60.0368C41.348 58.5417 42.1568 57.2059 43.3823 56.0294L44.4852 55.1839C44.5587 55.1349 44.6445 55.0736 44.7426 55.0001C46.2867 53.9952 48.0391 53.4927 49.9999 53.4927C51.9607 53.4927 53.7132 53.9952 55.2573 55.0001L55.5514 55.1839L56.5808 56.0294C57.8308 57.2059 58.6519 58.5417 59.044 60.0368L58.6029 60.3677L57.0955 61.103C55.1347 61.9118 52.7695 62.3162 49.9999 62.3162C47.2058 62.3162 44.8283 61.9118 42.8676 61.103C42.3038 60.8824 41.8259 60.6373 41.4337 60.3677L40.9558 60.0368Z" fill="#F39100"/>
<path d="M40.9559 60.0368L41.4338 60.3677C41.826 60.6373 42.3039 60.8824 42.8677 61.103C44.8284 61.9118 47.2059 62.3162 50 62.3162C52.7696 62.3162 55.1348 61.9118 57.0956 61.103L58.603 60.3677L59.0441 60.0368L59.8897 58.8971L60.0368 60.5148L60 61.1765L59.9265 61.6912C59.6324 62.9658 58.6887 64.0687 57.0956 65.0001C55.1348 66.152 52.7696 66.728 50 66.728C47.2059 66.728 44.8284 66.152 42.8677 65.0001C41.299 64.0687 40.3677 62.978 40.0735 61.728L39.9633 61.1765V60.5148C39.9633 59.9511 40 59.4118 40.0735 58.8971C40.2206 59.3138 40.5147 59.6937 40.9559 60.0368Z" fill="#E08600"/>
<path d="M44.9265 82.2794C43.5539 80.9069 42.8676 79.228 42.8676 77.2427C42.8676 76.5074 42.9657 75.8088 43.1618 75.147L43.3088 74.8897L43.6029 74.8162H44.0441L44.375 74.9265L44.5221 75.2573C44.6201 76.6054 45.1593 77.7574 46.1397 78.7133C47.1936 79.7917 48.4804 80.3309 50 80.3309C51.4951 80.3309 52.7819 79.7917 53.8603 78.7133C54.8407 77.7574 55.3677 76.6054 55.4412 75.2573L55.5883 74.9265C55.6863 74.8529 55.7966 74.8162 55.9191 74.8162H56.3603L56.6544 74.8897L56.8382 75.147C57.0343 75.8088 57.1324 76.5074 57.1324 77.2427C57.1324 79.2035 56.4338 80.8824 55.0368 82.2794C53.6397 83.6765 51.9608 84.375 50 84.375C48.0147 84.375 46.3235 83.6765 44.9265 82.2794ZM35.8456 88.9706C34.0074 88.9706 32.4387 88.321 31.1397 87.022L31.1029 86.9853C29.8039 85.6863 29.1544 84.1177 29.1544 82.2794C29.1544 81.5686 29.2525 80.8946 29.4485 80.2574L29.7427 79.8897C29.8897 79.7917 30.049 79.7426 30.2206 79.7426L30.6618 79.9632L30.8824 80.3677C31.103 81.7157 31.7279 82.8921 32.7574 83.897C34.0319 85.196 35.5515 85.8456 37.3162 85.8456C38.4191 85.8456 39.424 85.6128 40.3309 85.1471L40.8088 85.0735L41.2132 85.2941L41.3971 85.7721L41.25 86.2132L40.5883 86.9853C39.2647 88.3088 37.6838 88.9706 35.8456 88.9706ZM64.1544 88.9706C62.3162 88.9706 60.7353 88.3088 59.4118 86.9853L58.75 86.2132C58.6275 86.0662 58.5785 85.9191 58.603 85.7721C58.603 85.576 58.6642 85.4167 58.7868 85.2941L59.1912 85.0735L59.6691 85.1471C60.576 85.6128 61.5809 85.8456 62.6838 85.8456C64.4485 85.8456 65.9682 85.196 67.2427 83.897C68.2721 82.8921 68.8971 81.7157 69.1177 80.3677L69.3382 79.9632C69.4608 79.8407 69.6078 79.7671 69.7794 79.7426L70.2574 79.8897L70.5515 80.2574C70.7476 80.8946 70.8456 81.5686 70.8456 82.2794C70.8456 84.1177 70.1961 85.6863 68.8971 86.9853L68.8603 87.022C67.5613 88.321 65.9927 88.9706 64.1544 88.9706Z" fill="#C6AD99"/>
</svg>
