<svg width="100" height="100" viewBox="0 0 100 100" fill="none" xmlns="http://www.w3.org/2000/svg">
<path d="M59.8529 16.3603L59.1544 15.2573C58.174 13.7867 56.9485 12.7328 55.4779 12.0956C53.8113 11.3848 52.3039 11.4093 50.9559 12.1691C49.6078 12.9534 48.8358 14.2402 48.6397 16.0294C48.4436 17.647 48.7377 19.2402 49.522 20.8088L50.1838 21.9485C52.0956 25.2573 54.1789 27.8063 56.4338 29.5956C58.7377 31.3848 60.5637 31.8872 61.9118 31.1029C63.2598 30.3431 63.7132 28.5294 63.272 25.6617C62.9044 22.7696 61.7647 19.6691 59.8529 16.3603ZM97.0588 11.9117V91.0661C96.9363 95.0612 94.8161 97.0588 90.6985 97.0588H76.5809C76.5809 87.2058 73.9828 78.799 68.7867 71.8382C66.9975 69.4363 65.0735 67.4509 63.0147 65.8823C65.2206 64.2892 66.4093 62.4387 66.5809 60.3308L66.6544 59.2279L66.4338 56.5073C65.9191 53.1004 64.375 50.098 61.8014 47.5L59.9265 45.8456C57.0833 43.7132 53.799 42.647 50.0735 42.647C46.348 42.647 43.0637 43.7132 40.2206 45.8456C39.5588 46.3112 38.9093 46.8627 38.272 47.5C35.723 50.098 34.1789 53.1004 33.6397 56.5073C33.5171 57.3651 33.4559 58.272 33.4559 59.2279L33.4926 60.3308C33.6887 62.4142 34.8775 64.2524 37.0588 65.8456C34.9755 67.4142 33.027 69.4117 31.2132 71.8382C26.0172 78.799 23.4191 87.2058 23.4191 97.0588H9.30147C5.18383 97.0588 3.06371 95.0612 2.94116 91.0661V11.9117C3.06371 7.89214 5.18383 5.88232 9.30147 5.88232H90.6985C94.8161 5.88232 96.9363 7.89214 97.0588 11.9117ZM87.6838 49.8529C87.6838 47.0343 86.6912 44.6446 84.7059 42.6838C82.7206 40.6985 80.3309 39.7059 77.5368 39.7059C74.7917 39.7059 72.402 40.6985 70.3676 42.6838C68.4314 44.6446 67.4632 47.0343 67.4632 49.8529C67.4632 52.647 68.4314 55 70.3676 56.9118C72.402 58.9216 74.7917 59.9264 77.5368 59.9264C80.3309 59.9264 82.7206 58.9216 84.7059 56.9118C86.6912 55 87.6838 52.647 87.6838 49.8529ZM45.3676 22.022L45.8088 21.25C46.3235 20.196 46.5196 19.1544 46.397 18.125C46.25 16.924 45.7353 16.0539 44.8529 15.5147C43.9706 15 42.9779 14.9877 41.875 15.4779C40.8946 15.8946 40.0735 16.5931 39.4117 17.5735L38.9706 18.3456C37.7206 20.5269 36.9608 22.5735 36.6912 24.4853C36.4216 26.397 36.7279 27.598 37.6103 28.0882C38.4926 28.6274 39.6814 28.2965 41.1765 27.0956C42.7206 25.9191 44.1176 24.2279 45.3676 22.022ZM12.3162 49.8529C12.3162 52.647 13.3088 55 15.2941 56.9118C17.2794 58.9216 19.6691 59.9264 22.4632 59.9264C25.2083 59.9264 27.598 58.9216 29.6323 56.9118C31.5686 55 32.5367 52.647 32.5367 49.8529C32.5367 47.0343 31.5686 44.6446 29.6323 42.6838C27.598 40.6985 25.2083 39.7059 22.4632 39.7059C19.6691 39.7059 17.2794 40.6985 15.2941 42.6838C13.3088 44.6446 12.3162 47.0343 12.3162 49.8529Z" fill="#FFCC00"/>
<path d="M59.8529 16.3603C61.7647 19.6692 62.9044 22.7697 63.272 25.6618C63.7132 28.5295 63.2598 30.3432 61.9117 31.103C60.5637 31.8873 58.7377 31.3849 56.4338 29.5956C54.1789 27.8064 52.0956 25.2574 50.1838 21.9486L49.522 20.8089C48.7377 19.2402 48.4436 17.6471 48.6397 16.0295C48.8358 14.2402 49.6078 12.9535 50.9558 12.1692C52.3039 11.4094 53.8113 11.3849 55.4779 12.0956C56.9485 12.7329 58.174 13.7868 59.1544 15.2574L59.8529 16.3603ZM76.5809 97.0589H23.4191C23.4191 87.2059 26.0171 78.7991 31.2132 71.8383C33.0269 69.4118 34.9755 67.4143 37.0588 65.8456L37.8676 66.3971L38.272 66.6545C41.5318 68.5417 45.4656 69.4853 50.0735 69.4853C54.3137 69.4853 57.9779 68.6765 61.0661 67.0589L61.8014 66.6545L63.0147 65.8824C65.0735 67.451 66.9975 69.4363 68.7867 71.8383C73.9828 78.7991 76.5809 87.2059 76.5809 97.0589ZM45.3676 22.0221C44.1176 24.228 42.7206 25.9192 41.1764 27.0956C39.6813 28.2966 38.4926 28.6275 37.6103 28.0883C36.7279 27.5981 36.4216 26.3971 36.6912 24.4853C36.9608 22.5736 37.7206 20.527 38.9706 18.3456L39.4117 17.5736C40.0735 16.5932 40.8946 15.8947 41.875 15.478C42.9779 14.9878 43.9706 15.0001 44.8529 15.5148C45.7353 16.054 46.2499 16.9241 46.397 18.125C46.5196 19.1545 46.3235 20.1961 45.8088 21.25L45.3676 22.0221Z" fill="#EEBE00"/>
<path d="M2.94116 11.9118V9.33823C2.94116 5.07352 5.06128 2.94116 9.30147 2.94116H90.6985C94.9387 2.94116 97.0588 5.07352 97.0588 9.33823V11.9118C96.9363 7.89215 94.8161 5.88234 90.6985 5.88234H9.30147C5.18383 5.88234 3.06371 7.89215 2.94116 11.9118Z" fill="#FFD738"/>
<path d="M2.94118 11.9118V91.0662C3.06373 95.0613 5.18384 97.0588 9.30149 97.0588H23.4191H76.5809H90.6985C94.8162 97.0588 96.9363 95.0613 97.0588 91.0662V11.9118V9.33824C97.0588 5.07354 94.9387 2.94118 90.6985 2.94118H9.30149C5.06129 2.94118 2.94118 5.07354 2.94118 9.33824V11.9118ZM90.6985 0C96.8995 0 100 3.11275 100 9.33824V91.0662V91.1765C99.8529 97.0588 96.7524 100 90.6985 100H9.30149C3.24757 100 0.147059 97.0588 0 91.1765V91.0662V9.33824C0 3.11275 3.10051 0 9.30149 0H90.6985Z" fill="#987900"/>
<path d="M87.6838 49.853C87.6838 52.6471 86.6912 55.0001 84.7059 56.9118C82.7206 58.9216 80.3309 59.9265 77.5368 59.9265C74.7917 59.9265 72.402 58.9216 70.3676 56.9118C68.4314 55.0001 67.4632 52.6471 67.4632 49.853C67.4632 47.0344 68.4314 44.6446 70.3676 42.6839C72.402 40.6986 74.7917 39.7059 77.5368 39.7059C80.3309 39.7059 82.7206 40.6986 84.7059 42.6839C86.6912 44.6446 87.6838 47.0344 87.6838 49.853ZM82.1323 49.7795C82.1323 47.9903 81.5318 46.4952 80.3309 45.2942C79.0809 44.0442 77.5612 43.4192 75.772 43.4192C74.0563 43.4192 72.5613 44.0442 71.2868 45.2942C70.0368 46.4952 69.4118 47.9903 69.4118 49.7795L69.4485 50.4045C69.5711 51.8505 70.1838 53.1006 71.2868 54.1545C72.5613 55.38 74.0563 55.9927 75.772 55.9927C77.5612 55.9927 79.0809 55.38 80.3309 54.1545C81.3848 53.1006 81.973 51.8505 82.0956 50.4045L82.1323 49.7795ZM17.8676 49.7795L17.9044 50.4045C18.0269 51.8505 18.6152 53.1006 19.6691 54.1545C20.9191 55.38 22.4387 55.9927 24.2279 55.9927C25.9436 55.9927 27.4387 55.38 28.7132 54.1545C29.8162 53.1006 30.4289 51.8505 30.5514 50.4045L30.5882 49.7795C30.5882 47.9903 29.9632 46.4952 28.7132 45.2942C27.4387 44.0442 25.9436 43.4192 24.2279 43.4192C22.4387 43.4192 20.9191 44.0442 19.6691 45.2942C18.4681 46.4952 17.8676 47.9903 17.8676 49.7795ZM12.3162 49.853C12.3162 47.0344 13.3088 44.6446 15.2941 42.6839C17.2794 40.6986 19.6691 39.7059 22.4632 39.7059C25.2083 39.7059 27.598 40.6986 29.6323 42.6839C31.5686 44.6446 32.5368 47.0344 32.5368 49.853C32.5368 52.6471 31.5686 55.0001 29.6323 56.9118C27.598 58.9216 25.2083 59.9265 22.4632 59.9265C19.6691 59.9265 17.2794 58.9216 15.2941 56.9118C13.3088 55.0001 12.3162 52.6471 12.3162 49.853Z" fill="white"/>
<path d="M82.1324 49.7796L82.0956 50.4046C81.9731 51.8507 81.3848 53.1007 80.3309 54.1546C79.0809 55.3801 77.5613 55.9929 75.7721 55.9929C74.0564 55.9929 72.5613 55.3801 71.2868 54.1546C70.1839 53.1007 69.5711 51.8507 69.4486 50.4046L69.4118 49.7796C69.4118 47.9904 70.0368 46.4953 71.2868 45.2943C72.5613 44.0443 74.0564 43.4193 75.7721 43.4193C77.5613 43.4193 79.0809 44.0443 80.3309 45.2943C81.5319 46.4953 82.1324 47.9904 82.1324 49.7796ZM17.8677 49.7796C17.8677 47.9904 18.4682 46.4953 19.6692 45.2943C20.9192 44.0443 22.4388 43.4193 24.228 43.4193C25.9437 43.4193 27.4388 44.0443 28.7133 45.2943C29.9633 46.4953 30.5883 47.9904 30.5883 49.7796L30.5515 50.4046C30.429 51.8507 29.8162 53.1007 28.7133 54.1546C27.4388 55.3801 25.9437 55.9929 24.228 55.9929C22.4388 55.9929 20.9192 55.3801 19.6692 54.1546C18.6152 53.1007 18.027 51.8507 17.9044 50.4046L17.8677 49.7796Z" fill="#5B5B5B"/>
<path d="M33.6396 56.5074C34.1789 53.1005 35.723 50.0981 38.272 47.5C38.9092 46.8628 39.5588 46.3113 40.2205 45.8456C43.0637 43.7133 46.348 42.6471 50.0735 42.6471C53.7989 42.6471 57.0833 43.7133 59.9264 45.8456L61.8014 47.5C64.3749 50.0981 65.919 53.1005 66.4337 56.5074C66.1886 57.1691 65.7107 57.8064 65 58.4192C64.3627 55.9437 63.0147 53.7378 60.9558 51.8015L59.2279 50.3677C56.5808 48.5294 53.5293 47.6103 50.0735 47.6103C46.6176 47.6103 43.5661 48.5294 40.9191 50.3677C40.3063 50.7843 39.7058 51.2623 39.1176 51.8015C37.0833 53.7378 35.7475 55.9437 35.1102 58.4192C34.3749 57.8309 33.8847 57.1936 33.6396 56.5074Z" fill="#FF9900"/>
<path d="M35.1104 58.4192C35.7476 55.9437 37.0834 53.7378 39.1177 51.8015C39.7059 51.2623 40.3064 50.7844 40.9192 50.3677C43.5663 48.5295 46.6177 47.6104 50.0736 47.6104C53.5295 47.6104 56.5809 48.5295 59.228 50.3677L60.956 51.8015C63.0148 53.7378 64.3628 55.9437 65.0001 58.4192C64.2158 59.0564 63.1496 59.6446 61.8015 60.1839C59.7182 61.0417 57.3653 61.6177 54.7427 61.9118L50.0736 62.1692L45.331 61.9118C42.7084 61.5932 40.3554 61.0172 38.2721 60.1839C36.9241 59.6446 35.8702 59.0564 35.1104 58.4192Z" fill="#F39100"/>
<path d="M35.1103 58.4192C35.8701 59.0565 36.9241 59.6447 38.2721 60.1839C40.3554 61.0173 42.7084 61.5933 45.331 61.9119L50.0736 62.1692L54.7427 61.9119C57.3653 61.6178 59.7182 61.0418 61.8015 60.1839C63.1496 59.6447 64.2158 59.0565 65.0001 58.4192C65.7109 57.8065 66.1888 57.1692 66.4339 56.5074L66.6545 59.228L66.5809 60.331C66.4094 62.4388 65.2206 64.2893 63.0148 65.8824L61.8015 66.6545L61.0662 67.0589C57.978 68.6766 54.3138 69.4854 50.0736 69.4854C45.4657 69.4854 41.5319 68.5418 38.2721 66.6545L37.8677 66.3972L37.0589 65.8457C34.8775 64.2526 33.6888 62.4143 33.4927 60.331L33.4559 59.228C33.4559 58.2722 33.5172 57.3653 33.6398 56.5074C33.8849 57.1937 34.3751 57.831 35.1103 58.4192Z" fill="#E08600"/>
</svg>
