<svg width="124" height="100" viewBox="0 0 124 100" fill="none" xmlns="http://www.w3.org/2000/svg">
<path d="M10.737 8.9706C11.1291 8.75001 11.5336 8.55394 11.9502 8.38237C12.2688 2.79414 15.3571 0 21.2149 0H102.612C108.494 0 111.595 2.79414 111.913 8.38237L113.09 8.9706L113.127 9.00735C116.117 10.674 118.666 13.3211 120.774 16.9485H120.737C122.82 20.5024 123.837 23.9951 123.788 27.4265V27.4632L123.715 29.0809C123.347 32.022 122.232 34.1422 120.369 35.4412L120.333 35.4779L119.634 35.9559L119.45 36.0662C119.181 36.1887 118.911 36.3358 118.641 36.5074L118.568 36.5441C116.337 37.8431 114.119 38.8726 111.913 39.6324V91.0662V91.1765C111.766 97.0588 108.666 100 102.612 100H21.2149C15.161 100 12.0605 97.0588 11.9135 91.1765V91.0662V39.6324C9.70758 38.8726 7.48945 37.8554 5.25906 36.5809L5.14875 36.5074L4.33994 36.0662L4.19288 35.9559L3.49434 35.4779L3.42083 35.4412C1.55808 34.1422 0.467386 32.0098 0.148758 29.0441V29.2279L0.0016903 27.4632V27.4265C-0.0473293 23.9951 0.969846 20.5024 3.05318 16.9485C5.13651 13.3211 7.68553 10.674 10.7002 9.00735L10.737 8.9706ZM14.8546 10.4779C13.9968 10.6495 13.0899 11.0049 12.134 11.5441C9.56051 13.0147 7.37915 15.3064 5.58993 18.4191C3.80071 21.4828 2.91836 24.4853 2.94287 27.4265L3.05318 28.7132C3.27377 30.723 3.98455 32.1814 5.18553 33.0882L5.737 33.4559L6.69287 34.0074C9.46248 35.6005 12.1831 36.7525 14.8546 37.4632V91.0662C14.9772 95.0613 17.0973 97.0588 21.2149 97.0588H28.5311H95.2591H102.612C106.73 97.0588 108.85 95.0613 108.972 91.0662V37.4632C111.644 36.7525 114.352 35.6005 117.097 34.0074L118.053 33.4559L118.605 33.0882C119.806 32.1814 120.529 30.723 120.774 28.7132L120.847 27.4265C120.872 24.4853 119.989 21.4828 118.2 18.4191C116.411 15.3064 114.23 13.0147 111.656 11.5441C110.7 11.0294 109.806 10.674 108.972 10.4779V9.33824C108.972 5.07354 106.852 2.94118 102.612 2.94118H21.2149C16.9747 2.94118 14.8546 5.07354 14.8546 9.33824V10.4779Z" fill="#6D4526"/>
<path d="M14.8546 10.4779V9.33823C14.8546 5.07352 16.9747 2.94116 21.2149 2.94116H102.612C106.852 2.94116 108.972 5.07352 108.972 9.33823V10.4779V11.9118L108.825 10.4412C108.261 7.40196 106.19 5.88234 102.612 5.88234H21.2149C17.6365 5.88234 15.5654 7.40196 15.0017 10.4412L14.8546 11.9118V10.4779Z" fill="#B4723F"/>
<path d="M14.8546 13.4191V11.9117L15.0017 10.4412C15.5654 7.40194 17.6365 5.88232 21.2149 5.88232H102.612C106.19 5.88232 108.261 7.40194 108.825 10.4412L108.972 11.9117V13.4191V22.2059V37.4632V91.0661C108.85 95.0612 106.73 97.0588 102.612 97.0588H95.259C93.0531 93.4313 90.737 90.2451 88.3105 87.5C84.5605 83.2353 80.5654 80 76.3252 77.7941C71.8154 75.4656 67.0115 74.3014 61.9134 74.3014C56.8644 74.3014 52.0973 75.4534 47.612 77.7573C43.2982 79.9632 39.2541 83.223 35.4796 87.5367C33.0531 90.2818 30.737 93.4558 28.5311 97.0588H21.2149C17.0973 97.0588 14.9772 95.0612 14.8546 91.0661V37.4632V22.2059V13.4191ZM97.7958 38.7132V38.6764C96.987 35.7352 95.2835 33.5171 92.6855 32.022C90.0384 30.5024 87.2443 30.1348 84.3032 30.9191C81.3865 31.6789 79.1561 33.3823 77.612 36.0294C76.0924 38.6519 75.7247 41.4338 76.509 44.375V44.4118C77.4649 47.9412 79.3031 50.6495 82.0237 52.5367C84.7933 54.4975 87.6365 55.098 90.5532 54.3382C93.4943 53.5539 95.6757 51.6176 97.0973 48.5294C98.4943 45.5147 98.7271 42.2426 97.7958 38.7132ZM25.9576 38.7132C25.0262 42.2426 25.259 45.5147 26.6561 48.5294C28.0776 51.6176 30.259 53.5539 33.2002 54.3382C36.1169 55.098 38.96 54.4975 41.7296 52.5367C44.4502 50.6495 46.2884 47.9412 47.2443 44.4118V44.375C48.0286 41.4338 47.661 38.6519 46.1414 36.0294C44.5973 33.3823 42.3669 31.6789 39.4502 30.9191C36.509 30.1348 33.7149 30.5024 31.0678 32.022C28.4698 33.5171 26.7664 35.7352 25.9576 38.6764V38.7132ZM74.7443 20.5147C74.7443 17.9657 73.4821 15.7965 70.9575 14.0073C68.4575 12.2181 65.4306 11.3235 61.8767 11.3235C58.3228 11.3235 55.2835 12.2181 52.759 14.0073C50.259 15.7965 49.009 17.9657 49.009 20.5147L49.0458 21.1397C49.2174 26.3358 50.4551 30.8088 52.759 34.5588C55.2835 38.6764 58.3228 40.7353 61.8767 40.7353C65.4306 40.7353 68.4575 38.6764 70.9575 34.5588C73.286 30.8088 74.5482 26.3358 74.7443 21.1397V20.5147ZM71.3252 52.6838L71.4723 50.9558V50.2941C71.3007 49.1176 70.3693 48.1127 68.6782 47.2794C66.7909 46.3725 64.5237 45.9191 61.8767 45.9191C59.2296 45.9191 56.9625 46.3725 55.0752 47.2794C53.3595 48.1127 52.4281 49.1176 52.2811 50.2941V50.9558L52.4281 52.6838C52.7468 54.6201 53.6291 56.3112 55.0752 57.7573C56.1291 58.8112 57.3056 59.5711 58.6046 60.0368L57.9796 60.772L56.4723 61.875C55.7615 62.1936 55.0017 62.3529 54.1928 62.3529C52.7223 62.3529 51.46 61.826 50.4061 60.772C50.0139 60.3799 49.683 59.951 49.4134 59.4853L49.009 59.1544L48.5311 59.2279L45.1487 61.1029C44.9772 61.2009 44.8791 61.3358 44.8546 61.5073C44.7811 61.6544 44.7933 61.8137 44.8914 61.9853C45.1855 62.5245 45.5531 63.0637 45.9943 63.6029L46.7664 64.4485C48.8007 66.5073 51.2762 67.5367 54.1928 67.5367C57.085 67.5367 59.5727 66.5073 61.6561 64.4485L61.8767 64.2279L62.0973 64.4485C64.1561 66.5073 66.6316 67.5367 69.5237 67.5367C72.4159 67.5367 74.9036 66.5073 76.987 64.4485L77.759 63.6029L78.862 61.9117L78.8987 61.4338L78.5678 61.0661L75.112 59.2647L74.5973 59.2279L74.2296 59.5588L73.3105 60.772C72.2566 61.826 70.9943 62.3529 69.5237 62.3529C68.7149 62.3529 67.9674 62.1936 67.2811 61.875C66.7419 61.6054 66.2394 61.2377 65.7737 60.772L65.1487 60.0368C66.4477 59.5711 67.6242 58.8112 68.6782 57.7573C70.1242 56.3112 71.0066 54.6201 71.3252 52.6838Z" fill="#A16639"/>
<path d="M14.8547 10.4779V11.9117V13.4191C13.9968 13.5907 13.0899 13.9461 12.1341 14.4853C9.56053 15.9559 7.37916 18.2475 5.58994 21.3602C4.14386 23.8357 3.29829 26.2867 3.05319 28.7132L2.94288 27.4264C2.91837 24.4852 3.80073 21.4828 5.58994 18.4191C7.37916 15.3063 9.56053 13.0147 12.1341 11.5441C13.0899 11.0049 13.9968 10.6495 14.8547 10.4779ZM108.972 11.9117V10.4779C109.806 10.674 110.7 11.0294 111.656 11.5441C114.23 13.0147 116.411 15.3063 118.2 18.4191C119.989 21.4828 120.872 24.4852 120.847 27.4264L120.774 28.7132C120.504 26.2867 119.646 23.8357 118.2 21.3602C116.411 18.2475 114.23 15.9559 111.656 14.4853C110.7 13.9706 109.806 13.6152 108.972 13.4191V11.9117Z" fill="#B67340"/>
<path d="M3.05322 28.7132C3.29832 26.2867 4.1439 23.8357 5.58997 21.3602C7.37919 18.2475 9.56056 15.9558 12.1341 14.4853C13.09 13.946 13.9968 13.5906 14.8547 13.4191V22.2058C14.2664 22.3529 13.6537 22.598 13.0164 22.9411C10.9086 24.1666 9.1194 26.0661 7.64881 28.6397C6.69293 30.2573 6.05567 31.8627 5.73704 33.4558L5.18557 33.0882C3.98459 32.1813 3.27381 30.723 3.05322 28.7132ZM93.6414 41.2499C93.6414 39.3627 92.9797 37.7573 91.6562 36.4338C90.3081 35.1102 88.6905 34.4485 86.8032 34.4485C84.9405 34.4485 83.3351 35.1102 81.987 36.4338C80.6635 37.7573 80.0018 39.3627 80.0018 41.2499C80.0018 43.1372 80.6635 44.7181 81.987 45.9926C83.3351 47.3651 84.9405 48.0514 86.8032 48.0514C88.6905 48.0514 90.3081 47.3651 91.6562 45.9926C92.9797 44.7181 93.6414 43.1372 93.6414 41.2499ZM97.7959 38.7132C98.7272 42.2426 98.4944 45.5147 97.0973 48.5294C95.6758 51.6176 93.4944 53.5539 90.5532 54.3382C87.6366 55.098 84.7934 54.4975 82.0238 52.5367C79.3032 50.6495 77.465 47.9411 76.5091 44.4117V44.3749C75.7248 41.4338 76.0924 38.6519 77.612 36.0294C79.1562 33.3823 81.3866 31.6789 84.3032 30.9191C87.2444 30.1347 90.0385 30.5024 92.6856 32.022C95.2836 33.5171 96.987 35.7352 97.7959 38.6764V38.7132ZM120.774 28.7132C120.529 30.723 119.806 32.1813 118.605 33.0882L118.053 33.4558C117.735 31.8627 117.097 30.2573 116.141 28.6397C114.671 26.0661 112.882 24.1666 110.774 22.9411C110.137 22.598 109.536 22.3529 108.972 22.2058V13.4191C109.806 13.6151 110.7 13.9705 111.656 14.4853C114.23 15.9558 116.411 18.2475 118.2 21.3602C119.646 23.8357 120.504 26.2867 120.774 28.7132ZM30.112 41.2499C30.112 43.1372 30.7738 44.7181 32.0973 45.9926C33.4454 47.3651 35.063 48.0514 36.9503 48.0514C38.813 48.0514 40.4184 47.3651 41.7665 45.9926C43.09 44.7181 43.7517 43.1372 43.7517 41.2499C43.7517 39.3627 43.09 37.7573 41.7665 36.4338C40.4184 35.1102 38.813 34.4485 36.9503 34.4485C35.063 34.4485 33.4454 35.1102 32.0973 36.4338C30.7738 37.7573 30.112 39.3627 30.112 41.2499ZM25.9576 38.7132V38.6764C26.7665 35.7352 28.4699 33.5171 31.0679 32.022C33.715 30.5024 36.5091 30.1347 39.4503 30.9191C42.367 31.6789 44.5973 33.3823 46.1414 36.0294C47.661 38.6519 48.0287 41.4338 47.2444 44.3749V44.4117C46.2885 47.9411 44.4503 50.6495 41.7297 52.5367C38.9601 54.4975 36.117 55.098 33.2003 54.3382C30.2591 53.5539 28.0777 51.6176 26.6561 48.5294C25.2591 45.5147 25.0263 42.2426 25.9576 38.7132Z" fill="#8E5A32"/>
<path d="M5.73706 33.456C6.05569 31.8629 6.69295 30.2575 7.64883 28.6399C9.11942 26.0663 10.9086 24.1668 13.0165 22.9413C13.6537 22.5982 14.2665 22.3531 14.8547 22.2061V37.4634C12.1831 36.7526 9.46254 35.6007 6.69293 34.0075L5.73706 33.456ZM118.053 33.456L117.097 34.0075C114.352 35.6007 111.644 36.7526 108.972 37.4634V22.2061C109.536 22.3531 110.137 22.5982 110.774 22.9413C112.882 24.1668 114.671 26.0663 116.141 28.6399C117.097 30.2575 117.735 31.8629 118.053 33.456Z" fill="#774B2A"/>
<path d="M90.3325 41.3604C90.3325 40.1594 89.9159 39.1545 89.0825 38.3457C88.2492 37.5124 87.2443 37.0957 86.0678 37.0957C84.8914 37.0957 83.8742 37.5124 83.0164 38.3457C82.183 39.1545 81.7663 40.1594 81.7663 41.3604C81.7663 42.5369 82.183 43.5295 83.0164 44.3383C83.8742 45.1962 84.8914 45.6251 86.0678 45.6251C87.2443 45.6251 88.2492 45.1962 89.0825 44.3383C89.9159 43.5295 90.3325 42.5369 90.3325 41.3604ZM93.6413 41.2501C93.6413 43.1373 92.9796 44.7182 91.6561 45.9927C90.308 47.3653 88.6904 48.0516 86.8031 48.0516C84.9404 48.0516 83.335 47.3653 81.9869 45.9927C80.6634 44.7182 80.0016 43.1373 80.0016 41.2501C80.0016 39.3628 80.6634 37.7574 81.9869 36.4339C83.335 35.1104 84.9404 34.4486 86.8031 34.4486C88.6904 34.4486 90.308 35.1104 91.6561 36.4339C92.9796 37.7574 93.6413 39.3628 93.6413 41.2501ZM30.1119 41.2501C30.1119 39.3628 30.7737 37.7574 32.0972 36.4339C33.4453 35.1104 35.0629 34.4486 36.9502 34.4486C38.8129 34.4486 40.4183 35.1104 41.7664 36.4339C43.0899 37.7574 43.7516 39.3628 43.7516 41.2501C43.7516 43.1373 43.0899 44.7182 41.7664 45.9927C40.4183 47.3653 38.8129 48.0516 36.9502 48.0516C35.0629 48.0516 33.4453 47.3653 32.0972 45.9927C30.7737 44.7182 30.1119 43.1373 30.1119 41.2501ZM33.4208 41.3604C33.4208 42.5369 33.8374 43.5295 34.6708 44.3383C35.5041 45.1962 36.509 45.6251 37.6855 45.6251C38.8619 45.6251 39.8791 45.1962 40.7369 44.3383C41.5703 43.5295 41.9869 42.5369 41.9869 41.3604C41.9869 40.1594 41.5703 39.1545 40.7369 38.3457C39.8791 37.5124 38.8619 37.0957 37.6855 37.0957C36.509 37.0957 35.5041 37.5124 34.6708 38.3457C33.8374 39.1545 33.4208 40.1594 33.4208 41.3604Z" fill="white"/>
<path d="M33.4208 41.3604C33.4208 40.1594 33.8375 39.1545 34.6708 38.3457C35.5041 37.5124 36.509 37.0957 37.6855 37.0957C38.8619 37.0957 39.8791 37.5124 40.737 38.3457C41.5703 39.1545 41.9869 40.1594 41.9869 41.3604C41.9869 42.5369 41.5703 43.5295 40.737 44.3383C39.8791 45.1962 38.8619 45.6251 37.6855 45.6251C36.509 45.6251 35.5041 45.1962 34.6708 44.3383C33.8375 43.5295 33.4208 42.5369 33.4208 41.3604ZM90.3325 41.3604C90.3325 42.5369 89.9159 43.5295 89.0826 44.3383C88.2492 45.1962 87.2443 45.6251 86.0678 45.6251C84.8914 45.6251 83.8742 45.1962 83.0164 44.3383C82.183 43.5295 81.7664 42.5369 81.7664 41.3604C81.7664 40.1594 82.183 39.1545 83.0164 38.3457C83.8742 37.5124 84.8914 37.0957 86.0678 37.0957C87.2443 37.0957 88.2492 37.5124 89.0826 38.3457C89.9159 39.1545 90.3325 40.1594 90.3325 41.3604Z" fill="#5B5B5B"/>
<path d="M74.7443 20.5148V21.1398C74.5482 26.3358 73.286 30.8089 70.9575 34.5589C68.4575 38.6765 65.4306 40.7354 61.8767 40.7354C58.3228 40.7354 55.2835 38.6765 52.759 34.5589C50.4551 30.8089 49.2174 26.3358 49.0458 21.1398L49.009 20.5148C49.009 17.9658 50.259 15.7966 52.759 14.0074C55.2835 12.2182 58.3228 11.3236 61.8767 11.3236C65.4306 11.3236 68.4575 12.2182 70.9575 14.0074C73.4821 15.7966 74.7443 17.9658 74.7443 20.5148Z" fill="#AA6C3C"/>
<path d="M52.4282 52.684L52.2811 50.9561V50.2943C52.4282 49.1178 53.3596 48.1129 55.0753 47.2796C56.9625 46.3727 59.2297 45.9193 61.8767 45.9193C64.5238 45.9193 66.7909 46.3727 68.6782 47.2796C70.3694 48.1129 71.3007 49.1178 71.4723 50.2943V50.9561L71.3252 52.684C70.9821 51.7527 70.0998 50.9315 68.6782 50.2208C66.7909 49.3139 64.5238 48.8605 61.8767 48.8605C59.2297 48.8605 56.9625 49.3139 55.0753 50.2208C53.6537 50.907 52.7713 51.7281 52.4282 52.684Z" fill="#545454"/>
<path d="M52.4282 52.684C52.7714 51.7281 53.6537 50.907 55.0753 50.2207C56.9625 49.3139 59.2297 48.8605 61.8768 48.8605C64.5238 48.8605 66.791 49.3139 68.6782 50.2207C70.0998 50.9315 70.9821 51.7526 71.3253 52.684C71.0066 54.6203 70.1243 56.3114 68.6782 57.7575C67.6243 58.8114 66.4478 59.5713 65.1488 60.037C63.0655 60.8948 60.8841 60.8948 58.6047 60.037C57.3057 59.5713 56.1292 58.8114 55.0753 57.7575C53.6292 56.3114 52.7469 54.6203 52.4282 52.684Z" fill="#464646"/>
<path d="M65.1488 60.0369L65.7738 60.7722C66.2394 61.2379 66.7419 61.6055 67.2811 61.8751C67.9674 62.1938 68.7149 62.3531 69.5238 62.3531C70.9944 62.3531 72.2566 61.8261 73.3105 60.7722L74.2296 59.5589L74.5973 59.2281L75.112 59.2648L78.5679 61.0663L78.8988 61.4339L78.862 61.9119L77.759 63.6031L76.987 64.4487C74.9037 66.5075 72.4159 67.5369 69.5238 67.5369C66.6316 67.5369 64.1561 66.5075 62.0973 64.4487L61.8767 64.228L61.6561 64.4487C59.5728 66.5075 57.085 67.5369 54.1929 67.5369C51.2762 67.5369 48.8007 66.5075 46.7664 64.4487L45.9944 63.6031C45.5532 63.0638 45.1855 62.5246 44.8914 61.9854C44.7934 61.8138 44.7811 61.6545 44.8546 61.5075C44.8791 61.3359 44.9772 61.2011 45.1488 61.103L48.5311 59.2281L49.0091 59.1545L49.4135 59.4854C49.6831 59.9511 50.014 60.38 50.4061 60.7722C51.46 61.8261 52.7223 62.3531 54.1929 62.3531C55.0017 62.3531 55.7615 62.1938 56.4723 61.8751L57.9796 60.7722L58.6046 60.0369C60.8841 60.8947 63.0654 60.8947 65.1488 60.0369Z" fill="#383838"/>
<path d="M95.2591 97.0589H28.5311C30.737 93.4559 33.0532 90.2819 35.4796 87.5368C39.2542 83.2231 43.2983 79.9633 47.612 77.7574C52.0973 75.4535 56.8645 74.3015 61.9135 74.3015C67.0115 74.3015 71.8154 75.4657 76.3252 77.7942C80.5654 80 84.5605 83.2353 88.3105 87.5001C90.737 90.2451 93.0532 93.4314 95.2591 97.0589Z" fill="#955E34"/>
</svg>
