<svg width="132" height="100" viewBox="0 0 132 100" fill="none" xmlns="http://www.w3.org/2000/svg">
<path d="M81.6271 69.9632C83.0487 68.6397 84.1272 67.1936 84.8625 65.625C85.4507 64.3505 85.8183 63.0024 85.9654 61.5809L86.0022 60.8088V60.1838C86.0022 54.8897 84.1271 50.3799 80.3771 46.6544L79.0536 45.4411C75.5977 42.5245 71.5414 41.0662 66.8845 41.0662C62.2276 41.0662 58.159 42.5122 54.6786 45.4044L53.3183 46.6544C49.6173 50.3799 47.7669 54.8897 47.7669 60.1838V60.8088L47.8404 61.6176C47.9629 63.0392 48.3183 64.3872 48.9066 65.6617C49.6419 67.2304 50.7203 68.6887 52.1419 70.0367L52.4727 70.8088C53.208 72.4019 54.3845 73.8357 56.0022 75.1103C59.0169 77.4877 62.6443 78.6764 66.8845 78.6764C71.1002 78.6764 74.7031 77.4877 77.6933 75.1103C79.3355 73.8112 80.5364 72.3652 81.2963 70.772L81.6271 69.9632ZM37.5463 5.88232C37.5463 9.77938 40.4017 13.1005 46.1124 15.8456C51.8477 18.5906 58.7718 19.9632 66.8845 19.9632C74.9972 19.9632 81.909 18.5906 87.6198 15.8456C93.3551 13.1005 96.2227 9.77938 96.2227 5.88232H107.583C111.701 5.88232 113.821 7.89214 113.943 11.9117V15.625V18.3088V29.2279V50.9558V51.6911V91.0661C113.821 95.0612 111.701 97.0588 107.583 97.0588H26.186C22.0683 97.0588 19.9482 95.0612 19.8257 91.0661V51.1764V46.1764V29.522V18.4191V15.9191V11.9117C19.9482 7.89214 22.0683 5.88232 26.186 5.88232H37.5463ZM102.546 42.4632C102.546 39.9142 101.652 37.7451 99.8624 35.9558C99.2252 35.3186 98.5389 34.7916 97.8036 34.375C96.4801 33.6397 94.9973 33.272 93.3551 33.272C90.8551 33.272 88.6982 34.1666 86.8845 35.9558C85.0953 37.7451 84.2007 39.9142 84.2007 42.4632C84.2007 44.9877 85.0953 47.1323 86.8845 48.897C88.6982 50.7108 90.8551 51.6176 93.3551 51.6176C95.9041 51.6176 98.0732 50.7108 99.8624 48.897C100.99 47.7941 101.762 46.5441 102.179 45.147C102.424 44.2892 102.546 43.3946 102.546 42.4632ZM31.2227 42.4632C31.2227 44.0809 31.5904 45.5514 32.3257 46.875C32.7423 47.5858 33.2693 48.2598 33.9065 48.897C35.6958 50.7108 37.8649 51.6176 40.4139 51.6176C42.9139 51.6176 45.0708 50.7108 46.8845 48.897C48.6737 47.1323 49.5683 44.9877 49.5683 42.4632C49.5683 39.9142 48.6737 37.7451 46.8845 35.9558C45.0708 34.1666 42.9139 33.272 40.4139 33.272C38.7473 33.272 37.2399 33.6642 35.8918 34.4485C35.1811 34.8407 34.5193 35.3431 33.9065 35.9558C32.1173 37.7451 31.2227 39.9142 31.2227 42.4632Z" fill="#EE9FEE"/>
<path d="M96.2226 5.88232C96.2226 9.77938 93.355 13.1005 87.6197 15.8456C81.9089 18.5906 74.9971 19.9632 66.8844 19.9632C58.7717 19.9632 51.8476 18.5906 46.1123 15.8456C40.4016 13.1005 37.5461 9.77938 37.5461 5.88232H96.2226Z" fill="#FAA6FA"/>
<path d="M96.2227 5.88234H37.5463H26.186C22.0683 5.88234 19.9482 7.89215 19.8257 11.9118V9.33823C19.8257 5.07352 21.9458 2.94116 26.186 2.94116H107.583C111.823 2.94116 113.943 5.07352 113.943 9.33823V11.9118C113.821 7.89215 111.701 5.88234 107.583 5.88234H96.2227ZM85.9654 61.5809C85.8183 63.0024 85.4507 64.3505 84.8625 65.625C84.1272 67.1936 83.0487 68.6397 81.6271 69.9632L80.3771 71.0294C76.6516 73.9951 72.1541 75.4779 66.8845 75.4779C61.5904 75.4779 57.0683 73.9951 53.3183 71.0294L52.1419 70.0368C50.7203 68.6887 49.6419 67.2304 48.9066 65.6617C48.3183 64.3872 47.9629 63.0392 47.8404 61.6176C48.159 56.9608 49.985 52.9534 53.3183 49.5956L54.6786 48.3456C58.159 45.4534 62.2276 44.0073 66.8845 44.0073C71.5414 44.0073 75.5977 45.4657 79.0536 48.3823L80.3771 49.5956C83.7595 52.9534 85.6223 56.9485 85.9654 61.5809ZM80.4874 55.3309C79.7522 54.5956 78.6615 54.4363 77.2154 54.8529L77.0316 54.9265C75.6345 55.3431 74.3232 56.1642 73.0978 57.3897L72.9874 57.5C72.6688 57.8431 72.4237 58.223 72.2521 58.6397C72.0561 59.0809 71.958 59.5711 71.958 60.1103C71.958 61.1642 72.3257 62.0588 73.061 62.7941C73.7962 63.5294 74.6909 63.897 75.7448 63.897C76.7497 63.897 77.6198 63.5539 78.3551 62.8676L78.4654 62.7573C79.4703 61.7524 80.2056 60.6985 80.6713 59.5956L81.0022 58.6397C81.3208 57.5368 81.2963 56.6421 80.9286 55.9559L80.4874 55.3309ZM55.4139 62.8676C56.1492 63.5539 57.0193 63.897 58.0242 63.897C59.0781 63.897 59.9727 63.5294 60.708 62.7941C61.4433 62.0588 61.811 61.1642 61.811 60.1103C61.811 59.5711 61.7252 59.0809 61.5536 58.6397L60.7816 57.5L60.6713 57.3897C59.4213 56.1397 58.0977 55.3064 56.7007 54.8897L56.5536 54.8529C55.1076 54.4363 54.0169 54.5956 53.2816 55.3309L52.8404 55.9559C52.4727 56.6421 52.4482 57.5368 52.7668 58.6397L53.0977 59.5956C53.5634 60.6985 54.2987 61.7524 55.3036 62.7573L55.4139 62.8676Z" fill="#FFAAFF"/>
<path d="M19.8256 11.9118V15.9191L16.7374 16.5809C12.6687 17.6838 9.3844 19.4853 6.8844 21.9853C4.654 24.2402 3.6859 26.4706 3.98002 28.6765L4.49469 30.6618C6.33293 37.5245 9.35991 42.9902 13.5756 47.0588L14.2741 47.647C16.1369 49.3382 17.9874 50.5147 19.8256 51.1765V91.0662C19.9481 95.0613 22.0682 97.0588 26.1859 97.0588H107.583C111.701 97.0588 113.821 95.0613 113.943 91.0662V51.6912C117.424 51.201 120.451 48.9706 123.024 45L123.502 44.2279C126.541 39.2279 128.061 33.1618 128.061 26.0294L128.024 24.0073C127.73 21.777 126.223 19.8652 123.502 18.2721C120.781 16.6789 117.595 15.7966 113.943 15.625V11.9118V9.33824C113.943 5.07354 111.823 2.94118 107.583 2.94118H26.1859C21.9457 2.94118 19.8256 5.07354 19.8256 9.33824V11.9118ZM116.884 9.33824V12.9412C119.899 13.3824 122.607 14.3137 125.009 15.7353C128.686 17.8922 130.671 20.527 130.965 23.6397V23.8971L131.002 26.0294C131.002 33.7745 129.348 40.3554 126.039 45.7721L126.002 45.8088L125.561 46.5074L125.487 46.6176C122.987 50.4657 120.12 52.9412 116.884 54.0441V91.0662V91.1765C116.737 97.0588 113.637 100 107.583 100H26.1859C20.1319 100 17.0315 97.0588 16.8844 91.1765V91.0662V53.0882C15.4138 52.3284 13.931 51.2868 12.4359 49.9632L12.3991 49.9265L11.6271 49.2647L11.5535 49.1912C6.9457 44.7794 3.64912 38.8603 1.66383 31.4338V31.3971L1.14911 29.4485L1.0756 29.0809C0.536384 26.0171 1.77412 22.9657 4.78883 19.9265H4.82558C7.64421 17.0588 11.3575 15 15.9653 13.75L16.8844 13.5294V9.33824C16.8844 3.11275 19.9849 0 26.1859 0H107.583C113.784 0 116.884 3.11275 116.884 9.33824Z" fill="#9C619C"/>
<path d="M19.8254 18.4192V29.5222C19.0166 30.0369 18.2813 30.6251 17.6195 31.2869C16.0264 32.9291 15.3523 34.5467 15.5974 36.1398L15.9283 37.5001C16.8352 40.858 18.1342 43.7501 19.8254 46.1766V51.1766C17.9871 50.5149 16.1367 49.3384 14.2739 47.6472C10.769 43.7746 8.20773 38.8114 6.59008 32.7575L6.07537 30.7354C5.75674 28.5786 6.71264 26.3482 8.94303 24.0443C11.443 21.5443 14.7396 19.755 18.8327 18.6766L19.8254 18.4192ZM113.943 51.6913V50.956L114.899 49.6325L115.487 48.7134C117.693 45.1349 118.796 40.7845 118.796 35.6619L118.722 34.1913C118.575 32.5982 117.509 31.2011 115.524 30.0001L113.943 29.2281V18.309C117.007 18.6031 119.703 19.4364 122.031 20.809C124.776 22.4511 126.284 24.3629 126.553 26.5443L126.59 28.6031C126.566 34.9021 125.377 40.3678 123.024 45.0001C120.45 48.9707 117.423 51.2011 113.943 51.6913Z" fill="#D987D9"/>
<path d="M19.8255 29.522V46.1764C18.1344 43.75 16.8354 40.8578 15.9285 37.5L15.5976 36.1397C15.3525 34.5465 16.0265 32.9289 17.6197 31.2867C18.2814 30.625 19.0167 30.0367 19.8255 29.522ZM113.943 50.9558V29.2279L115.524 30C117.509 31.2009 118.576 32.598 118.723 34.1911L118.796 35.6617C118.796 40.7843 117.693 45.1348 115.487 48.7132L114.899 49.6323L113.943 50.9558Z" fill="#C97DC9"/>
<path d="M19.8257 15.9191V18.4191L18.833 18.6765C14.7399 19.7549 11.4433 21.5441 8.94335 24.0441C6.71295 26.348 5.75705 28.5784 6.07568 30.7353L6.5904 32.7573C8.20804 38.8113 10.7693 43.7745 14.2742 47.647L13.5757 47.0588C9.36 42.9902 6.33302 37.5245 4.49478 30.6618L3.98011 28.6765C3.68599 26.4706 4.6541 24.2402 6.88449 21.9853C9.38449 19.4853 12.6688 17.6838 16.7374 16.5809L19.8257 15.9191ZM113.943 18.3088V15.625C117.595 15.7966 120.782 16.6789 123.502 18.2721C126.223 19.8652 127.73 21.777 128.024 24.0073L128.061 26.0294C128.061 33.1618 126.541 39.2279 123.502 44.2279L123.024 45C125.377 40.3677 126.566 34.902 126.59 28.6029L126.554 26.5441C126.284 24.3627 124.777 22.451 122.032 20.8088C119.703 19.4363 117.007 18.6029 113.943 18.3088Z" fill="#F095F0"/>
<path d="M102.546 42.4633C102.546 43.3946 102.424 44.2892 102.179 45.1471C101.762 46.5441 100.99 47.7942 99.8624 48.8971C98.0731 50.7108 95.904 51.6177 93.355 51.6177C90.855 51.6177 88.6982 50.7108 86.8844 48.8971C85.0952 47.1324 84.2006 44.9878 84.2006 42.4633C84.2006 39.9143 85.0952 37.7451 86.8844 35.9559C88.6982 34.1667 90.855 33.2721 93.355 33.2721C94.9972 33.2721 96.48 33.6397 97.8035 34.375C98.5388 34.7917 99.2251 35.3187 99.8624 35.9559C101.652 37.7451 102.546 39.9143 102.546 42.4633ZM99.0535 42.6103C99.0535 40.8456 98.4408 39.3383 97.2153 38.0883C95.9898 36.8628 94.4824 36.25 92.6932 36.25C90.953 36.25 89.4457 36.8628 88.1712 38.0883C86.9457 39.3383 86.333 40.8456 86.333 42.6103C86.333 44.375 86.9457 45.8579 88.1712 47.0589C89.4457 48.3089 90.953 48.9339 92.6932 48.9339C94.4824 48.9339 95.9898 48.3089 97.2153 47.0589C98.4408 45.8579 99.0535 44.375 99.0535 42.6103ZM34.6785 42.6103C34.6785 44.375 35.3035 45.8579 36.5535 47.0589C37.779 48.3089 39.2864 48.9339 41.0756 48.9339C42.8158 48.9339 44.3109 48.3089 45.5609 47.0589C46.8109 45.8579 47.4359 44.375 47.4359 42.6103C47.4359 40.8456 46.8109 39.3383 45.5609 38.0883C44.3109 36.8628 42.8158 36.25 41.0756 36.25C39.2864 36.25 37.779 36.8628 36.5535 38.0883C35.3035 39.3383 34.6785 40.8456 34.6785 42.6103ZM31.2227 42.4633C31.2227 39.9143 32.1172 37.7451 33.9065 35.9559C34.5192 35.3432 35.181 34.8407 35.8918 34.4486C37.2398 33.6643 38.7472 33.2721 40.4138 33.2721C42.9138 33.2721 45.0707 34.1667 46.8844 35.9559C48.6736 37.7451 49.5683 39.9143 49.5683 42.4633C49.5683 44.9878 48.6736 47.1324 46.8844 48.8971C45.0707 50.7108 42.9138 51.6177 40.4138 51.6177C37.8648 51.6177 35.6957 50.7108 33.9065 48.8971C33.2692 48.2598 32.7423 47.5858 32.3256 46.875C31.5903 45.5515 31.2227 44.0809 31.2227 42.4633Z" fill="white"/>
<path d="M99.0535 42.6106C99.0535 44.3753 98.4407 45.8581 97.2152 47.0591C95.9897 48.3091 94.4824 48.9341 92.6931 48.9341C90.9529 48.9341 89.4456 48.3091 88.1711 47.0591C86.9456 45.8581 86.3329 44.3753 86.3329 42.6106C86.3329 40.8458 86.9456 39.3385 88.1711 38.0885C89.4456 36.863 90.9529 36.2502 92.6931 36.2502C94.4824 36.2502 95.9897 36.863 97.2152 38.0885C98.4407 39.3385 99.0535 40.8458 99.0535 42.6106ZM34.6785 42.6106C34.6785 40.8458 35.3035 39.3385 36.5535 38.0885C37.7789 36.863 39.2863 36.2502 41.0755 36.2502C42.8157 36.2502 44.3108 36.863 45.5608 38.0885C46.8108 39.3385 47.4358 40.8458 47.4358 42.6106C47.4358 44.3753 46.8108 45.8581 45.5608 47.0591C44.3108 48.3091 42.8157 48.9341 41.0755 48.9341C39.2863 48.9341 37.7789 48.3091 36.5535 47.0591C35.3035 45.8581 34.6785 44.3753 34.6785 42.6106Z" fill="#5B5B5B"/>
<path d="M47.8401 61.6177L47.7666 60.8089V60.1839C47.7666 54.8898 49.6171 50.38 53.3181 46.6545L54.6783 45.4045C58.1587 42.5124 62.2274 41.0663 66.8842 41.0663C71.5411 41.0663 75.5975 42.5246 79.0534 45.4413L80.3769 46.6545C84.1269 50.38 86.0019 54.8898 86.0019 60.1839V60.8089L85.9651 61.581C85.622 56.9486 83.7592 52.9535 80.3769 49.5957L79.0534 48.3824C75.5975 45.4658 71.5411 44.0075 66.8842 44.0075C62.2274 44.0075 58.1587 45.4535 54.6783 48.3457L53.3181 49.5957C49.9847 52.9535 48.1587 56.9609 47.8401 61.6177Z" fill="#FFC4FF"/>
<path d="M80.4874 55.331L80.9286 55.956C81.2962 56.6422 81.3208 57.5368 81.0021 58.6398L80.6713 59.5957C80.2056 60.6986 79.4703 61.7525 78.4654 62.7574L78.3551 62.8677C77.6198 63.554 76.7497 63.8971 75.7448 63.8971C74.6908 63.8971 73.7962 63.5295 73.0609 62.7942C72.3256 62.0589 71.958 61.1643 71.958 60.1104C71.958 59.5712 72.056 59.081 72.2521 58.6398C72.4237 58.2231 72.6688 57.8432 72.9874 57.5001L73.0977 57.3898C74.3232 56.1643 75.6345 55.3432 77.0315 54.9266L77.2154 54.853C78.6614 54.4364 79.7521 54.5957 80.4874 55.331ZM55.4139 62.8677L55.3036 62.7574C54.2987 61.7525 53.5634 60.6986 53.0977 59.5957L52.7668 58.6398C52.4482 57.5368 52.4727 56.6422 52.8403 55.956L53.2815 55.331C54.0168 54.5957 55.1075 54.4364 56.5536 54.853L56.7006 54.8898C58.0977 55.3064 59.4212 56.1398 60.6712 57.3898L60.7816 57.5001L61.5536 58.6398C61.7252 59.081 61.8109 59.5712 61.8109 60.1104C61.8109 61.1643 61.4433 62.0589 60.708 62.7942C59.9727 63.5295 59.0781 63.8971 58.0242 63.8971C57.0193 63.8971 56.1492 63.554 55.4139 62.8677Z" fill="#AF74AF"/>
<path d="M81.6269 69.9634L81.296 70.7722C80.5362 72.3653 79.3352 73.8114 77.6931 75.1104C74.7029 77.4879 71.0999 78.6766 66.8842 78.6766C62.644 78.6766 59.0166 77.4879 56.0019 75.1104C54.3842 73.8359 53.2077 72.4021 52.4724 70.809L52.1416 70.0369L53.3181 71.0296C57.0681 73.9953 61.5901 75.4781 66.8842 75.4781C72.1538 75.4781 76.6514 73.9953 80.3769 71.0296L81.6269 69.9634Z" fill="#E096E0"/>
</svg>
