<svg width="94" height="100" viewBox="0 0 94 100" fill="none" xmlns="http://www.w3.org/2000/svg">
<path d="M84.3707 0C90.1391 0 93.0233 2.89558 93.0233 8.68673V84.7127V84.8153C92.8865 90.2873 90.0023 93.0233 84.3707 93.0233H58.3105V95.0752C58.3333 96.3748 57.8659 97.5262 56.9083 98.5294L56.8058 98.632C55.8482 99.544 54.7082 100 53.3858 100C51.995 100 50.8436 99.5326 49.9316 98.5978L46.5458 95.212L43.1601 98.5978L43.0917 98.632C42.1341 99.544 40.9827 100 39.6375 100C38.3151 100 37.1751 99.544 36.2175 98.632L36.1149 98.5294C35.1573 97.5262 34.6899 96.3748 34.7127 95.0752V93.0233H8.65253C3.02098 93.0233 0.136799 90.2873 0 84.8153V84.7127V8.68673C0 2.89558 2.88418 0 8.65253 0H84.3707ZM90.2873 11.0807V8.68673C90.2873 4.71956 88.3151 2.73598 84.3707 2.73598H8.65253C4.70816 2.73598 2.73598 4.71956 2.73598 8.68673V11.0807V84.7127C2.84998 88.4291 4.82216 90.2873 8.65253 90.2873H37.4487V95.0752C37.4487 95.668 37.6653 96.1924 38.0985 96.6484C38.5317 97.0588 39.0447 97.264 39.6375 97.264C40.2531 97.264 40.7775 97.0588 41.2107 96.6484L46.5116 91.3133L51.8468 96.6484C52.2572 97.0588 52.7702 97.264 53.3858 97.264C53.9786 97.264 54.4916 97.0588 54.9248 96.6484C55.358 96.1924 55.5746 95.668 55.5746 95.0752V90.2873H84.3707C88.2011 90.2873 90.1733 88.4291 90.2873 84.7127V11.0807Z" fill="#1B8045"/>
<path d="M90.2871 11.0808C90.1731 7.34165 88.201 5.47206 84.3706 5.47206H74.1449H18.9123H8.65239C4.82202 5.47206 2.84984 7.34165 2.73584 11.0808V8.68683C2.73584 4.71967 4.70802 2.73608 8.65239 2.73608H84.3706C88.315 2.73608 90.2871 4.71967 90.2871 8.68683V11.0808Z" fill="#31DE7A"/>
<path d="M90.2871 11.0807V84.7127C90.1731 88.4291 88.201 90.2872 84.3706 90.2872H55.5744V87.2093L58.3104 86.5937L60.465 85.9439L66.6209 83.3447L66.9629 83.1737L68.5019 82.2845C71.6939 80.3921 74.6921 78.0437 77.4964 75.2394C80.0728 72.663 82.2616 69.927 84.0628 67.0314L85.3966 64.7059L84.0286 65.7318L83.7208 65.9712L83.1394 66.3816L69.8357 73.3242L68.8781 73.6662C66.3929 74.5098 63.8394 75.2052 61.2174 75.7524L55.5744 76.6416L52.4622 76.9494H52.3596L46.5115 77.2914L40.8685 76.9836L37.4486 76.6416L36.0464 76.4706L31.874 75.7524C29.2064 75.2052 26.6414 74.5098 24.1791 73.6662C19.4139 72.0246 14.9793 69.813 10.8754 67.0314L9.02859 65.7318L7.6264 64.6717L8.99439 67.0314C10.7956 69.927 12.9844 72.663 15.5607 75.2394C18.3651 78.0437 21.3519 80.3807 24.5211 82.2503L25.9917 83.1053L26.4704 83.3447L27.6332 83.9261L33.8234 86.3201L34.7126 86.5595L35.4992 86.7647L36.6278 87.0383L37.4486 87.2093V90.2872H8.65239C4.82202 90.2872 2.84984 88.4291 2.73584 84.7127V11.0807C2.84984 7.34151 4.82202 5.47192 8.65239 5.47192H18.9123C19.8927 14.8882 22.4805 23.1646 26.6756 30.3009C32.1704 39.6489 38.7824 44.3228 46.5115 44.3228C54.2634 44.3228 60.8754 39.6489 66.3473 30.3009C70.5425 23.1646 73.1417 14.8882 74.1449 5.47192H84.3706C88.201 5.47192 90.1731 7.34151 90.2871 11.0807ZM81.8398 55.0957C81.8398 52.4738 80.9164 50.2508 79.0696 48.4268C77.2228 46.58 74.9999 45.6566 72.4007 45.6566C69.8471 45.6566 67.6241 46.58 65.7317 48.4268C63.9306 50.2508 63.03 52.4738 63.03 55.0957C63.03 57.6949 63.9306 59.8837 65.7317 61.6621C67.6241 63.5317 69.8471 64.4665 72.4007 64.4665C74.9999 64.4665 77.2228 63.5317 79.0696 61.6621C80.9164 59.8837 81.8398 57.6949 81.8398 55.0957ZM11.7304 55.0957C11.7304 57.6949 12.6538 59.8837 14.5005 61.6621C16.3473 63.5317 18.5703 64.4665 21.1695 64.4665C23.7231 64.4665 25.9461 63.5317 27.8384 61.6621C29.6396 59.8837 30.5402 57.6949 30.5402 55.0957C30.5402 52.4738 29.6396 50.2508 27.8384 48.4268C25.9461 46.58 23.7231 45.6566 21.1695 45.6566C18.5703 45.6566 16.3473 46.58 14.5005 48.4268C12.6538 50.2508 11.7304 52.4738 11.7304 55.0957ZM41.4157 61.6621C40.6861 60.9325 39.8083 60.5677 38.7823 60.5677C37.802 60.5677 36.947 60.9097 36.2174 61.5937L36.1148 61.6963C34.8608 62.9503 34.0286 64.2955 33.6182 65.7318C33.4814 66.2106 33.413 66.6438 33.413 67.0314C33.413 67.8294 33.6524 68.4678 34.1312 68.9466C34.4276 69.243 34.7924 69.4482 35.2256 69.5622L37.346 69.4254C38.4176 69.129 39.4549 68.5818 40.4581 67.7838L41.3131 67.0314L41.3815 66.963L41.4841 66.8604C42.1681 66.1536 42.5101 65.2986 42.5101 64.2955C42.5101 63.2695 42.1453 62.3917 41.4157 61.6621ZM58.8918 68.9466C59.3706 68.4678 59.61 67.8294 59.61 67.0314L59.4048 65.7318C59.0172 64.2955 58.185 62.9503 56.9082 61.6963L56.8056 61.5937C56.0988 60.9097 55.2438 60.5677 54.2406 60.5677C53.2146 60.5677 52.3368 60.9325 51.6072 61.6621C50.8777 62.3917 50.5129 63.2695 50.5129 64.2955C50.5129 65.2986 50.8549 66.1536 51.5389 66.8604L51.6414 66.963L51.7099 67.0314L52.599 67.7838C53.5794 68.5818 54.6054 69.129 55.677 69.4254L57.8316 69.5622C58.242 69.4482 58.5954 69.243 58.8918 68.9466Z" fill="#2ECC71"/>
<path d="M73.0848 55.0275C73.0848 53.3631 72.8682 51.9723 72.435 50.8551C71.979 49.7151 71.4318 49.1337 70.7934 49.1109H70.725C70.1094 49.1337 69.5736 49.7151 69.1176 50.8551C68.6616 51.9723 68.4336 53.3631 68.4336 55.0275V55.6089C68.4792 56.9541 68.7072 58.1168 69.1176 59.0972C69.5736 60.2144 70.1094 60.7844 70.725 60.8072H70.7934C71.4318 60.7844 71.979 60.2144 72.435 59.0972C72.8226 58.1168 73.0392 56.9541 73.0848 55.6089V55.0275ZM81.8399 55.0959C81.8399 57.695 80.9165 59.8838 79.0697 61.6622C77.2229 63.5318 75 64.4666 72.4008 64.4666C69.8472 64.4666 67.6242 63.5318 65.7318 61.6622C63.9307 59.8838 63.0301 57.695 63.0301 55.0959C63.0301 52.4739 63.9307 50.2509 65.7318 48.4269C67.6242 46.5801 69.8472 45.6567 72.4008 45.6567C75 45.6567 77.2229 46.5801 79.0697 48.4269C80.9165 50.2509 81.8399 52.4739 81.8399 55.0959ZM24.1792 73.6663C26.6415 74.5099 29.2065 75.2053 31.8741 75.7525L29.3091 77.8729C28.2375 78.7621 27.1659 78.3631 26.0944 76.6759L24.1792 73.6663ZM61.2175 75.7525C63.8395 75.2053 66.393 74.5099 68.8782 73.6663L66.9288 76.6759C65.8572 78.3631 64.7856 78.7621 63.714 77.8729L61.2175 75.7525ZM20.4856 55.0275V55.6089C20.5312 56.9541 20.7478 58.1168 21.1354 59.0972C21.5914 60.2144 22.1386 60.7844 22.777 60.8072H22.8454C23.4382 60.7844 23.974 60.2144 24.4528 59.0972C24.8404 58.1168 25.057 56.9541 25.1026 55.6089L25.1368 55.0275C25.1368 53.3631 24.9088 51.9723 24.4528 50.8551C23.974 49.7151 23.4382 49.1337 22.8454 49.1109H22.777C22.1386 49.1337 21.5914 49.7151 21.1354 50.8551C20.7022 51.9723 20.4856 53.3631 20.4856 55.0275ZM11.7305 55.0959C11.7305 52.4739 12.6539 50.2509 14.5006 48.4269C16.3474 46.5801 18.5704 45.6567 21.1696 45.6567C23.7232 45.6567 25.9462 46.5801 27.8385 48.4269C29.6397 50.2509 30.5403 52.4739 30.5403 55.0959C30.5403 57.695 29.6397 59.8838 27.8385 61.6622C25.9462 63.5318 23.7232 64.4666 21.1696 64.4666C18.5704 64.4666 16.3474 63.5318 14.5006 61.6622C12.6539 59.8838 11.7305 57.695 11.7305 55.0959Z" fill="white"/>
<path d="M73.0848 55.0271V55.6085C73.0392 56.9537 72.8226 58.1165 72.435 59.0969C71.979 60.2141 71.4318 60.7841 70.7934 60.8069H70.725C70.1094 60.7841 69.5736 60.2141 69.1176 59.0969C68.7072 58.1165 68.4792 56.9537 68.4336 55.6085V55.0271C68.4336 53.3628 68.6616 51.972 69.1176 50.8548C69.5736 49.7148 70.1094 49.1334 70.725 49.1106H70.7934C71.4318 49.1334 71.979 49.7148 72.435 50.8548C72.8682 51.972 73.0848 53.3628 73.0848 55.0271ZM20.4856 55.0271C20.4856 53.3628 20.7022 51.972 21.1354 50.8548C21.5914 49.7148 22.1386 49.1334 22.777 49.1106H22.8454C23.4382 49.1334 23.974 49.7148 24.4528 50.8548C24.9088 51.972 25.1368 53.3628 25.1368 55.0271L25.1026 55.6085C25.057 56.9537 24.8404 58.1165 24.4528 59.0969C23.974 60.2141 23.4382 60.7841 22.8454 60.8069H22.777C22.1386 60.7841 21.5914 60.2141 21.1354 59.0969C20.7478 58.1165 20.5312 56.9537 20.4856 55.6085V55.0271Z" fill="#5B5B5B"/>
<path d="M68.8782 73.6662L69.8358 73.3242L83.1395 66.3816L83.7209 65.9712L84.0287 65.7318L85.3967 64.7058L84.0629 67.0314C82.2617 69.927 80.0729 72.663 77.4965 75.2393C74.6921 78.0437 71.694 80.3921 68.502 82.2845L66.963 83.1737L66.621 83.3447L60.465 85.9439L58.3105 86.5937L55.5745 87.2092V76.6415L61.2174 75.7523L63.714 77.8727C64.7856 78.7619 65.8572 78.3629 66.9288 76.6757L68.8782 73.6662ZM37.4486 87.2092L36.6278 87.0382L35.4992 86.7647L34.7127 86.5595L33.8235 86.3201L27.6333 83.9261L26.4705 83.3447L25.9917 83.1053L24.5211 82.2503C21.352 80.3807 18.3652 78.0437 15.5608 75.2393C12.9844 72.663 10.7956 69.927 8.99445 67.0314L7.62646 64.6716L9.02865 65.7318L10.8754 67.0314C14.9794 69.813 19.414 72.0246 24.1791 73.6662L26.0943 76.6757C27.1659 78.3629 28.2375 78.7619 29.3091 77.8727L31.8741 75.7523L36.0464 76.4705L37.4486 76.6415V87.2092Z" fill="#2ABD68"/>
<path d="M18.9126 5.47192H74.1451C73.142 14.8882 70.5428 23.1646 66.3476 30.3009C60.8757 39.6489 54.2637 44.3228 46.5118 44.3228C38.7826 44.3228 32.1707 39.6489 26.6759 30.3009C22.4808 23.1646 19.893 14.8882 18.9126 5.47192ZM62.9276 22.9138L62.9618 22.8796C63.0986 22.4236 63.0986 21.9904 62.9618 21.58V21.5458C62.7566 21.0214 62.4261 20.668 61.9701 20.4856L62.0042 20.5198C52.1547 15.481 41.8492 15.4696 31.0877 20.4856H31.1219C30.5975 20.6908 30.2555 21.0556 30.0959 21.58C29.9363 21.9904 29.9363 22.4236 30.0959 22.8796C30.2555 23.3356 30.5861 23.689 31.0877 23.9398V23.974C41.8492 28.9443 52.1547 28.9329 62.0042 23.9398C62.4374 23.7118 62.7452 23.3698 62.9276 22.9138ZM36.5597 35.9439H36.5255C43.4794 39.1587 50.1483 39.1587 56.5323 35.9439L56.5665 35.9097C56.9541 35.7273 57.2163 35.4309 57.3531 35.0205L57.3189 35.0889C57.4557 34.7013 57.4671 34.3479 57.3531 34.0287C57.2163 33.5955 56.9541 33.2877 56.5665 33.1053H56.5323C50.1711 29.8449 43.525 29.8335 36.5939 33.0711C36.1151 33.2535 35.8187 33.5727 35.7047 34.0287C35.5679 34.3479 35.5793 34.7013 35.7389 35.0889C35.8529 35.4537 36.1265 35.7387 36.5597 35.9439Z" fill="#28BD68"/>
<path d="M36.5595 35.9439C36.1263 35.7387 35.8527 35.4537 35.7387 35.0889C35.5791 34.7013 35.5677 34.3479 35.7045 34.0287C35.8185 33.5727 36.1149 33.2535 36.5937 33.0711C43.5249 29.8335 50.171 29.8449 56.5322 33.1053H56.5664C56.954 33.2877 57.2162 33.5955 57.353 34.0287C57.467 34.3479 57.4556 34.7013 57.3188 35.0889L57.353 35.0205C57.2162 35.4309 56.954 35.7273 56.5664 35.9097L56.5322 35.9439C50.1482 39.1587 43.4793 39.1587 36.5253 35.9439H36.5595ZM62.9275 22.9138C62.7451 23.3698 62.4373 23.7118 62.0041 23.9398C52.1546 28.933 41.8491 28.9444 31.0876 23.974V23.9398C30.586 23.689 30.2554 23.3356 30.0958 22.8796C29.9362 22.4236 29.9362 21.9904 30.0958 21.58C30.2554 21.0556 30.5974 20.6908 31.1218 20.4856H31.0876C41.8491 15.4697 52.1546 15.4811 62.0041 20.5198L61.9699 20.4856C62.4259 20.668 62.7565 21.0214 62.9617 21.5458V21.58C63.0985 21.9904 63.0985 22.4236 62.9617 22.8796L62.9275 22.9138Z" fill="#31DB79"/>
<path d="M41.4158 61.662C42.1454 62.3916 42.5102 63.2694 42.5102 64.2954C42.5102 65.2986 42.1682 66.1536 41.4842 66.8604L41.3816 66.963L41.3132 67.0314L40.4582 67.7838C39.455 68.5818 38.4176 69.129 37.3461 69.4254L35.2257 69.5622C34.7925 69.4482 34.4277 69.243 34.1313 68.9466C33.6525 68.4678 33.4131 67.8294 33.4131 67.0314C33.4131 66.6438 33.4815 66.2106 33.6183 65.7318C34.0287 64.2954 34.8609 62.9502 36.1149 61.6962L36.2175 61.5936C36.9471 60.9096 37.802 60.5676 38.7824 60.5676C39.8084 60.5676 40.6862 60.9324 41.4158 61.662ZM58.8919 68.9466C58.5955 69.243 58.2421 69.4482 57.8317 69.5622L55.6771 69.4254C54.6055 69.129 53.5795 68.5818 52.5991 67.7838L51.7099 67.0314L51.6415 66.963L51.5389 66.8604C50.855 66.1536 50.513 65.2986 50.513 64.2954C50.513 63.2694 50.8777 62.3916 51.6073 61.662C52.3369 60.9324 53.2147 60.5676 54.2407 60.5676C55.2439 60.5676 56.0989 60.9096 56.8057 61.5936L56.9083 61.6962C58.1851 62.9502 59.0173 64.2954 59.4049 65.7318L59.6101 67.0314C59.6101 67.8294 59.3707 68.4678 58.8919 68.9466Z" fill="#24A35A"/>
<path d="M37.4487 76.6414L40.8687 76.9834L46.5117 77.2912V91.313L41.2107 96.6482C40.7775 97.0586 40.2531 97.2638 39.6375 97.2638C39.0447 97.2638 38.5317 97.0586 38.0985 96.6482C37.6653 96.1922 37.4487 95.6678 37.4487 95.075V90.287V87.2091V76.6414Z" fill="#E74C3C"/>
<path d="M55.5746 87.2091V90.287V95.075C55.5746 95.6678 55.3581 96.1922 54.9249 96.6482C54.4917 97.0586 53.9787 97.2638 53.3859 97.2638C52.7703 97.2638 52.2573 97.0586 51.8469 96.6482L46.5117 91.313V77.2912L52.3599 76.9492H52.4625L55.5746 76.6414V87.2091Z" fill="#D24436"/>
</svg>
