<svg width="127" height="100" viewBox="0 0 127 100" fill="none" xmlns="http://www.w3.org/2000/svg">
<path d="M110.561 11.9118V9.33824C110.561 5.07354 108.441 2.94118 104.201 2.94118H22.8034C18.5632 2.94118 16.4431 5.07354 16.4431 9.33824V11.9118V20.1103C15.1931 20.1103 13.7961 20.527 12.252 21.3603C9.67843 22.8309 7.49707 25.1225 5.70785 28.2353C3.91863 31.299 3.03628 34.3015 3.06079 37.2426L3.1711 38.5294C3.39169 40.5392 4.10247 41.9976 5.30345 42.9044L5.85492 43.2721L6.81079 43.8235C10.0706 45.7108 13.2814 46.9853 16.4431 47.647V91.0662C16.5657 95.0613 18.6858 97.0588 22.8034 97.0588H26.5167H100.561H104.201C108.318 97.0588 110.438 95.0613 110.561 91.0662V47.647C113.698 46.9608 116.897 45.6863 120.156 43.8235L121.112 43.2721L121.664 42.9044C122.865 41.9976 123.588 40.5392 123.833 38.5294L123.906 37.2426C123.931 34.3015 123.049 31.299 121.259 28.2353C119.47 25.1225 117.289 22.8309 114.715 21.3603C113.196 20.527 111.811 20.1103 110.561 20.1103V11.9118ZM113.502 9.33824V17.6471C114.335 17.9167 115.218 18.2966 116.149 18.7868L116.186 18.8235C119.176 20.4902 121.725 23.1372 123.833 26.7647H123.796C125.879 30.3186 126.897 33.8113 126.848 37.2426V37.2794L126.774 38.8971C126.406 41.8382 125.291 43.9583 123.428 45.2573L123.392 45.2941L122.693 45.7721L122.509 45.8823L121.701 46.3235L121.627 46.3971C118.882 47.9657 116.174 49.1422 113.502 49.9265V91.0662V91.1765C113.355 97.0588 110.254 100 104.201 100H22.8034C16.7495 100 13.649 97.0588 13.502 91.1765V91.0662V49.9265C10.8059 49.1422 8.0853 47.9657 5.3402 46.3971L5.26667 46.3235L4.45786 45.8823L4.3108 45.7721L3.61226 45.2941L3.53875 45.2573C1.676 43.9583 0.585305 41.826 0.266678 38.8603V39.0441L0.11961 37.2794V37.2426C0.0705906 33.8113 1.08777 30.3186 3.1711 26.7647C5.25443 23.1372 7.80345 20.4902 10.8182 18.8235L10.8549 18.7868C11.7618 18.272 12.6441 17.8922 13.502 17.6471V9.33824C13.502 3.11275 16.6025 0 22.8034 0H104.201C110.401 0 113.502 3.11275 113.502 9.33824Z" fill="#2D548C"/>
<path d="M16.4431 11.9118V9.33823C16.4431 5.07352 18.5632 2.94116 22.8034 2.94116H104.2C108.441 2.94116 110.561 5.07352 110.561 9.33823V11.9118C110.438 7.89215 108.318 5.88234 104.2 5.88234H22.8034C18.6858 5.88234 16.5657 7.89215 16.4431 11.9118Z" fill="#5A9BF3"/>
<path d="M16.4432 11.9117C16.5657 7.89214 18.6858 5.88232 22.8034 5.88232H104.201C108.318 5.88232 110.438 7.89214 110.561 11.9117V20.1103C111.811 20.1103 113.196 20.5269 114.715 21.3603C117.289 22.8308 119.47 25.1225 121.259 28.2353C123.049 31.299 123.931 34.3014 123.906 37.2426L123.833 38.5294C123.563 36.1029 122.705 33.6519 121.259 31.1764C119.47 28.0637 117.289 25.772 114.715 24.3014C113.196 23.4681 111.811 23.0514 110.561 23.0514V31.7647V47.647V91.0661C110.438 95.0612 108.318 97.0588 104.201 97.0588H100.561C98.551 95.9558 97.5706 94.1421 97.6196 91.6176C96.9333 84.5588 93.649 78.4436 87.7667 73.272L86.9211 72.5735C80.4995 67.2304 72.828 64.5588 63.9064 64.5588C54.8623 64.5588 47.0927 67.3039 40.5976 72.7941L40.0093 73.272C34.176 78.4436 30.9284 84.5588 30.2667 91.6176C29.5559 94.1176 28.3059 95.9313 26.5167 97.0588H22.8034C18.6858 97.0588 16.5657 95.0612 16.4432 91.0661V47.647V31.7647V23.0514C15.1932 23.0514 13.7961 23.4681 12.252 24.3014C9.67845 25.772 7.49708 28.0637 5.70786 31.1764C4.26178 33.6519 3.41621 36.1029 3.17111 38.5294L3.0608 37.2426C3.03629 34.3014 3.91865 31.299 5.70786 28.2353C7.49708 25.1225 9.67845 22.8308 12.252 21.3603C13.7961 20.5269 15.1932 20.1103 16.4432 20.1103V11.9117ZM25.8182 55.2941C25.8182 58.0882 26.8108 60.4411 28.7961 62.3529C30.7814 64.3627 33.1711 65.3676 35.9652 65.3676C38.7103 65.3676 41.1 64.3627 43.1343 62.3529C45.0706 60.4411 46.0387 58.0882 46.0387 55.2941C46.0387 52.4755 45.0706 50.0858 43.1343 48.125C41.1 46.1397 38.7103 45.147 35.9652 45.147C33.1711 45.147 30.7814 46.1397 28.7961 48.125C26.8108 50.0858 25.8182 52.4755 25.8182 55.2941ZM101.186 55.2941C101.186 52.4755 100.193 50.0858 98.2079 48.125C96.2226 46.1397 93.8329 45.147 91.0388 45.147C88.2937 45.147 85.904 46.1397 83.8696 48.125C81.9334 50.0858 80.9652 52.4755 80.9652 55.2941C80.9652 58.0882 81.9334 60.4411 83.8696 62.3529C85.904 64.3627 88.2937 65.3676 91.0388 65.3676C93.8329 65.3676 96.2226 64.3627 98.2079 62.3529C100.193 60.4411 101.186 58.0882 101.186 55.2941Z" fill="#528CDB"/>
<path d="M123.833 38.5294C123.588 40.5393 122.865 41.9976 121.664 42.9045L121.112 43.2721C120.794 41.679 120.156 40.0736 119.201 38.4559C117.73 35.8824 115.941 33.9829 113.833 32.7574C112.632 32.1201 111.541 31.7893 110.561 31.7648V23.0515C111.811 23.0515 113.196 23.4682 114.715 24.3015C117.289 25.7721 119.47 28.0638 121.259 31.1765C122.705 33.652 123.563 36.103 123.833 38.5294ZM5.85496 43.2721L5.30349 42.9045C4.10251 41.9976 3.39173 40.5393 3.17114 38.5294C3.41624 36.103 4.26182 33.652 5.70789 31.1765C7.49711 28.0638 9.67848 25.7721 12.252 24.3015C13.7961 23.4682 15.1932 23.0515 16.4432 23.0515V31.7648C15.4628 31.7893 14.3599 32.1201 13.1344 32.7574C11.0265 33.9829 9.23732 35.8824 7.76673 38.4559C6.81085 40.0736 6.17359 41.679 5.85496 43.2721Z" fill="#4B80C9"/>
<path d="M5.85498 43.2722C6.17361 41.6791 6.81087 40.0737 7.76675 38.4561C9.23734 35.8825 11.0265 33.983 13.1344 32.7575C14.3599 32.1203 15.4628 31.7894 16.4432 31.7649V47.6472C13.2814 46.9855 10.0707 45.711 6.81085 43.8237L5.85498 43.2722ZM121.112 43.2722L120.156 43.8237C116.897 45.6865 113.698 46.961 110.561 47.6472V31.7649C111.541 31.7894 112.632 32.1203 113.833 32.7575C115.941 33.983 117.73 35.8825 119.201 38.4561C120.156 40.0737 120.794 41.6791 121.112 43.2722Z" fill="#3B6EB4"/>
<path d="M25.8181 55.2943C25.8181 52.4757 26.8108 50.086 28.796 48.1252C30.7813 46.1399 33.171 45.1472 35.9652 45.1472C38.7103 45.1472 41.1 46.1399 43.1343 48.1252C45.0706 50.086 46.0387 52.4757 46.0387 55.2943C46.0387 58.0884 45.0706 60.4413 43.1343 62.3531C41.1 64.3629 38.7103 65.3678 35.9652 65.3678C33.171 65.3678 30.7813 64.3629 28.796 62.3531C26.8108 60.4413 25.8181 58.0884 25.8181 55.2943ZM31.3696 55.2208L31.4064 55.8458C31.5289 57.2918 32.1171 58.5418 33.1711 59.5957C34.4211 60.8212 35.9407 61.434 37.7299 61.434C39.4456 61.434 40.9407 60.8212 42.2152 59.5957C43.3181 58.5418 43.9309 57.2918 44.0534 55.8458L44.0902 55.2208C44.0902 53.4315 43.4652 51.9364 42.2152 50.7355C40.9407 49.4855 39.4456 48.8605 37.7299 48.8605C35.9407 48.8605 34.4211 49.4855 33.1711 50.7355C31.9701 51.9364 31.3696 53.4315 31.3696 55.2208ZM101.186 55.2943C101.186 58.0884 100.193 60.4413 98.2078 62.3531C96.2225 64.3629 93.8328 65.3678 91.0387 65.3678C88.2936 65.3678 85.9039 64.3629 83.8696 62.3531C81.9333 60.4413 80.9652 58.0884 80.9652 55.2943C80.9652 52.4757 81.9333 50.086 83.8696 48.1252C85.9039 46.1399 88.2936 45.1472 91.0387 45.1472C93.8328 45.1472 96.2225 46.1399 98.2078 48.1252C100.193 50.086 101.186 52.4757 101.186 55.2943ZM95.6343 55.2208C95.6343 53.4315 95.0338 51.9364 93.8328 50.7355C92.5828 49.4855 91.0632 48.8605 89.274 48.8605C87.5583 48.8605 86.0632 49.4855 84.7887 50.7355C83.5387 51.9364 82.9137 53.4315 82.9137 55.2208L82.9505 55.8458C83.073 57.2918 83.6858 58.5418 84.7887 59.5957C86.0632 60.8212 87.5583 61.434 89.274 61.434C91.0632 61.434 92.5828 60.8212 93.8328 59.5957C94.8867 58.5418 95.475 57.2918 95.5975 55.8458L95.6343 55.2208Z" fill="white"/>
<path d="M95.6344 55.2208L95.5976 55.8458C95.475 57.2918 94.8868 58.5418 93.8329 59.5957C92.5829 60.8212 91.0633 61.434 89.274 61.434C87.5584 61.434 86.0633 60.8212 84.7888 59.5957C83.6858 58.5418 83.0731 57.2918 82.9505 55.8458L82.9137 55.2208C82.9137 53.4315 83.5388 51.9364 84.7888 50.7355C86.0633 49.4855 87.5584 48.8605 89.274 48.8605C91.0633 48.8605 92.5829 49.4855 93.8329 50.7355C95.0339 51.9364 95.6344 53.4315 95.6344 55.2208ZM31.3696 55.2208C31.3696 53.4315 31.9701 51.9364 33.1711 50.7355C34.4211 49.4855 35.9407 48.8605 37.7299 48.8605C39.4456 48.8605 40.9407 49.4855 42.2152 50.7355C43.4652 51.9364 44.0902 53.4315 44.0902 55.2208L44.0535 55.8458C43.9309 57.2918 43.3182 58.5418 42.2152 59.5957C40.9407 60.8212 39.4456 61.434 37.7299 61.434C35.9407 61.434 34.4211 60.8212 33.1711 59.5957C32.1172 58.5418 31.529 57.2918 31.4064 55.8458L31.3696 55.2208Z" fill="#5B5B5B"/>
<path d="M100.561 97.0591H26.5166C28.3058 95.9316 29.5558 94.1179 30.2666 91.6179C30.9283 84.5591 34.1759 78.4439 40.0092 73.2723L40.5975 72.7944C47.0926 67.3042 54.8622 64.5591 63.9063 64.5591C72.8279 64.5591 80.4994 67.2307 86.921 72.5738L87.7666 73.2723C93.6489 78.4439 96.9333 84.5591 97.6195 91.6179C97.5705 94.1424 98.5509 95.9562 100.561 97.0591ZM76.4431 73.787C75.9039 73.2478 75.095 73.1253 74.0166 73.4194C72.9136 73.7135 71.8842 74.3508 70.9284 75.3312L70.8181 75.4047C70.3034 75.9439 70.046 76.6057 70.046 77.39C70.046 78.1743 70.3279 78.8361 70.8916 79.3753C71.4308 79.939 72.1048 80.2209 72.9136 80.2209C73.6489 80.2209 74.2985 79.9635 74.8622 79.4488L74.9357 79.3753C75.9161 78.3949 76.5534 77.3655 76.8475 76.287C77.1661 75.1841 77.0313 74.3508 76.4431 73.787ZM52.8034 79.4488C53.3426 79.9635 53.9921 80.2209 54.7519 80.2209C55.5362 80.2209 56.2102 79.939 56.7739 79.3753C57.3132 78.8361 57.5828 78.1743 57.5828 77.39C57.5828 76.6057 57.3254 75.9439 56.8107 75.4047L56.7372 75.3312C55.7568 74.3508 54.7274 73.7135 53.6489 73.4194C52.5705 73.1253 51.7494 73.2478 51.1857 73.787C50.622 74.3508 50.4994 75.1841 50.8181 76.287C51.1122 77.3655 51.7494 78.3949 52.7298 79.3753L52.8034 79.4488Z" fill="#4178C2"/>
<path d="M52.8034 79.4487L52.7299 79.3751C51.7495 78.3948 51.1122 77.3653 50.8181 76.2869C50.4995 75.184 50.622 74.3506 51.1857 73.7869C51.7495 73.2477 52.5706 73.1251 53.649 73.4193C54.7274 73.7134 55.7568 74.3506 56.7372 75.331L56.8107 75.4045C57.3254 75.9438 57.5828 76.6055 57.5828 77.3898C57.5828 78.1742 57.3132 78.8359 56.774 79.3751C56.2103 79.9389 55.5362 80.2207 54.7519 80.2207C53.9921 80.2207 53.3426 79.9634 52.8034 79.4487ZM76.4431 73.7869C77.0313 74.3506 77.1661 75.184 76.8475 76.2869C76.5534 77.3653 75.9161 78.3948 74.9357 79.3751L74.8622 79.4487C74.2985 79.9634 73.649 80.2207 72.9137 80.2207C72.1049 80.2207 71.4308 79.9389 70.8916 79.3751C70.3279 78.8359 70.046 78.1742 70.046 77.3898C70.046 76.6055 70.3034 75.9438 70.8181 75.4045L70.9284 75.331C71.8843 74.3506 72.9137 73.7134 74.0166 73.4193C75.095 73.1251 75.9039 73.2477 76.4431 73.7869Z" fill="#2D5D9C"/>
</svg>
