<svg width="134" height="100" viewBox="0 0 134 100" fill="none" xmlns="http://www.w3.org/2000/svg">
<path d="M96.0739 29.6691C95.167 28.7622 94.2111 27.9657 93.2062 27.2794L91.4047 26.2132C88.8557 24.8897 86.0493 24.2279 82.9856 24.2279C77.8386 24.2279 73.4636 26.0416 69.8606 29.6691C69.1008 30.4044 68.0346 30.772 66.6621 30.772C65.2895 30.772 64.2356 30.4044 63.5003 29.6691C59.8729 26.0416 55.5101 24.2279 50.4121 24.2279C47.2994 24.2279 44.4807 24.8897 41.9562 26.2132C41.319 26.5318 40.7185 26.8995 40.1547 27.3161C39.1498 27.9779 38.194 28.7622 37.2871 29.6691L36.4783 30.5514C33.39 33.9828 31.8459 38.0514 31.8459 42.7573C31.8459 46.1397 32.6425 49.2157 34.2356 51.9853C35.0444 53.3823 36.0616 54.6936 37.2871 55.9191H37.3239L39.1989 57.5367L40.4121 58.4191C40.4366 65.6005 42.9979 71.7279 48.0959 76.8015C50.1302 78.8358 52.3361 80.4657 54.7136 81.6912C58.3165 83.5539 62.2994 84.4853 66.6621 84.4853C73.917 84.4853 80.118 81.924 85.265 76.8015L87.7283 74.0073C91.1596 69.522 92.8998 64.326 92.9489 58.4191L94.1621 57.5735L96.0739 55.9191C97.2993 54.6936 98.3165 53.3823 99.1253 51.9853C100.718 49.2402 101.515 46.1642 101.515 42.7573C101.515 38.0514 99.9709 33.9828 96.8827 30.5514L96.0739 29.6691ZM37.14 5.88232L39.3092 7.61027C47.0788 13.4436 56.1964 16.3603 66.6621 16.3603C77.1278 16.3603 86.2577 13.4436 94.0518 7.61027L96.1842 5.88232H107.361C111.478 5.88232 113.598 7.89214 113.721 11.9117V19.1544V22.0956V32.647V48.5294V61.9853V91.0661C113.598 95.0612 111.478 97.0588 107.361 97.0588H25.9636C21.8459 97.0588 19.7258 95.0612 19.6033 91.0661V61.9853V48.5294V32.647V22.0956V19.1544V11.9117C19.7258 7.89214 21.8459 5.88232 25.9636 5.88232H37.14ZM70.5592 54.5588C71.515 53.6029 72.5199 52.9657 73.5739 52.647C74.6768 52.3529 75.4979 52.4755 76.0371 53.0147C76.5763 53.5539 76.6989 54.375 76.4047 55.4779C76.1106 56.5318 75.4734 57.5367 74.493 58.4926L74.4194 58.6029C73.8802 59.1176 73.243 59.375 72.5077 59.375C71.7234 59.375 71.0616 59.1054 70.5224 58.5661C69.9587 58.0024 69.6768 57.3284 69.6768 56.5441C69.6768 55.7843 69.9341 55.147 70.4489 54.6323L70.5592 54.5588ZM63.4636 58.5661C62.8753 59.1054 62.2013 59.375 61.4415 59.375C60.6817 59.375 60.0322 59.1176 59.493 58.6029L59.4194 58.4926C58.4391 57.5367 57.8141 56.5318 57.5444 55.4779C57.2503 54.375 57.3729 53.5539 57.9121 53.0147C58.4758 52.4755 59.2969 52.3529 60.3753 52.647C61.4538 52.9657 62.4587 53.6029 63.39 54.5588L63.5003 54.6323C64.015 55.147 64.2724 55.7843 64.2724 56.5441C64.2724 57.3284 64.0028 58.0024 63.4636 58.5661Z" fill="#A16639"/>
<path d="M96.1842 5.88232L94.0519 7.61027C86.2578 13.4436 77.1279 16.3603 66.6622 16.3603C56.1965 16.3603 47.0789 13.4436 39.3093 7.61027L37.1401 5.88232H96.1842Z" fill="#AA6C3C"/>
<path d="M96.0736 29.6692L96.8825 30.5515C99.9707 33.9829 101.515 38.0515 101.515 42.7574C101.515 46.1643 100.718 49.2403 99.1251 51.9854C98.3163 53.3824 97.2991 54.6937 96.0736 55.9192L94.1619 57.5736L92.9486 58.4192C92.8996 64.3261 91.1594 69.5221 87.7281 74.0074L85.2648 76.8016C80.1178 81.9241 73.9168 84.4854 66.6619 84.4854C62.2991 84.4854 58.3163 83.554 54.7133 81.6913C52.3359 80.4658 50.13 78.8359 48.0957 76.8016C42.9977 71.728 40.4364 65.6006 40.4119 58.4192L39.1986 57.5368L37.3236 55.9192H37.2869C36.0614 54.6937 35.0442 53.3824 34.2354 51.9854C32.6423 49.2158 31.8457 46.1398 31.8457 42.7574C31.8457 38.0515 33.3898 33.9829 36.4781 30.5515L37.2869 29.6692C38.1937 28.7623 39.1496 27.978 40.1545 27.3162C40.7182 26.8996 41.3187 26.5319 41.956 26.2133C44.4805 24.8898 47.2991 24.228 50.4119 24.228C55.5099 24.228 59.8727 26.0417 63.5001 29.6692C64.2354 30.4045 65.2893 30.7721 66.6619 30.7721C68.0344 30.7721 69.1006 30.4045 69.8604 29.6692C73.4634 26.0417 77.8383 24.228 82.9854 24.228C86.0491 24.228 88.8555 24.8898 91.4045 26.2133L93.206 27.2795C94.2109 27.9658 95.1668 28.7623 96.0736 29.6692ZM96.7722 43.6765C96.7722 41.2011 95.9143 39.0932 94.1986 37.353L92.5442 36.0662C91.1717 35.2084 89.6153 34.7795 87.8751 34.7795H87.8016L86.8457 34.8163C84.8114 35.0123 83.0344 35.8579 81.5148 37.353C79.7501 39.0932 78.8678 41.2011 78.8678 43.6765C78.8678 46.152 79.7501 48.2354 81.5148 49.9265C83.255 51.7158 85.3506 52.6104 87.8016 52.6104L89.5663 52.4633C91.331 52.1202 92.8751 51.2746 94.1986 49.9265L95.0442 48.9707C96.1962 47.4756 96.7722 45.7109 96.7722 43.6765ZM70.5589 54.5589L70.4486 54.6324C69.9339 55.1471 69.6766 55.7844 69.6766 56.5442C69.6766 57.3285 69.9584 58.0025 70.5222 58.5662C71.0614 59.1055 71.7231 59.3751 72.5075 59.3751C73.2428 59.3751 73.88 59.1177 74.4192 58.603L74.4928 58.4927C75.4731 57.5368 76.1104 56.5319 76.4045 55.478C76.6986 54.3751 76.5761 53.554 76.0369 53.0148C75.4977 52.4756 74.6766 52.353 73.5736 52.6471C72.5197 52.9658 71.5148 53.603 70.5589 54.5589ZM63.4634 58.5662C64.0026 58.0025 64.2722 57.3285 64.2722 56.5442C64.2722 55.7844 64.0148 55.1471 63.5001 54.6324L63.3898 54.5589C62.4584 53.603 61.4535 52.9658 60.3751 52.6471C59.2967 52.353 58.4756 52.4756 57.9119 53.0148C57.3727 53.554 57.2501 54.3751 57.5442 55.478C57.8138 56.5319 58.4388 57.5368 59.4192 58.4927L59.4928 58.603C60.032 59.1177 60.6815 59.3751 61.4413 59.3751C62.2011 59.3751 62.8751 59.1055 63.4634 58.5662ZM79.7133 62.0221C78.8065 61.9486 77.9119 62.0957 77.0295 62.4633C70.8531 64.9633 64.0516 64.9143 56.6251 62.3163L54.7133 61.9854C53.8555 61.9854 53.0099 62.1815 52.1766 62.5736C50.706 63.2844 49.7133 64.4118 49.1986 65.956C48.6594 67.4511 48.7452 68.9339 49.456 70.4045C50.1423 71.8506 51.2575 72.8432 52.8016 73.3824L54.7133 74.0074C63.733 76.777 72.0663 76.777 79.7133 74.0074L81.5516 73.2721C83.0222 72.6104 84.0638 71.5442 84.6766 70.0736C85.2648 68.5785 85.2526 67.0834 84.6398 65.5883C84.0271 64.0932 82.9731 63.0516 81.4781 62.4633L79.7133 62.0221ZM37.0663 43.6765C37.0663 45.5638 37.581 47.2182 38.6104 48.6398L39.7133 49.9265C40.9143 51.152 42.2869 51.9609 43.831 52.353L46.0369 52.6104C48.4879 52.6104 50.6202 51.7158 52.4339 49.9265C54.1496 48.2354 55.0075 46.152 55.0075 43.6765C55.0075 41.2011 54.1496 39.0932 52.4339 37.353C50.7183 35.7354 48.733 34.8775 46.4781 34.7795H46.0369L45.4854 34.8163C43.7697 34.8898 42.2379 35.4167 40.8898 36.3971L39.7133 37.353C37.9486 39.0932 37.0663 41.2011 37.0663 43.6765Z" fill="#BF8559"/>
<path d="M19.6032 11.9118V19.1544C15.8287 20.0858 12.4831 22.0098 9.56645 24.9265C5.22821 29.2892 3.0591 34.4975 3.0591 40.5515L3.09586 42.0221C3.41449 47.4632 5.57135 52.1691 9.56645 56.1397C12.4831 59.0809 15.8287 61.0294 19.6032 61.9853V91.0662C19.7258 95.0613 21.8459 97.0588 25.9635 97.0588H107.361C111.478 97.0588 113.598 95.0613 113.721 91.0662V61.9853C117.495 61.0294 120.841 59.0809 123.758 56.1397C127.753 52.1691 129.91 47.4632 130.228 42.0221L130.265 40.5515C130.265 34.4975 128.096 29.2892 123.758 24.9265C120.841 22.0098 117.495 20.0858 113.721 19.1544V11.9118V9.33824C113.721 5.07354 111.601 2.94118 107.361 2.94118H25.9635C21.7233 2.94118 19.6032 5.07354 19.6032 9.33824V11.9118ZM7.50763 22.8677C10.2282 20.1226 13.2797 18.1495 16.662 16.9485V9.33824C16.662 3.11275 19.7625 0 25.9635 0H107.361C113.562 0 116.662 3.11275 116.662 9.33824V16.9485C120.044 18.1495 123.108 20.1226 125.853 22.8677C130.755 27.7941 133.206 33.6887 133.206 40.5515L133.169 42.1691V42.2059C132.826 48.3823 130.388 53.7255 125.853 58.2353C123.108 60.9804 120.044 62.9534 116.662 64.1544V91.0662V91.1765C116.515 97.0588 113.414 100 107.361 100H25.9635C19.9096 100 16.8091 97.0588 16.662 91.1765V91.0662V64.1544C13.2797 62.9534 10.2282 60.9804 7.50763 58.2353C2.9488 53.7255 0.497821 48.3823 0.154684 42.2059V42.1691L0.11792 40.5515C0.11792 33.6887 2.58116 27.7941 7.50763 22.8677Z" fill="#6D4526"/>
<path d="M37.14 5.88234H25.9636C21.8459 5.88234 19.7258 7.89215 19.6033 11.9118V9.33823C19.6033 5.07352 21.7234 2.94116 25.9636 2.94116H107.361C111.601 2.94116 113.721 5.07352 113.721 9.33823V11.9118C113.598 7.89215 111.478 5.88234 107.361 5.88234H96.1842H37.14Z" fill="#B4723F"/>
<path d="M19.6032 19.1547V22.0958C15.8287 23.0272 12.4831 24.9512 9.56643 27.8679C5.57134 31.863 3.41447 36.5811 3.09585 42.0223L3.05908 40.5517C3.05908 34.4978 5.2282 29.2895 9.56643 24.9267C12.4831 22.0101 15.8287 20.086 19.6032 19.1547ZM113.721 22.0958V19.1547C117.495 20.086 120.841 22.0101 123.758 24.9267C128.096 29.2895 130.265 34.4978 130.265 40.5517L130.228 42.0223C129.91 36.5811 127.753 31.863 123.758 27.8679C120.841 24.9512 117.495 23.0272 113.721 22.0958Z" fill="#B67340"/>
<path d="M113.721 22.0958C117.495 23.0272 120.841 24.9512 123.758 27.8679C127.753 31.863 129.91 36.5811 130.228 42.0223C129.91 47.4635 127.753 52.1694 123.758 56.14C120.841 59.0811 117.495 61.0296 113.721 61.9855V48.5297C115.657 46.2748 116.625 43.6154 116.625 40.5517C116.625 37.5125 115.657 34.8777 113.721 32.6473V22.0958ZM19.6033 22.0958V32.6473C17.667 34.8777 16.6989 37.5125 16.6989 40.5517C16.6989 43.6154 17.667 46.2748 19.6033 48.5297V61.9855C15.8288 61.0296 12.4832 59.0811 9.56653 56.14C5.57144 52.1694 3.41457 47.4635 3.09595 42.0223C3.41457 36.5811 5.57144 31.863 9.56653 27.8679C12.4832 24.9512 15.8288 23.0272 19.6033 22.0958Z" fill="#8E5A32"/>
<path d="M19.6031 32.6472V48.5296C17.6669 46.2747 16.6987 43.6154 16.6987 40.5516C16.6987 37.5124 17.6669 34.8776 19.6031 32.6472ZM113.721 48.5296V32.6472C115.657 34.8776 116.625 37.5124 116.625 40.5516C116.625 43.6154 115.657 46.2747 113.721 48.5296Z" fill="#774B2A"/>
<path d="M92.4708 43.8605C92.4708 42.7821 92.2257 41.8385 91.7355 41.0297L90.8164 39.8532C89.7135 38.7993 88.3899 38.2723 86.8458 38.2723H86.7355L86.2576 38.3091C84.9831 38.4316 83.8434 38.9463 82.8385 39.8532C81.7355 40.9071 81.1841 42.2429 81.1841 43.8605C81.1841 45.4047 81.7355 46.7037 82.8385 47.7576C83.9904 48.8851 85.3262 49.4488 86.8458 49.4488L87.912 49.3753C89.0149 49.1547 89.9831 48.6155 90.8164 47.7576C91.6988 46.8998 92.238 45.8826 92.4341 44.7061L92.4708 43.8605ZM96.7723 43.6767C96.7723 45.711 96.1963 47.4758 95.0443 48.9709L94.1988 49.9267C92.8752 51.2748 91.3311 52.1204 89.5664 52.4635L87.8017 52.6105C85.3507 52.6105 83.2551 51.7159 81.5149 49.9267C79.7502 48.2355 78.8679 46.1522 78.8679 43.6767C78.8679 41.2012 79.7502 39.0934 81.5149 37.3532C83.0345 35.8581 84.8115 35.0125 86.8458 34.8164L87.8017 34.7797H87.8752C89.6154 34.7797 91.1718 35.2086 92.5443 36.0664L94.1988 37.3532C95.9144 39.0934 96.7723 41.2012 96.7723 43.6767ZM54.7135 61.9855L56.6252 62.3164C64.0517 64.9145 70.8532 64.9635 77.0296 62.4635C77.912 62.0959 78.8066 61.9488 79.7135 62.0223C81.135 65.7723 81.135 69.7674 79.7135 74.0076C72.0664 76.7772 63.7331 76.7772 54.7135 74.0076C53.1203 69.5468 53.1203 65.5395 54.7135 61.9855ZM37.0664 43.6767C37.0664 41.2012 37.9488 39.0934 39.7135 37.3532L40.8899 36.3973C42.238 35.4169 43.7698 34.89 45.4855 34.8164L46.037 34.7797H46.4782C48.7331 34.8777 50.7184 35.7355 52.4341 37.3532C54.1497 39.0934 55.0076 41.2012 55.0076 43.6767C55.0076 46.1522 54.1497 48.2355 52.4341 49.9267C50.6203 51.7159 48.488 52.6105 46.037 52.6105L43.8311 52.3532C42.287 51.9611 40.9144 51.1522 39.7135 49.9267L38.6105 48.64C37.5811 47.2184 37.0664 45.564 37.0664 43.6767ZM41.4414 43.8605C41.4414 45.4047 41.9929 46.7037 43.0958 47.7576C43.7821 48.4929 44.5787 48.9954 45.4855 49.265L47.0296 49.4488C48.5738 49.4488 49.8973 48.8851 51.0002 47.7576C52.1032 46.7037 52.6546 45.4047 52.6546 43.8605C52.6546 42.2429 52.1032 40.9071 51.0002 39.8532C49.8973 38.7993 48.586 38.2723 47.0664 38.2723H47.0296L46.6252 38.3091C45.2282 38.3826 44.0517 38.8973 43.0958 39.8532C41.9929 40.9071 41.4414 42.2429 41.4414 43.8605Z" fill="white"/>
<path d="M41.4414 43.8605C41.4414 42.2428 41.9929 40.907 43.0958 39.8531C44.0517 38.8972 45.2282 38.3825 46.6252 38.309L47.0296 38.2722H47.0664C48.586 38.2722 49.8973 38.7992 51.0002 39.8531C52.1032 40.907 52.6546 42.2428 52.6546 43.8605C52.6546 45.4046 52.1032 46.7036 51.0002 47.7575C49.8973 48.885 48.5738 49.4487 47.0296 49.4487L45.4855 49.2649C44.5787 48.9953 43.7821 48.4928 43.0958 47.7575C41.9929 46.7036 41.4414 45.4046 41.4414 43.8605ZM92.4708 43.8605L92.4341 44.706C92.238 45.8825 91.6988 46.8997 90.8164 47.7575C89.9831 48.6154 89.0149 49.1546 87.912 49.3752L86.8458 49.4487C85.3262 49.4487 83.9904 48.885 82.8385 47.7575C81.7355 46.7036 81.1841 45.4046 81.1841 43.8605C81.1841 42.2428 81.7355 40.907 82.8385 39.8531C83.8434 38.9463 84.9831 38.4315 86.2576 38.309L86.7355 38.2722H86.8458C88.3899 38.2722 89.7135 38.7992 90.8164 39.8531L91.7355 41.0296C92.2257 41.8384 92.4708 42.782 92.4708 43.8605Z" fill="#5B5B5B"/>
<path d="M54.7135 61.9855C53.1203 65.5394 53.1203 69.5468 54.7135 74.0075L52.8017 73.3825C51.2576 72.8433 50.1424 71.8507 49.4561 70.4046C48.7453 68.934 48.6595 67.4512 49.1988 65.9561C49.7135 64.412 50.7061 63.2845 52.1767 62.5737C53.01 62.1816 53.8556 61.9855 54.7135 61.9855ZM79.7135 74.0075C81.135 69.7673 81.135 65.7723 79.7135 62.0223L81.4782 62.4634C82.9733 63.0517 84.0272 64.0933 84.6399 65.5884C85.2527 67.0835 85.2649 68.5786 84.6767 70.0737C84.064 71.5443 83.0223 72.6105 81.5517 73.2722L79.7135 74.0075Z" fill="#E7E7E7"/>
</svg>
