<svg width="114" height="100" viewBox="0 0 114 100" fill="none" xmlns="http://www.w3.org/2000/svg">
<path d="M97.4732 0C103.674 0 106.775 3.11274 106.775 9.33823V63.6029C110.059 67.0588 112.118 70.8211 112.951 74.8897C113.932 79.7917 113 83.6029 110.157 86.3235C109.152 87.3039 108.025 88.0637 106.775 88.6029V91.0662V91.1765C106.628 97.0588 103.527 100 97.4732 100H16.0761C10.0222 100 6.92171 97.0588 6.77465 91.1765V91.0662V88.6765C5.42661 88.1373 4.2379 87.3529 3.20849 86.3235C0.340842 83.6029 -0.590566 79.7917 0.414336 74.8897C1.24767 70.7476 3.36779 66.8995 6.77465 63.3456V9.33823C6.77465 3.11274 9.87516 0 16.0761 0H97.4732ZM103.833 11.9118V9.33823C103.833 5.07353 101.713 2.94118 97.4732 2.94118H16.0761C11.8359 2.94118 9.71582 5.07353 9.71582 9.33823V11.9118V64.6323L9.05404 65.2206L8.98053 65.2941C5.94131 68.4314 4.0418 71.826 3.282 75.4779C2.5222 79.2279 3.18397 82.1446 5.2673 84.2279C6.46828 85.4289 7.95112 86.1642 9.71582 86.4338V91.0662C9.83837 95.0613 11.9585 97.0588 16.0761 97.0588H27.8408H85.3776H97.4732C101.591 97.0588 103.711 95.0613 103.833 91.0662V86.3971C105.5 86.1029 106.909 85.3799 108.061 84.2279C110.145 82.1446 110.807 79.2279 110.047 75.4779C109.287 71.826 107.387 68.4314 104.348 65.2941L104.275 65.2206L103.833 64.8162V11.9118Z" fill="#1D3138"/>
<path d="M103.833 11.9117C103.711 7.89214 101.591 5.88234 97.4732 5.88234H16.0761C11.9585 5.88234 9.83837 7.89214 9.71582 11.9117V9.33822C9.71582 5.07351 11.8359 2.94116 16.0761 2.94116H97.4732C101.713 2.94116 103.833 5.07351 103.833 9.33822V11.9117Z" fill="#447180"/>
<path d="M104.833 11.9117V64.8161V86.397V91.0661C104.711 95.0612 102.591 97.0588 98.4732 97.0588H86.3776L85.0173 94.9632C82.8604 91.8505 80.581 89.1911 78.1791 86.9853C72.1251 81.397 65.2746 78.6029 57.6276 78.6029C49.956 78.6029 43.1055 81.397 37.0761 86.9853C34.6741 89.2157 32.3947 91.875 30.2379 94.9632L28.8408 97.0588H17.0761C12.9585 97.0588 10.8384 95.0612 10.7158 91.0661V86.4338V64.6323V11.9117C10.8384 7.89213 12.9585 5.88232 17.0761 5.88232H98.4732C102.591 5.88232 104.711 7.89213 104.833 11.9117ZM92.1496 37.6838C91.2428 34.473 89.331 32.022 86.4144 30.3309C83.3751 28.5661 80.1766 28.1372 76.8188 29.0441C73.4854 29.9264 70.9364 31.8995 69.1717 34.9632C67.4805 37.8554 67.0271 40.9436 67.8114 44.2279L67.9217 44.6323C69.5148 50.5637 72.0761 55.2941 75.6055 58.8235C79.1104 62.3529 82.5418 63.6764 85.8996 62.7941C89.2575 61.8872 91.5614 59.0196 92.8114 54.1911C94.0369 49.3872 93.8531 44.0196 92.26 38.0882L92.1496 37.6838ZM69.2085 57.2794C68.8408 54.9019 67.7624 52.8063 65.9732 50.9926C65.532 50.5514 65.0908 50.1715 64.6496 49.8529C62.6643 48.3578 60.3727 47.6103 57.7746 47.6103C55.1766 47.6103 52.885 48.3578 50.8997 49.8529C50.434 50.1715 49.9805 50.5514 49.5393 50.9926C47.7501 52.8063 46.6717 54.9019 46.3041 57.2794L46.157 59.1911L46.1938 59.9632C46.3408 61.6789 47.456 63.1495 49.5393 64.375C51.8188 65.6985 54.5639 66.3603 57.7746 66.3603C60.9854 66.3603 63.7183 65.6985 65.9732 64.375C68.0565 63.1495 69.1717 61.6789 69.3188 59.9632L69.3555 59.1911L69.2085 57.2794ZM47.7747 44.2647C48.5835 40.9804 48.13 37.8799 46.4143 34.9632C44.6987 31.924 42.1497 29.9632 38.7673 29.0809C35.4095 28.1495 32.2109 28.5661 29.1717 30.3309C26.255 32.022 24.331 34.473 23.3996 37.6838L23.2526 38.0882C21.6839 44.0196 21.5369 49.3995 22.8114 54.2279C24.0859 59.0318 26.3898 61.8995 29.7232 62.8308C33.1055 63.7132 36.5492 62.3774 40.0541 58.8235C43.5345 55.3186 46.059 50.6005 47.6276 44.6691L47.7747 44.2647Z" fill="#365A66"/>
<path d="M46.7748 44.2646L46.6278 44.669C45.0591 50.6004 42.5346 55.3185 39.0543 58.8234C35.5493 62.3774 32.1057 63.7131 28.7233 62.8308C25.39 61.8994 23.0861 59.0318 21.8116 54.2278C20.5371 49.3994 20.6841 44.0195 22.2528 38.0881L22.3998 37.6837C23.3312 34.4729 25.2552 32.022 28.1719 30.3308C31.2111 28.5661 34.4096 28.1494 37.7675 29.0808C41.1498 29.9631 43.6988 31.9239 45.4145 34.9631C47.1302 37.8798 47.5837 40.9803 46.7748 44.2646ZM91.1498 37.6837L91.2601 38.0881C92.8533 44.0195 93.0371 49.3872 91.8116 54.1911C90.5616 59.0195 88.2577 61.8872 84.8998 62.794C81.542 63.6764 78.1106 62.3529 74.6057 58.8234C71.0763 55.294 68.515 50.5636 66.9219 44.6323L66.8116 44.2279C66.0273 40.9435 66.4807 37.8553 68.1719 34.9631C69.9366 31.8994 72.4856 29.9264 75.819 29.044C79.1768 28.1372 82.3753 28.5661 85.4145 30.3308C88.3312 32.022 90.243 34.4729 91.1498 37.6837ZM85.488 46.397C85.488 44.2401 84.7283 42.4141 83.2087 40.919C81.689 39.4239 79.8631 38.6764 77.7307 38.6764C75.6474 38.6764 73.8214 39.4239 72.2528 40.919C70.7822 42.4141 70.0469 44.2401 70.0469 46.397C70.0469 48.5293 70.7822 50.3308 72.2528 51.8014C73.8214 53.3455 75.6474 54.1176 77.7307 54.1176C79.8631 54.1176 81.689 53.3455 83.2087 51.8014C84.7283 50.3308 85.488 48.5293 85.488 46.397ZM27.9513 46.397C27.9513 48.5293 28.6988 50.3308 30.1939 51.8014C31.7135 53.3455 33.5395 54.1176 35.6719 54.1176C37.7797 54.1176 39.6057 53.3455 41.1498 51.8014C42.6449 50.3308 43.3925 48.5293 43.3925 46.397C43.3925 44.2401 42.6449 42.4141 41.1498 40.919C39.6057 39.4239 37.7797 38.6764 35.6719 38.6764C33.5395 38.6764 31.7135 39.4239 30.1939 40.919C28.6988 42.4141 27.9513 44.2401 27.9513 46.397Z" fill="#D5EEF7"/>
<path d="M27.9512 46.397C27.9512 44.2401 28.6987 42.4141 30.1938 40.919C31.7134 39.4239 33.5394 38.6764 35.6718 38.6764C37.7796 38.6764 39.6056 39.4239 41.1497 40.919C42.6448 42.4141 43.3923 44.2401 43.3923 46.397C43.3923 48.5293 42.6448 50.3308 41.1497 51.8014C39.6056 53.3455 37.7796 54.1176 35.6718 54.1176C33.5394 54.1176 31.7134 53.3455 30.1938 51.8014C28.6987 50.3308 27.9512 48.5293 27.9512 46.397ZM85.4879 46.397C85.4879 48.5293 84.7282 50.3308 83.2085 51.8014C81.6889 53.3455 79.8629 54.1176 77.7306 54.1176C75.6473 54.1176 73.8213 53.3455 72.2526 51.8014C70.7821 50.3308 70.0468 48.5293 70.0468 46.397C70.0468 44.2401 70.7821 42.4141 72.2526 40.919C73.8213 39.4239 75.6473 38.6764 77.7306 38.6764C79.8629 38.6764 81.6889 39.4239 83.2085 40.919C84.7282 42.4141 85.4879 44.2401 85.4879 46.397ZM81.9953 47.8308C81.9953 46.4583 81.5296 45.3186 80.5983 44.4117C79.6424 43.4558 78.4904 42.9779 77.1424 42.9779C75.8188 42.9779 74.6669 43.4558 73.6865 44.4117C72.7551 45.3186 72.2894 46.4583 72.2894 47.8308V48.3087C72.3874 49.4117 72.8531 50.3676 73.6865 51.1764C74.6669 52.1078 75.8188 52.5735 77.1424 52.5735C78.4904 52.5735 79.6424 52.1078 80.5983 51.1764C81.4071 50.3676 81.8605 49.4117 81.9585 48.3087L81.9953 47.8308ZM31.4438 47.8308L31.4806 48.3087C31.5541 49.4117 31.9953 50.3676 32.8041 51.1764C33.76 52.1078 34.9242 52.5735 36.2968 52.5735C37.5958 52.5735 38.7355 52.1078 39.7159 51.1764C40.5737 50.3676 41.0394 49.4117 41.113 48.3087L41.1497 47.8308C41.1497 46.4583 40.6718 45.3186 39.7159 44.4117C38.7355 43.4558 37.5958 42.9779 36.2968 42.9779C34.9242 42.9779 33.76 43.4558 32.8041 44.4117C31.8973 45.3186 31.4438 46.4583 31.4438 47.8308Z" fill="white"/>
<path d="M31.4438 47.8309C31.4438 46.4583 31.8973 45.3186 32.8042 44.4117C33.7601 43.4558 34.9243 42.9779 36.2968 42.9779C37.5958 42.9779 38.7355 43.4558 39.7159 44.4117C40.6718 45.3186 41.1497 46.4583 41.1497 47.8309L41.113 48.3088C41.0395 49.4117 40.5738 50.3676 39.7159 51.1764C38.7355 52.1078 37.5958 52.5735 36.2968 52.5735C34.9243 52.5735 33.7601 52.1078 32.8042 51.1764C31.9953 50.3676 31.5541 49.4117 31.4806 48.3088L31.4438 47.8309ZM81.9953 47.8309L81.9586 48.3088C81.8605 49.4117 81.4071 50.3676 80.5983 51.1764C79.6424 52.1078 78.4904 52.5735 77.1424 52.5735C75.8189 52.5735 74.6669 52.1078 73.6865 51.1764C72.8532 50.3676 72.3875 49.4117 72.2894 48.3088V47.8309C72.2894 46.4583 72.7551 45.3186 73.6865 44.4117C74.6669 43.4558 75.8189 42.9779 77.1424 42.9779C78.4904 42.9779 79.6424 43.4558 80.5983 44.4117C81.5297 45.3186 81.9953 46.4583 81.9953 47.8309Z" fill="#5B5B5B"/>
<path d="M45.3042 57.2795C45.6718 54.902 46.7503 52.8064 48.5395 50.9927C48.9806 50.5515 49.4341 50.1716 49.8998 49.853C51.8851 48.3579 54.1767 47.6104 56.7748 47.6104C59.3728 47.6104 61.6645 48.3579 63.6498 49.853C64.0909 50.1716 64.5321 50.5515 64.9733 50.9927C66.7625 52.8064 67.8409 54.902 68.2086 57.2795C67.8654 58.2599 66.787 59.1177 64.9733 59.853C62.7184 60.7844 59.9856 61.2501 56.7748 61.2501C53.564 61.2501 50.8189 60.7844 48.5395 59.853C46.7257 59.1177 45.6473 58.2599 45.3042 57.2795Z" fill="#FF9900"/>
<path d="M45.3041 57.2793C45.6472 58.2597 46.7256 59.1175 48.5393 59.8528C50.8187 60.7842 53.5638 61.2499 56.7746 61.2499C59.9854 61.2499 62.7183 60.7842 64.9732 59.8528C66.7869 59.1175 67.8653 58.2597 68.2084 57.2793L68.3555 59.1911L68.3187 59.9631C68.1717 61.6788 67.0565 63.1494 64.9732 64.3749C62.7183 65.6984 59.9854 66.3602 56.7746 66.3602C53.5638 66.3602 50.8187 65.6984 48.5393 64.3749C46.456 63.1494 45.3408 61.6788 45.1937 59.9631L45.157 59.1911L45.3041 57.2793Z" fill="#E08600"/>
<path d="M27.8408 97.0588L29.2379 94.9632C31.3947 91.875 33.6741 89.2157 36.0761 86.9853C42.1055 81.397 48.956 78.6029 56.6276 78.6029C64.2746 78.6029 71.1251 81.397 77.179 86.9853C79.581 89.1911 81.8604 91.8505 84.0173 94.9632L85.3776 97.0588H27.8408Z" fill="#F2F9FB"/>
<path d="M9.71594 64.6323V86.4338C7.95123 86.1642 6.4684 85.4289 5.26742 84.2279C3.18408 82.1446 2.52231 79.2279 3.28211 75.4779C4.04192 71.826 5.94143 68.4314 8.98064 65.2941L9.05415 65.2206L9.71594 64.6323ZM103.834 86.397V64.8161L104.275 65.2206L104.348 65.2941C107.388 68.4314 109.287 71.826 110.047 75.4779C110.807 79.2279 110.145 82.1446 108.062 84.2279C106.91 85.3799 105.5 86.1029 103.834 86.397Z" fill="#29454F"/>
</svg>
