<svg width="100" height="100" viewBox="0 0 100 100" fill="none" xmlns="http://www.w3.org/2000/svg">
<path d="M0 9.33824C0 3.11275 3.10051 0 9.30149 0H90.6985C96.8995 0 100 3.11275 100 9.33824V91.0662V91.1765C99.902 95.3186 98.3333 98.0025 95.2941 99.228C94.0196 99.7427 92.4877 100 90.6985 100H9.30149C7.51227 100 5.98041 99.7427 4.7059 99.228C1.66668 98.0025 0.0980392 95.3186 0 91.1765V91.0662V9.33824ZM97.0588 11.9118V9.33824C97.0588 5.07354 94.9387 2.94118 90.6985 2.94118H9.30149C5.06129 2.94118 2.94118 5.07354 2.94118 9.33824V11.9118V91.0662C3.06373 95.0613 5.18384 97.0588 9.30149 97.0588H90.6985C94.8162 97.0588 96.9363 95.0613 97.0588 91.0662V11.9118Z" fill="#2C2B2B"/>
<path d="M97.0588 11.9118C96.9363 7.89215 94.8161 5.88234 90.6985 5.88234H9.30147C5.18383 5.88234 3.06371 7.89215 2.94116 11.9118V9.33823C2.94116 5.07352 5.06128 2.94116 9.30147 2.94116H90.6985C94.9387 2.94116 97.0588 5.07352 97.0588 9.33823V11.9118Z" fill="#545353"/>
<path d="M97.0588 11.9117V91.0661C96.9363 95.0612 94.8161 97.0588 90.6985 97.0588H9.30147C5.18383 97.0588 3.06371 95.0612 2.94116 91.0661V11.9117C3.06371 7.89214 5.18383 5.88232 9.30147 5.88232H90.6985C94.8161 5.88232 96.9363 7.89214 97.0588 11.9117ZM82.022 33.6764L80.5147 32.2794L78.4926 30.8088C75.3309 28.7745 71.7525 27.7573 67.7574 27.7573C63.7377 27.7573 60.147 28.7745 56.9853 30.8088C52.3284 33.1863 47.6716 33.1863 43.0147 30.8088C39.8529 28.7745 36.2745 27.7573 32.2794 27.7573C28.2843 27.7573 24.7059 28.7745 21.5441 30.8088L19.522 32.2794L17.9779 33.6764C14.0319 37.6225 12.0588 42.3774 12.0588 47.9412C12.0588 53.5294 14.0319 58.3088 17.9779 62.2794H18.0514L21.397 65C21.4215 72.8186 24.2157 79.4852 29.7794 85C31.9853 87.2303 34.3872 89.0073 36.9853 90.3308C40.9068 92.3652 45.2451 93.3823 50 93.3823C57.8921 93.3823 64.6446 90.5882 70.2573 85L72.9412 81.9853C76.6667 77.0833 78.5539 71.4216 78.6029 65L82.022 62.2794C85.9681 58.3088 87.9411 53.5294 87.9411 47.9412C87.9411 42.3774 85.9681 37.6225 82.022 33.6764ZM63.2353 24.0441L63.1985 23.6397C62.9779 20.1103 61.7279 17.0588 59.4485 14.4853C56.924 11.6666 53.897 10.2573 50.3676 10.2573C46.8137 10.2573 43.7745 11.6666 41.25 14.4853C38.9951 17.0588 37.7573 20.1103 37.5367 23.6397L37.5 24.0441C37.5 24.3872 37.5735 24.7181 37.7206 25.0367C38.1617 26.0906 39.3382 27.022 41.25 27.8308C43.7745 28.8602 46.8137 29.375 50.3676 29.375C53.897 29.375 56.924 28.8602 59.4485 27.8308C61.3848 27.022 62.5858 26.0906 63.0515 25.0367L63.2353 24.0441Z" fill="#414040"/>
<path d="M82.022 33.6764C85.9681 37.6225 87.9412 42.3774 87.9412 47.9412C87.9412 53.5294 85.9681 58.3088 82.022 62.2794L78.603 65C78.5539 71.4216 76.6667 77.0833 72.9412 81.9853L70.2573 85C64.6446 90.5882 57.8922 93.3823 50 93.3823C45.2451 93.3823 40.9068 92.3652 36.9853 90.3308C34.3872 89.0073 31.9853 87.2303 29.7794 85C24.2157 79.4852 21.4215 72.8186 21.397 65L18.0515 62.2794H17.9779C14.0319 58.3088 12.0588 53.5294 12.0588 47.9412C12.0588 42.3774 14.0319 37.6225 17.9779 33.6764L19.522 32.2794L21.5441 30.8088C24.7059 28.7745 28.2843 27.7573 32.2794 27.7573C36.2745 27.7573 39.8529 28.7745 43.0147 30.8088C47.6716 33.1863 52.3284 33.1863 56.9853 30.8088C60.1471 28.7745 63.7378 27.7573 67.7574 27.7573C71.7525 27.7573 75.3309 28.7745 78.4926 30.8088L80.5147 32.2794L82.022 33.6764ZM34.0073 35.8088C33.3701 35.8823 32.8064 36.1519 32.3162 36.6176C31.8505 37.0833 31.6176 37.647 31.6176 38.3088C31.6176 38.9705 31.8505 39.5343 32.3162 40C32.8064 40.4657 33.4436 40.7475 34.2279 40.8456C44.7181 42.1201 55.1593 42.071 65.5515 40.6985C66.4583 40.6985 67.1446 40.4657 67.6103 40C68.076 39.5343 68.3088 38.9705 68.3088 38.3088C68.3088 37.647 68.076 37.0833 67.6103 36.6176C67.1446 36.1519 66.4583 35.8701 65.5515 35.772C54.7672 34.7671 44.2524 34.7794 34.0073 35.8088ZM19.375 50.772C19.375 53.0269 20.1715 54.9264 21.7647 56.4706C23.3823 58.1127 25.3186 58.9338 27.5735 58.9338C29.8039 58.9338 31.7402 58.1127 33.3824 56.4706C34.951 54.9264 35.7353 53.0269 35.7353 50.772C35.7353 48.5171 34.951 46.6054 33.3824 45.0367C31.7402 43.4681 29.8039 42.6838 27.5735 42.6838C25.3186 42.6838 23.3823 43.4681 21.7647 45.0367C20.1715 46.6054 19.375 48.5171 19.375 50.772ZM52.7573 53.0515L52.647 53.125C52.0833 53.6887 51.8015 54.3872 51.8015 55.2205C51.8015 56.0784 52.1078 56.8137 52.7206 57.4264L53.0147 57.647L53.3088 57.8676C53.75 58.1617 54.277 58.3088 54.8897 58.3088C55.6985 58.3088 56.3848 58.0269 56.9485 57.4632L57.0588 57.3162L58.2721 55.8456C58.6887 55.2573 58.9706 54.6568 59.1177 54.0441L59.1912 53.7868C59.4118 52.7083 59.2524 51.8995 58.7132 51.3602C58.125 50.772 57.2304 50.6372 56.0294 50.9558C54.902 51.299 53.8113 51.9975 52.7573 53.0515ZM47.9779 57.4264C48.5662 56.8137 48.8603 56.0784 48.8603 55.2205C48.8603 54.3872 48.5784 53.6887 48.0147 53.125L47.9044 53.0515C46.875 51.9975 45.7721 51.299 44.5956 50.9558C43.4191 50.6372 42.5245 50.772 41.9118 51.3602C41.3725 51.8995 41.2255 52.7083 41.4706 53.7868L41.5441 54.0441C41.6912 54.6568 41.9608 55.2696 42.3529 55.8823C42.6715 56.3725 43.076 56.8505 43.5662 57.3162L43.6397 57.4632C44.2279 58.0269 44.9387 58.3088 45.7721 58.3088C46.3603 58.3088 46.8995 58.1617 47.3897 57.8676L47.6838 57.647L47.9779 57.4264ZM36.9853 67.1691L34.8897 67.8309C33.1985 68.4191 31.9853 69.4975 31.25 71.0662C30.4657 72.6838 30.3676 74.3014 30.9559 75.9191C31.5196 77.6103 32.6103 78.8358 34.2279 79.5956C35.1348 80.0367 36.0539 80.2573 36.9853 80.2573L39.0441 79.8897C47.1323 77.0711 54.5465 77.022 61.2867 79.7426C62.2426 80.1348 63.2108 80.2941 64.1912 80.2205L66.1397 79.7426C67.7574 79.1054 68.897 77.9656 69.5588 76.3235C70.2206 74.7058 70.2329 73.076 69.5956 71.4338C68.9338 69.8407 67.8064 68.6887 66.2132 67.9779L64.1912 67.1691C55.8578 64.1544 46.7892 64.1544 36.9853 67.1691ZM81.1765 50.772C81.1765 48.5171 80.3799 46.6054 78.7868 45.0367C77.1936 43.4681 75.2573 42.6838 72.9779 42.6838C70.7475 42.6838 68.848 43.4681 67.2794 45.0367C65.6372 46.6054 64.8162 48.5171 64.8162 50.772C64.8162 53.0269 65.6372 54.9264 67.2794 56.4706C68.848 58.1127 70.7475 58.9338 72.9779 58.9338C75.2573 58.9338 77.1936 58.1127 78.7868 56.4706C80.3799 54.9264 81.1765 53.0269 81.1765 50.772Z" fill="#BDB6B6"/>
<path d="M63.2353 24.0442L63.0515 25.0368C62.5858 26.0908 61.3848 27.0221 59.4485 27.8309C56.924 28.8604 53.8971 29.3751 50.3676 29.3751C46.8137 29.3751 43.7745 28.8604 41.25 27.8309C39.3382 27.0221 38.1618 26.0908 37.7206 25.0368C37.5735 24.7182 37.5 24.3873 37.5 24.0442L37.5368 23.6398C37.7573 20.1104 38.9951 17.0589 41.25 14.4854C43.7745 11.6668 46.8137 10.2574 50.3676 10.2574C53.8971 10.2574 56.924 11.6668 59.4485 14.4854C61.7279 17.0589 62.9779 20.1104 63.1985 23.6398L63.2353 24.0442Z" fill="#464545"/>
<path d="M34.0074 35.8089C44.2525 34.7795 54.7672 34.7673 65.5515 35.7722C66.4584 35.8702 67.1446 36.1521 67.6103 36.6177C68.076 37.0834 68.3089 37.6472 68.3089 38.3089C68.3089 38.9707 68.076 39.5344 67.6103 40.0001C67.1446 40.4658 66.4584 40.6986 65.5515 40.6986C55.1594 42.0712 44.7182 42.1202 34.228 40.8457C33.4436 40.7477 32.8064 40.4658 32.3162 40.0001C31.8505 39.5344 31.6177 38.9707 31.6177 38.3089C31.6177 37.6472 31.8505 37.0834 32.3162 36.6177C32.8064 36.1521 33.3701 35.8825 34.0074 35.8089Z" fill="#A8A1A1"/>
<path d="M19.375 50.7721C19.375 48.5172 20.1716 46.6054 21.7647 45.0368C23.3824 43.4682 25.3186 42.6838 27.5735 42.6838C29.8039 42.6838 31.7402 43.4682 33.3824 45.0368C34.951 46.6054 35.7353 48.5172 35.7353 50.7721C35.7353 53.027 34.951 54.9265 33.3824 56.4706C31.7402 58.1128 29.8039 58.9339 27.5735 58.9339C25.3186 58.9339 23.3824 58.1128 21.7647 56.4706C20.1716 54.9265 19.375 53.027 19.375 50.7721ZM23.3824 50.9559C23.3824 52.353 23.8848 53.5294 24.8897 54.4853C25.8211 55.5147 27.0098 56.0294 28.4559 56.0294C29.8775 56.0294 31.0907 55.5147 32.0956 54.4853C33.1005 53.5294 33.603 52.353 33.603 50.9559C33.603 49.4853 33.1005 48.2721 32.0956 47.3162C31.0907 46.3358 29.8775 45.8456 28.4559 45.8456C27.0098 45.8456 25.8211 46.3358 24.8897 47.3162C23.8848 48.2721 23.3824 49.4853 23.3824 50.9559ZM36.9853 80.2574C35.2451 76.3848 35.2451 72.0221 36.9853 67.1691C46.7892 64.1544 55.8579 64.1544 64.1912 67.1691C65.7353 71.777 65.7353 76.1275 64.1912 80.2206C63.2108 80.2941 62.2426 80.1348 61.2868 79.7427C54.5466 77.0221 47.1324 77.0711 39.0441 79.8897L36.9853 80.2574ZM81.1765 50.7721C81.1765 53.027 80.3799 54.9265 78.7868 56.4706C77.1937 58.1128 75.2574 58.9339 72.978 58.9339C70.7476 58.9339 68.8481 58.1128 67.2794 56.4706C65.6373 54.9265 64.8162 53.027 64.8162 50.7721C64.8162 48.5172 65.6373 46.6054 67.2794 45.0368C68.8481 43.4682 70.7476 42.6838 72.978 42.6838C75.2574 42.6838 77.1937 43.4682 78.7868 45.0368C80.3799 46.6054 81.1765 48.5172 81.1765 50.7721ZM77.2427 50.9559C77.2427 49.4853 76.7402 48.2721 75.7353 47.3162C74.7304 46.3358 73.5294 45.8456 72.1324 45.8456C70.7353 45.8456 69.5098 46.3358 68.4559 47.3162C67.451 48.2721 66.9485 49.4853 66.9485 50.9559C66.9485 52.353 67.451 53.5294 68.4559 54.4853C69.5098 55.5147 70.7353 56.0294 72.1324 56.0294C73.5294 56.0294 74.7304 55.5147 75.7353 54.4853C76.7402 53.5294 77.2427 52.353 77.2427 50.9559Z" fill="white"/>
<path d="M52.7574 53.0516C53.8113 51.9977 54.902 51.2992 56.0294 50.956C57.2304 50.6374 58.125 50.7722 58.7132 51.3604C59.2524 51.8996 59.4118 52.7085 59.1912 53.7869L59.1177 54.0443C58.9706 54.657 58.6887 55.2575 58.2721 55.8457L57.0588 57.3163L56.9485 57.4634C56.3848 58.0271 55.6985 58.309 54.8897 58.309C54.277 58.309 53.75 58.1619 53.3088 57.8678L53.0147 57.6472L52.7206 57.4266C52.1079 56.8138 51.8015 56.0786 51.8015 55.2207C51.8015 54.3874 52.0833 53.6889 52.647 53.1251L52.7574 53.0516ZM47.9779 57.4266L47.6838 57.6472L47.3897 57.8678C46.8995 58.1619 46.3603 58.309 45.7721 58.309C44.9387 58.309 44.2279 58.0271 43.6397 57.4634L43.5662 57.3163C43.076 56.8506 42.6716 56.3727 42.3529 55.8825C41.9608 55.2697 41.6912 54.657 41.5441 54.0443L41.4706 53.7869C41.2255 52.7085 41.3725 51.8996 41.9118 51.3604C42.5245 50.7722 43.4191 50.6374 44.5956 50.956C45.7721 51.2992 46.875 51.9977 47.9044 53.0516L48.0147 53.1251C48.5784 53.6889 48.8603 54.3874 48.8603 55.2207C48.8603 56.0786 48.5662 56.8138 47.9779 57.4266Z" fill="#989292"/>
<path d="M23.3824 50.956C23.3824 49.4854 23.8849 48.2722 24.8898 47.3163C25.8212 46.3359 27.0099 45.8457 28.456 45.8457C29.8776 45.8457 31.0908 46.3359 32.0957 47.3163C33.1006 48.2722 33.6031 49.4854 33.6031 50.956C33.6031 52.3531 33.1006 53.5295 32.0957 54.4854C31.0908 55.5148 29.8776 56.0296 28.456 56.0296C27.0099 56.0296 25.8212 55.5148 24.8898 54.4854C23.8849 53.5295 23.3824 52.3531 23.3824 50.956ZM77.2427 50.956C77.2427 52.3531 76.7403 53.5295 75.7354 54.4854C74.7305 55.5148 73.5295 56.0296 72.1324 56.0296C70.7354 56.0296 69.5099 55.5148 68.456 54.4854C67.4511 53.5295 66.9486 52.3531 66.9486 50.956C66.9486 49.4854 67.4511 48.2722 68.456 47.3163C69.5099 46.3359 70.7354 45.8457 72.1324 45.8457C73.5295 45.8457 74.7305 46.3359 75.7354 47.3163C76.7403 48.2722 77.2427 49.4854 77.2427 50.956Z" fill="#5B5B5B"/>
<path d="M36.9853 67.1692C35.2451 72.0221 35.2451 76.3849 36.9853 80.2575C36.054 80.2575 35.1348 80.0369 34.228 79.5957C32.6103 78.8359 31.5196 77.6104 30.9559 75.9192C30.3677 74.3016 30.4657 72.6839 31.25 71.0663C31.9853 69.4977 33.1986 68.4192 34.8898 67.831L36.9853 67.1692ZM64.1912 80.2207C65.7353 76.1275 65.7353 71.777 64.1912 67.1692L66.2133 67.978C67.8064 68.6888 68.9339 69.8408 69.5956 71.4339C70.2329 73.0761 70.2206 74.706 69.5588 76.3236C68.8971 77.9658 67.7574 79.1055 66.1398 79.7427L64.1912 80.2207Z" fill="#E7E7E7"/>
</svg>
