<svg width="137" height="100" viewBox="0 0 137 100" fill="none" xmlns="http://www.w3.org/2000/svg">
<path d="M90.8823 97.0588H108.713C112.831 97.0588 114.951 95.0613 115.074 91.0662V57.7574C119.436 56.9976 123.272 54.951 126.581 51.6176C130.576 47.6471 132.733 42.9412 133.051 37.5L133.088 36.0294C133.088 29.9755 130.919 24.7672 126.581 20.4044C123.272 17.0956 119.436 15.0613 115.074 14.3015V11.9118V9.33823C115.074 5.07353 112.953 2.94118 108.713 2.94118H27.3162C23.076 2.94118 20.9559 5.07353 20.9559 9.33823V11.9118V14.3015C16.5931 15.0613 12.7573 17.0956 9.44851 20.4044C5.11028 24.7672 2.94118 29.9755 2.94118 36.0294L2.97793 37.5C3.29656 42.9412 5.45341 47.6471 9.44851 51.6176C12.7573 54.951 16.5931 56.9976 20.9559 57.7574V91.0662C21.0784 95.0613 23.1985 97.0588 27.3162 97.0588H45.8824H90.8823ZM136.029 36.0294L135.993 37.6471V37.6838C135.65 43.8603 133.211 49.2034 128.676 53.7132C125.539 56.8505 121.985 58.9828 118.015 60.1103V91.0662V91.1765C117.868 97.0588 114.767 100 108.713 100H27.3162C21.2623 100 18.1618 97.0588 18.0147 91.1765V91.0662V60.1103C14.0441 58.9828 10.5024 56.8505 7.3897 53.7132C2.83087 49.2034 0.379893 43.8603 0.0367557 37.6838V37.6471L0 36.0294C0 29.1667 2.46323 23.2721 7.3897 18.3456C10.5024 15.2083 14.0441 13.076 18.0147 11.9485V9.33823C18.0147 3.11274 21.1152 0 27.3162 0H108.713C114.914 0 118.015 3.11274 118.015 9.33823V11.9485C121.985 13.076 125.539 15.2083 128.676 18.3456C133.578 23.2721 136.029 29.1667 136.029 36.0294Z" fill="#807F7F"/>
<path d="M133.052 37.4999C132.733 42.9411 130.576 47.647 126.581 51.6176C123.272 54.9509 119.436 56.9975 115.074 57.7573V45.4778L115.772 44.8161C118.223 42.4141 119.449 39.4852 119.449 36.0293C119.449 32.6225 118.223 29.7058 115.772 27.2793L115.074 26.6176V17.2426C119.436 18.0024 123.272 20.0367 126.581 23.3455C130.576 27.3406 132.733 32.0587 133.052 37.4999ZM20.956 57.7573C16.5932 56.9975 12.7574 54.9509 9.44861 51.6176C5.45351 47.647 3.29665 42.9411 2.97803 37.4999C3.29665 32.0587 5.45351 27.3406 9.44861 23.3455C12.7574 20.0367 16.5932 18.0024 20.956 17.2426V26.6176L20.2574 27.2793C17.8065 29.7058 16.581 32.6225 16.581 36.0293C16.581 39.4852 17.8065 42.4141 20.2574 44.8161L20.956 45.4778V57.7573Z" fill="#414040"/>
<path d="M115.074 14.3014C119.436 15.0612 123.272 17.0955 126.581 20.4043C130.919 24.7671 133.088 29.9754 133.088 36.0293L133.051 37.4999C132.733 32.0587 130.576 27.3406 126.581 23.3455C123.272 20.0367 119.436 18.0024 115.074 17.2426V14.3014ZM2.97792 37.4999L2.94116 36.0293C2.94116 29.9754 5.11026 24.7671 9.4485 20.4043C12.7573 17.0955 16.5931 15.0612 20.9559 14.3014V17.2426C16.5931 18.0024 12.7573 20.0367 9.4485 23.3455C5.4534 27.3406 3.29655 32.0587 2.97792 37.4999Z" fill="#545353"/>
<path d="M20.9559 11.9117V9.33822C20.9559 5.07351 23.076 2.94116 27.3162 2.94116H108.713C112.953 2.94116 115.074 5.07351 115.074 9.33822V11.9117C114.951 7.89214 112.831 5.88234 108.713 5.88234H87.6104C87.6104 13.3823 85.7353 19.7794 81.9853 25.0735C78.2599 30.3676 73.7623 33.0147 68.4927 33.0147C63.2231 33.0147 58.7133 30.3676 54.9633 25.0735C51.2378 19.7794 49.3751 13.3823 49.3751 5.88234H27.3162C23.1986 5.88234 21.0785 7.89214 20.9559 11.9117ZM34.7795 44.4118C34.7795 42.5245 35.4412 40.9191 36.7648 39.5956C38.0638 38.3211 39.6079 37.6593 41.3971 37.6103H41.6177C43.4804 37.6103 45.0859 38.272 46.4339 39.5956L46.7647 39.9265C47.8677 41.1765 48.4191 42.6716 48.4191 44.4118C48.4191 46.299 47.7574 47.8799 46.4339 49.1544C45.0859 50.5269 43.4804 51.2132 41.6177 51.2132H41.0662C39.3995 51.0662 37.9657 50.3799 36.7648 49.1544C36.054 48.4681 35.5393 47.7083 35.2207 46.875C34.9265 46.1152 34.7795 45.2941 34.7795 44.4118ZM38.0883 44.522C38.0883 45.6985 38.505 46.6912 39.3383 47.5C40.1716 48.3578 41.1765 48.7867 42.353 48.7867L43.0883 48.75C43.9461 48.6029 44.7182 48.1863 45.4045 47.5C46.2378 46.6912 46.6545 45.6985 46.6545 44.522C46.6545 43.7622 46.4951 43.0882 46.1765 42.5L45.4045 41.5073C44.5466 40.674 43.5294 40.2573 42.353 40.2573C41.7402 40.2573 41.1765 40.3799 40.6618 40.625C40.1716 40.8211 39.7304 41.1152 39.3383 41.5073C38.505 42.3162 38.0883 43.3211 38.0883 44.522ZM97.9412 44.522C97.9412 43.3211 97.5246 42.3162 96.6912 41.5073C96.2991 41.1152 95.8701 40.8211 95.4045 40.625C94.8652 40.3799 94.2893 40.2573 93.6765 40.2573C92.5001 40.2573 91.4829 40.674 90.625 41.5073C90.3064 41.8015 90.0613 42.1323 89.8898 42.5C89.5466 43.0882 89.375 43.7622 89.375 44.522C89.375 45.6985 89.7917 46.6912 90.625 47.5C91.2868 48.1617 92.0589 48.5784 92.9412 48.75L93.6765 48.7867C94.853 48.7867 95.8579 48.3578 96.6912 47.5C97.5246 46.6912 97.9412 45.6985 97.9412 44.522ZM101.25 44.4118C101.25 45.2941 101.103 46.1152 100.809 46.875C100.49 47.7083 99.9755 48.4681 99.2648 49.1544C98.0638 50.3799 96.6422 51.0662 95.0001 51.2132H94.4118C92.5491 51.2132 90.9437 50.5269 89.5956 49.1544C88.2721 47.8799 87.6104 46.299 87.6104 44.4118C87.6104 42.6716 88.1741 41.1765 89.3015 39.9265L89.5956 39.5956C90.9437 38.272 92.5491 37.6103 94.4118 37.6103H94.6692C96.4339 37.6593 97.9657 38.3211 99.2648 39.5956C100.588 40.9191 101.25 42.5245 101.25 44.4118Z" fill="white"/>
<path d="M115.074 57.7573V91.0661C114.951 95.0612 112.831 97.0588 108.713 97.0588H90.8824L89.8162 95.147C88.7133 93.2353 87.5736 91.5073 86.3971 89.9632C81.201 83.174 75.1961 79.7794 68.3824 79.7794C61.5687 79.7794 55.5638 83.174 50.3677 89.9632C49.1667 91.5073 48.0147 93.2353 46.9118 95.147L45.8824 97.0588H27.3162C23.1986 97.0588 21.0785 95.0612 20.9559 91.0661V57.7573V45.4779V26.6176V17.2426V14.3014V11.9117C21.0785 7.89213 23.1986 5.88232 27.3162 5.88232H49.3751C49.3751 13.3823 51.2378 19.7794 54.9633 25.0735C58.7133 30.3676 63.2231 33.0147 68.4927 33.0147C73.7623 33.0147 78.2599 30.3676 81.9853 25.0735C85.7353 19.7794 87.6104 13.3823 87.6104 5.88232H108.713C112.831 5.88232 114.951 7.89213 115.074 11.9117V14.3014V17.2426V26.6176V45.4779V57.7573ZM30.6251 41.875C30.0123 44.1789 29.902 46.3848 30.2942 48.4926C30.4903 49.571 30.8334 50.6372 31.3236 51.6912C32.1569 53.5049 33.2598 54.9264 34.6324 55.9559C35.5883 56.6666 36.6667 57.1813 37.8677 57.5C40.7844 58.2598 43.6275 57.6593 46.3971 55.6985C49.1177 53.8112 50.9559 51.1029 51.9118 47.5735V47.5367C52.6961 44.5956 52.3285 41.8137 50.8089 39.1912C49.8285 37.5245 48.5785 36.2255 47.0589 35.2941L46.7647 35.147C45.9559 34.6813 45.0736 34.326 44.1177 34.0809L41.2868 33.6764C39.3506 33.6519 37.5 34.1544 35.7353 35.1838C33.1373 36.6789 31.4339 38.897 30.6251 41.8382V41.875ZM77.8309 52.3897L77.978 50.6617V50C77.8064 48.8235 76.875 47.8186 75.1839 46.9853C73.2966 46.0784 71.0295 45.625 68.3824 45.625C65.7353 45.625 63.4682 46.0784 61.5809 46.9853C59.8652 47.8186 58.9339 48.8235 58.7868 50V50.6617L58.9339 52.3897C59.2525 54.326 60.1349 56.0171 61.5809 57.4632C62.6349 58.5171 63.8113 59.2769 65.1103 59.7426L64.4854 60.4779L62.978 61.5809L60.6986 62.0588C59.228 62.0588 57.9658 61.5318 56.9118 60.4779L55.9192 59.1911L55.5148 58.8603L55.0368 58.9338L51.6545 60.8088C51.4829 60.9068 51.3848 61.0416 51.3603 61.2132C51.2868 61.3603 51.2991 61.5196 51.3971 61.6911C51.6912 62.2304 52.0589 62.7696 52.5001 63.3088L53.2721 64.1544C55.3064 66.2132 57.7819 67.2426 60.6986 67.2426C63.5907 67.2426 66.0785 66.2132 68.1618 64.1544L68.3824 63.9338L68.603 64.1544C70.6618 66.2132 73.1373 67.2426 76.0295 67.2426C78.9216 67.2426 81.4094 66.2132 83.4927 64.1544L84.2647 63.3088L85.3677 61.6176L85.4045 61.1397L85.0736 60.772L81.6177 58.9706L81.103 58.9338L80.7353 59.2647L79.8162 60.4779C78.7623 61.5318 77.5001 62.0588 76.0295 62.0588C75.2207 62.0588 74.4731 61.8995 73.7868 61.5809C73.2476 61.3112 72.7451 60.9436 72.2795 60.4779L71.6545 59.7426C72.9535 59.2769 74.13 58.5171 75.1839 57.4632C76.63 56.0171 77.5123 54.326 77.8309 52.3897ZM105.404 41.875V41.8382C104.596 38.897 102.892 36.6789 100.294 35.1838C98.5295 34.1544 96.6912 33.6519 94.7795 33.6764C93.8236 33.6764 92.8677 33.8112 91.9118 34.0809C90.9559 34.326 90.0736 34.6813 89.2648 35.147L89.0074 35.2941C87.4633 36.2255 86.201 37.5245 85.2207 39.1912C83.701 41.8137 83.3334 44.5956 84.1177 47.5367V47.5735C85.0736 51.1029 86.9118 53.8112 89.6324 55.6985C92.402 57.6593 95.2451 58.2598 98.1618 57.5C99.3628 57.1813 100.453 56.6666 101.434 55.9559C102.782 54.9264 103.873 53.5049 104.706 51.6912C105.196 50.6372 105.539 49.571 105.735 48.4926C106.127 46.3848 106.017 44.1789 105.404 41.875Z" fill="#F5F5F5"/>
<path d="M115.074 26.6176L115.772 27.2793C118.223 29.7058 119.449 32.6225 119.449 36.0293C119.449 39.4852 118.223 42.4141 115.772 44.8161L115.074 45.4778V26.6176ZM20.9559 45.4778L20.2574 44.8161C17.8064 42.4141 16.5809 39.4852 16.5809 36.0293C16.5809 32.6225 17.8064 29.7058 20.2574 27.2793L20.9559 26.6176V45.4778Z" fill="#353434"/>
<path d="M30.625 41.875V41.8383C31.4338 38.8971 33.1372 36.679 35.7353 35.1839C37.5 34.1545 39.3505 33.652 41.2868 33.6765L44.1176 34.0809C45.0735 34.326 45.9559 34.6814 46.7647 35.1471L47.0588 35.2942C48.5784 36.2255 49.8284 37.5246 50.8088 39.1912C52.3284 41.8138 52.6961 44.5956 51.9117 47.5368V47.5736C50.9559 51.103 49.1176 53.8113 46.397 55.6986C43.6274 57.6594 40.7843 58.2598 37.8676 57.5C36.6667 57.1814 35.5882 56.6667 34.6323 55.9559C33.2598 54.9265 32.1568 53.5049 31.3235 51.6912C30.8333 50.6373 30.4902 49.5711 30.2941 48.4927C29.902 46.3848 30.0123 44.179 30.625 41.875ZM34.7794 44.4118C34.7794 45.2942 34.9265 46.1152 35.2206 46.875C35.5392 47.7084 36.0539 48.4682 36.7647 49.1545C37.9657 50.3799 39.3995 51.0662 41.0662 51.2133H41.6176C43.4804 51.2133 45.0858 50.527 46.4338 49.1545C47.7574 47.8799 48.4191 46.2991 48.4191 44.4118C48.4191 42.6716 47.8676 41.1765 46.7647 39.9265L46.4338 39.5956C45.0858 38.2721 43.4804 37.6103 41.6176 37.6103H41.3971C39.6078 37.6594 38.0637 38.3211 36.7647 39.5956C35.4412 40.9192 34.7794 42.5246 34.7794 44.4118ZM38.0882 44.5221C38.0882 43.3211 38.5049 42.3162 39.3382 41.5074C39.7304 41.1152 40.1716 40.8211 40.6618 40.625C41.1765 40.3799 41.7402 40.2574 42.3529 40.2574C43.5294 40.2574 44.5466 40.6741 45.4044 41.5074L46.1765 42.5C46.4951 43.0883 46.6544 43.7623 46.6544 44.5221C46.6544 45.6986 46.2377 46.6912 45.4044 47.5C44.7181 48.1863 43.9461 48.603 43.0882 48.75L42.3529 48.7868C41.1765 48.7868 40.1716 48.3579 39.3382 47.5C38.5049 46.6912 38.0882 45.6986 38.0882 44.5221ZM77.8309 52.3897C77.5122 54.326 76.6299 56.0172 75.1838 57.4633C74.1299 58.5172 72.9534 59.277 71.6544 59.7427C69.5711 60.6005 67.3897 60.6005 65.1103 59.7427C63.8113 59.277 62.6348 58.5172 61.5809 57.4633C60.1348 56.0172 59.2525 54.326 58.9338 52.3897C59.277 51.4339 60.1593 50.6128 61.5809 49.9265C63.4681 49.0197 65.7353 48.5662 68.3824 48.5662C71.0294 48.5662 73.2966 49.0197 75.1838 49.9265C76.6054 50.6373 77.4877 51.4584 77.8309 52.3897ZM97.9412 44.5221C97.9412 45.6986 97.5245 46.6912 96.6912 47.5C95.8578 48.3579 94.853 48.7868 93.6765 48.7868L92.9412 48.75C92.0588 48.5785 91.2868 48.1618 90.625 47.5C89.7917 46.6912 89.375 45.6986 89.375 44.5221C89.375 43.7623 89.5466 43.0883 89.8897 42.5C90.0613 42.1324 90.3064 41.8015 90.625 41.5074C91.4828 40.6741 92.5 40.2574 93.6765 40.2574C94.2892 40.2574 94.8652 40.3799 95.4044 40.625C95.8701 40.8211 96.299 41.1152 96.6912 41.5074C97.5245 42.3162 97.9412 43.3211 97.9412 44.5221ZM105.404 41.875C106.017 44.179 106.127 46.3848 105.735 48.4927C105.539 49.5711 105.196 50.6373 104.706 51.6912C103.873 53.5049 102.782 54.9265 101.434 55.9559C100.453 56.6667 99.3627 57.1814 98.1618 57.5C95.2451 58.2598 92.402 57.6594 89.6324 55.6986C86.9118 53.8113 85.0735 51.103 84.1177 47.5736V47.5368C83.3333 44.5956 83.701 41.8138 85.2206 39.1912C86.201 37.5246 87.4632 36.2255 89.0073 35.2942L89.2647 35.1471C90.0735 34.6814 90.9559 34.326 91.9118 34.0809C92.8676 33.8113 93.8235 33.6765 94.7794 33.6765C96.6912 33.652 98.5294 34.1545 100.294 35.1839C102.892 36.679 104.596 38.8971 105.404 41.8383V41.875ZM101.25 44.4118C101.25 42.5246 100.588 40.9192 99.2647 39.5956C97.9657 38.3211 96.4338 37.6594 94.6691 37.6103H94.4118C92.549 37.6103 90.9436 38.2721 89.5956 39.5956L89.3015 39.9265C88.174 41.1765 87.6103 42.6716 87.6103 44.4118C87.6103 46.2991 88.272 47.8799 89.5956 49.1545C90.9436 50.527 92.549 51.2133 94.4118 51.2133H95C96.6422 51.0662 98.0637 50.3799 99.2647 49.1545C99.9755 48.4682 100.49 47.7084 100.809 46.875C101.103 46.1152 101.25 45.2942 101.25 44.4118Z" fill="#5B5B5B"/>
<path d="M58.9338 52.3896L58.7867 50.6616V49.9999C58.9338 48.8234 59.8652 47.8185 61.5809 46.9852C63.4681 46.0783 65.7353 45.6249 68.3823 45.6249C71.0294 45.6249 73.2965 46.0783 75.1838 46.9852C76.875 47.8185 77.8063 48.8234 77.9779 49.9999V50.6616L77.8308 52.3896C77.4877 51.4582 76.6054 50.6371 75.1838 49.9263C73.2965 49.0195 71.0294 48.5661 68.3823 48.5661C65.7353 48.5661 63.4681 49.0195 61.5809 49.9263C60.1593 50.6126 59.2769 51.4337 58.9338 52.3896Z" fill="#666666"/>
<path d="M71.6544 59.7425L72.2794 60.4778C72.7451 60.9434 73.2475 61.3111 73.7867 61.5807C74.473 61.8993 75.2206 62.0586 76.0294 62.0586C77.5 62.0586 78.7622 61.5317 79.8161 60.4778L80.7353 59.2645L81.1029 58.9336L81.6176 58.9704L85.0735 60.7719L85.4044 61.1395L85.3676 61.6175L84.2647 63.3086L83.4926 64.1542C81.4093 66.213 78.9216 67.2425 76.0294 67.2425C73.1372 67.2425 70.6617 66.213 68.6029 64.1542L68.3823 63.9336L68.1617 64.1542C66.0784 66.213 63.5906 67.2425 60.6985 67.2425C57.7818 67.2425 55.3063 66.213 53.272 64.1542L52.5 63.3086C52.0588 62.7694 51.6912 62.2302 51.397 61.691C51.299 61.5194 51.2867 61.3601 51.3602 61.213C51.3848 61.0415 51.4828 60.9067 51.6544 60.8086L55.0367 58.9336L55.5147 58.8601L55.9191 59.191L56.9117 60.4778C57.9657 61.5317 59.2279 62.0586 60.6985 62.0586L62.9779 61.5807L64.4853 60.4778L65.1103 59.7425C67.3897 60.6003 69.5711 60.6003 71.6544 59.7425Z" fill="#464646"/>
<path d="M90.8823 97.0588H45.8823L46.9117 95.1471C48.0147 93.2353 49.1666 91.5074 50.3676 89.9632C55.5637 83.174 61.5686 79.7794 68.3823 79.7794C75.196 79.7794 81.2009 83.174 86.397 89.9632C87.5735 91.5074 88.7132 93.2353 89.8162 95.1471L90.8823 97.0588Z" fill="#E5E5E5"/>
</svg>
