<svg width="195" height="198" viewBox="0 0 195 198" fill="none" xmlns="http://www.w3.org/2000/svg">
<path fill-rule="evenodd" clip-rule="evenodd" d="M72.8064 39.4012L88.3286 38.4229L90.2461 43.6535L107.712 41.7882L113.66 46.5883L117.26 42.1273L138.874 47.2926L150.835 76.5891L147.835 80.3066L157.5 88.1068L163.083 108.573L145.683 130.134L139.709 131.452L138.483 139.056L120.482 161.361L103.929 159.053L97.9815 154.253L91.5508 157.657L84.1158 151.657L78.4287 155.661L56.3584 152.583L43.7971 124.03L44.7101 119.856L40.9926 116.856L33.2054 88.4724L72.8064 39.4012Z" fill="#BB8044"/>
<path fill-rule="evenodd" clip-rule="evenodd" d="M72.402 29.2531L144.274 40.6011L170.544 108.455L121.943 168.679L51.5583 158.531L23.8007 89.4768L72.402 29.2531ZM88.3286 38.4229L72.8064 39.4012L33.2054 88.4724L40.9926 116.856L44.7101 119.856L43.7971 124.03L56.3584 152.583L78.4287 155.661L84.1158 151.657L91.5508 157.657L97.9815 154.253L103.929 159.053L120.482 161.361L138.483 139.056L139.709 131.452L145.683 130.134L163.083 108.573L157.5 88.1068L147.835 80.3066L150.835 76.5891L138.874 47.2926L117.26 42.1273L113.66 46.5883L107.712 41.7882L90.2461 43.6535L88.3286 38.4229Z" fill="#BB8044"/>
<path fill-rule="evenodd" clip-rule="evenodd" d="M72.8064 39.4012L88.3286 38.4229L90.2461 43.6535L107.712 41.7882L113.66 46.5883L117.26 42.1273L138.874 47.2926L150.835 76.5891L147.835 80.3066L157.5 88.1068L163.083 108.573L145.683 130.134L139.709 131.452L138.483 139.056L120.482 161.361L103.929 159.053L97.9815 154.253L91.5508 157.657L84.1158 151.657L78.4287 155.661L56.3584 152.583L43.7971 124.03L44.7101 119.856L40.9926 116.856L33.2054 88.4724L72.8064 39.4012Z" stroke="#BB8044"/>
<path fill-rule="evenodd" clip-rule="evenodd" d="M72.402 29.2531L144.274 40.6011L170.544 108.455L121.943 168.679L51.5583 158.531L23.8007 89.4768L72.402 29.2531ZM88.3286 38.4229L72.8064 39.4012L33.2054 88.4724L40.9926 116.856L44.7101 119.856L43.7971 124.03L56.3584 152.583L78.4287 155.661L84.1158 151.657L91.5508 157.657L97.9815 154.253L103.929 159.053L120.482 161.361L138.483 139.056L139.709 131.452L145.683 130.134L163.083 108.573L157.5 88.1068L147.835 80.3066L150.835 76.5891L138.874 47.2926L117.26 42.1273L113.66 46.5883L107.712 41.7882L90.2461 43.6535L88.3286 38.4229Z" stroke="#BB8044"/>
<path fill-rule="evenodd" clip-rule="evenodd" d="M72.6629 38.0578L88.1851 37.0795L90.1026 42.3101L107.568 40.4448L113.516 45.2449L117.116 40.7839L138.73 45.9492L150.692 75.2457L147.691 78.9632L157.357 86.7634L162.94 107.229L145.539 128.791L139.565 130.108L138.339 137.713L120.339 160.018L103.786 157.709L97.838 152.909L91.4073 156.314L83.9723 150.313L78.2852 154.318L56.2149 151.24L43.6536 122.687L44.5667 118.513L40.8491 115.512L33.0619 87.129L72.6629 38.0578Z" fill="#E5D5BB" stroke="#BB8044"/>
</svg>
