<svg width="100" height="100" viewBox="0 0 100 100" fill="none" xmlns="http://www.w3.org/2000/svg">
<path d="M90.6985 0C96.8995 0 100 3.11275 100 9.33824V91.0662V91.1765C99.9265 94.0686 99.1421 96.25 97.647 97.7206C96.0784 99.2402 93.7622 100 90.6985 100H9.30149C6.23776 100 3.93382 99.2402 2.38971 97.7206C0.870098 96.25 0.0735294 94.0686 0 91.1765V91.0662V9.33824C0 3.11275 3.10051 0 9.30149 0H90.6985ZM97.0588 11.9118V9.33824C97.0588 5.07354 94.9387 2.94118 90.6985 2.94118H9.30149C5.06129 2.94118 2.94118 5.07354 2.94118 9.33824V11.9118V86.8015V91.0662C3.06373 95.0613 5.18384 97.0588 9.30149 97.0588H90.6985C94.8162 97.0588 96.9363 95.0613 97.0588 91.0662V86.6176V11.9118Z" fill="#1B8045"/>
<path d="M97.0588 11.9118C96.9363 7.89215 94.8161 5.88234 90.6985 5.88234H73.5294H26.4706H9.30147C5.18383 5.88234 3.06371 7.89215 2.94116 11.9118V9.33823C2.94116 5.07352 5.06128 2.94116 9.30147 2.94116H90.6985C94.9387 2.94116 97.0588 5.07352 97.0588 9.33823V11.9118Z" fill="#31DE7A"/>
<path d="M26.4706 5.88232H73.5294C72.4755 13.2353 70.3677 19.7916 67.2059 25.5514C62.451 34.2769 56.7157 38.6397 50 38.6397C43.2843 38.6397 37.549 34.2769 32.7941 25.5514C29.6568 19.7916 27.549 13.2353 26.4706 5.88232ZM46.4338 19.1176L46.7647 18.5294C47.1568 17.7206 47.3162 16.9118 47.2426 16.1029C47.1201 15.1716 46.7157 14.4975 46.0294 14.0809L43.7132 14.0441C42.9534 14.3627 42.3162 14.9019 41.8014 15.6617L41.4706 16.2868C40.4902 17.9779 39.902 19.5588 39.7059 21.0294C39.4853 22.5245 39.7181 23.4559 40.4044 23.8235C41.0907 24.2402 42.0098 23.9828 43.1618 23.0514C44.3627 22.1446 45.4534 20.8333 46.4338 19.1176ZM57.6471 14.7426L57.1324 13.897C56.3726 12.7451 55.4167 11.924 54.2647 11.4338C52.9657 10.8701 51.8015 10.8823 50.772 11.4705C49.7181 12.0833 49.1176 13.0882 48.9706 14.4853C48.8235 15.7353 49.0441 16.973 49.6323 18.1985L50.1471 19.0809C51.6422 21.6299 53.2598 23.6029 55 25C56.7892 26.397 58.2108 26.7892 59.2647 26.1764C60.2941 25.5882 60.6372 24.1789 60.2941 21.9485C60.0245 19.7181 59.1422 17.3161 57.6471 14.7426Z" fill="#2FD274"/>
<path d="M57.647 14.7426C59.1421 17.3162 60.0245 19.7181 60.2941 21.9485C60.6372 24.1789 60.2941 25.5882 59.2647 26.1765C58.2107 26.7892 56.7892 26.3971 55 25C53.2598 23.6029 51.6421 21.6299 50.147 19.0809L49.6323 18.1985C49.0441 16.973 48.8235 15.7353 48.9705 14.4853C49.1176 13.0883 49.7181 12.0833 50.772 11.4706C51.8014 10.8823 52.9656 10.8701 54.2647 11.4338C55.4166 11.924 56.3725 12.7451 57.1323 13.8971L57.647 14.7426ZM46.4338 19.1177C45.4534 20.8333 44.3627 22.1446 43.1617 23.0515C42.0098 23.9828 41.0907 24.2402 40.4044 23.8236C39.7181 23.4559 39.4853 22.5245 39.7058 21.0294C39.9019 19.5588 40.4902 17.978 41.4706 16.2868L41.8014 15.6618C42.3161 14.902 42.9534 14.3627 43.7132 14.0441L46.0294 14.0809C46.7156 14.4976 47.1201 15.1716 47.2426 16.103C47.3161 16.9118 47.1568 17.7206 46.7647 18.5294L46.4338 19.1177Z" fill="#29BB67"/>
<path d="M79.1176 45.4045C79.1176 47.88 78.2597 49.9633 76.5441 51.6545C74.7794 53.4437 72.647 54.3383 70.147 54.3383C67.6961 54.3383 65.6004 53.4437 63.8602 51.6545C62.0955 49.9633 61.2132 47.88 61.2132 45.4045C61.2132 42.929 62.0955 40.8212 63.8602 39.081C65.6004 37.3653 67.6961 36.5074 70.147 36.5074C72.647 36.5074 74.7794 37.3653 76.5441 39.081C78.2597 40.8212 79.1176 42.929 79.1176 45.4045ZM74.8161 45.5883C74.8161 43.9707 74.2647 42.6349 73.1617 41.5809C72.0588 40.527 70.7352 40.0001 69.1911 40.0001C67.6715 40.0001 66.3358 40.527 65.1838 41.5809C64.0809 42.6349 63.5294 43.9707 63.5294 45.5883C63.5294 47.1324 64.0809 48.4314 65.1838 49.4854C66.3358 50.6128 67.6715 51.1765 69.1911 51.1765C70.7352 51.1765 72.0588 50.6128 73.1617 49.4854C74.2647 48.4314 74.8161 47.1324 74.8161 45.5883ZM20.8823 45.4045C20.8823 42.929 21.7647 40.8212 23.5294 39.081C25.2941 37.3653 27.4019 36.5074 29.8529 36.5074C32.1813 36.5074 34.2279 37.2917 35.9926 38.8604L36.2499 39.081C37.9656 40.8212 38.8235 42.929 38.8235 45.4045C38.8235 47.88 37.9656 49.9633 36.2499 51.6545L35.9926 51.9118C34.2279 53.5295 32.1813 54.3383 29.8529 54.3383C27.4019 54.3383 25.2941 53.4437 23.5294 51.6545C21.7647 49.9633 20.8823 47.88 20.8823 45.4045ZM25.2573 45.5883C25.2573 47.1324 25.8088 48.4314 26.9117 49.4854C27.9656 50.6128 29.2769 51.1765 30.8456 51.1765C32.3897 51.1765 33.7132 50.6128 34.8161 49.4854C35.3308 48.9952 35.723 48.4559 35.9926 47.8677C36.3112 47.1814 36.4705 46.4216 36.4705 45.5883C36.4705 44.7305 36.3112 43.9461 35.9926 43.2354C35.723 42.6226 35.3308 42.0711 34.8161 41.5809C33.7132 40.527 32.3897 40.0001 30.8456 40.0001C29.2769 40.0001 27.9656 40.527 26.9117 41.5809C25.8088 42.6349 25.2573 43.9707 25.2573 45.5883Z" fill="white"/>
<path d="M25.2573 45.5883C25.2573 43.9707 25.8088 42.6349 26.9117 41.581C27.9657 40.5271 29.277 40.0001 30.8456 40.0001C32.3897 40.0001 33.7132 40.5271 34.8161 41.581C35.3309 42.0712 35.723 42.6226 35.9926 43.2354C36.3113 43.9462 36.4706 44.7305 36.4706 45.5883C36.4706 46.4217 36.3113 47.1815 35.9926 47.8677C35.723 48.456 35.3309 48.9952 34.8161 49.4854C33.7132 50.6128 32.3897 51.1766 30.8456 51.1766C29.277 51.1766 27.9657 50.6128 26.9117 49.4854C25.8088 48.4315 25.2573 47.1325 25.2573 45.5883ZM74.8162 45.5883C74.8162 47.1325 74.2647 48.4315 73.1618 49.4854C72.0588 50.6128 70.7353 51.1766 69.1911 51.1766C67.6715 51.1766 66.3358 50.6128 65.1838 49.4854C64.0809 48.4315 63.5294 47.1325 63.5294 45.5883C63.5294 43.9707 64.0809 42.6349 65.1838 41.581C66.3358 40.5271 67.6715 40.0001 69.1911 40.0001C70.7353 40.0001 72.0588 40.5271 73.1618 41.581C74.2647 42.6349 74.8162 43.9707 74.8162 45.5883Z" fill="#5B5B5B"/>
<path d="M97.0588 11.9117V86.6176C90.6127 89.4117 85.3309 88.9338 81.2132 85.1838L80.8088 84.8161L79.0441 82.4632C74.4608 76.6299 69.5343 72.3039 64.2647 69.4853L68.3456 68.6029C73.1985 67.3774 75.7475 65.9068 75.9926 64.1911V63.9338V63.8235C75.8701 62.0343 73.3211 60.5024 68.3456 59.2279L64.7426 58.4559L64.6691 58.125C64.0564 55.3063 62.7451 52.7941 60.7353 50.5882L59.0073 48.9338C56.4093 46.8014 53.4191 45.7353 50.0367 45.7353C46.6299 45.7353 43.6397 46.8014 41.0661 48.9338C40.4534 49.3995 39.8529 49.9509 39.2647 50.5882C37.2794 52.7941 35.9681 55.3063 35.3309 58.125L35.2573 58.4559L31.5809 59.2279C26.6789 60.4779 24.1544 61.9975 24.0074 63.7867V63.9338L24.0441 64.1911C24.2647 65.9068 26.777 67.3774 31.5809 68.6029L33.4191 69.0441C27.9289 71.7892 22.8186 76.1274 18.0882 82.0588L16.9853 83.4926L15.9926 84.8161C12.9534 88.7377 8.60293 89.3995 2.94116 86.8014V11.9117C3.06371 7.89214 5.18383 5.88232 9.30147 5.88232H26.4706C27.549 13.2353 29.6568 19.7916 32.7941 25.5514C37.549 34.2769 43.2843 38.6397 50 38.6397C56.7157 38.6397 62.451 34.2769 67.2059 25.5514C70.3677 19.7916 72.4755 13.2353 73.5294 5.88232H90.6985C94.8161 5.88232 96.9363 7.89214 97.0588 11.9117ZM79.1176 45.4044C79.1176 42.9289 78.2598 40.8211 76.5441 39.0809C74.7794 37.3652 72.6471 36.5073 70.1471 36.5073C67.6961 36.5073 65.6005 37.3652 63.8603 39.0809C62.0956 40.8211 61.2132 42.9289 61.2132 45.4044C61.2132 47.8799 62.0956 49.9632 63.8603 51.6544C65.6005 53.4436 67.6961 54.3382 70.1471 54.3382C72.6471 54.3382 74.7794 53.4436 76.5441 51.6544C78.2598 49.9632 79.1176 47.8799 79.1176 45.4044ZM20.8824 45.4044C20.8824 47.8799 21.7647 49.9632 23.5294 51.6544C25.2941 53.4436 27.4019 54.3382 29.8529 54.3382C32.1813 54.3382 34.2279 53.5294 35.9926 51.9117L36.25 51.6544C37.9657 49.9632 38.8235 47.8799 38.8235 45.4044C38.8235 42.9289 37.9657 40.8211 36.25 39.0809L35.9926 38.8602C34.2279 37.2916 32.1813 36.5073 29.8529 36.5073C27.4019 36.5073 25.2941 37.3652 23.5294 39.0809C21.7647 40.8211 20.8824 42.9289 20.8824 45.4044Z" fill="#2ECC71"/>
<path d="M35.2574 58.4561L35.3309 58.1252C35.9682 55.3065 37.2795 52.7943 39.2648 50.5884C39.853 49.9511 40.4535 49.3997 41.0662 48.934C43.6397 46.8016 46.6299 45.7355 50.0368 45.7355C53.4192 45.7355 56.4094 46.8016 59.0074 48.934L60.7353 50.5884C62.7451 52.7943 64.0564 55.3065 64.6692 58.1252L64.7427 58.4561L64.9265 59.5957L65.1471 62.3163L65.0736 63.4193V63.5664L64.9265 62.5369L64.6692 61.0663C64.4731 60.1105 64.1912 59.1913 63.8236 58.309C63.0883 56.5688 62.0589 54.9757 60.7353 53.5296L59.0074 51.8752C56.4094 49.7428 53.4192 48.6767 50.0368 48.6767C46.6299 48.6767 43.6397 49.7428 41.0662 51.8752C40.4535 52.3408 39.853 52.8923 39.2648 53.5296C37.9658 54.9757 36.9486 56.5688 36.2133 58.309C35.8456 59.1913 35.5515 60.1105 35.3309 61.0663L35.0368 62.5369L34.9633 63.6399L34.9265 63.4193L34.8898 62.3163L35.0368 59.5957L35.2574 58.4561Z" fill="#FFD738"/>
<path d="M34.9633 63.6399L35.0368 62.5369L35.3309 61.0663C35.5515 60.1104 35.8456 59.1913 36.2133 58.309C36.9486 56.5688 37.9657 54.9756 39.2648 53.5296C39.853 52.8923 40.4534 52.3408 41.0662 51.8751C43.6397 49.7428 46.6299 48.6766 50.0368 48.6766C53.4191 48.6766 56.4093 49.7428 59.0074 51.8751L60.7353 53.5296C62.0588 54.9756 63.0883 56.5688 63.8236 58.309C64.1912 59.1913 64.4731 60.1104 64.6692 61.0663L64.9265 62.5369L65.0736 63.5663L65 64.1913L64.6692 65.331C64.228 66.483 63.4559 67.5492 62.353 68.5296L61.1398 69.4855L60.7353 69.7428L60.2941 70.0369L60 70.2207C57.1814 71.7894 53.8603 72.5737 50.0368 72.5737C46.1887 72.5737 42.8554 71.7894 40.0368 70.2207L39.7427 70.0369L39.2648 69.7428L37.9044 68.7502L36.7647 67.6105C36.1275 66.8752 35.6618 66.1031 35.3677 65.2943L35.0736 64.1913L34.9633 63.6399Z" fill="#FFCC00"/>
<path d="M34.9632 63.6397L35.0735 64.1912L35.3676 65.2942L24.0073 63.7868C24.1544 61.9976 26.6789 60.478 31.5808 59.228L35.2573 58.4559L35.0367 59.5956L34.8897 62.3162L34.9264 63.4192L34.9632 63.6397ZM64.7426 58.4559L68.3456 59.228C73.321 60.5025 75.87 62.0344 75.9926 63.8236L64.6691 65.3309L65 64.1912L65.0735 63.5662V63.4192L65.147 62.3162L64.9264 59.5956L64.7426 58.4559Z" fill="#EEBE00"/>
<path d="M75.9926 63.8235V63.9338V64.1911C75.7475 65.9068 73.1985 67.3774 68.3456 68.6029L64.2647 69.4853L61.9117 69.8529L61.8014 69.8897L60.2941 70.0367L60.7352 69.7426L61.1397 69.4853L62.3529 68.5294C63.4558 67.549 64.2279 66.4828 64.6691 65.3308L75.9926 63.8235ZM24.0073 63.7867L35.3676 65.2941C35.6617 66.1029 36.1274 66.875 36.7647 67.6103L37.9044 68.75L39.2647 69.7426L39.7426 70.0367L38.0882 69.8529L36.3603 69.5956L33.4191 69.0441L31.5808 68.6029C26.7769 67.3774 24.2647 65.9068 24.0441 64.1911L24.0073 63.9338V63.7867Z" fill="#DEB100"/>
<path d="M97.0588 86.6177V91.0662C96.9363 95.0613 94.8161 97.0589 90.6985 97.0589H9.30147C5.18383 97.0589 3.06371 95.0613 2.94116 91.0662V86.8015C8.60293 89.3996 12.9534 88.7378 15.9926 84.8162L16.9853 83.4927L18.0882 82.0589C22.8186 76.1275 27.9289 71.7893 33.4191 69.0442L36.3603 69.5957L38.0882 69.853L39.7426 70.0368L40.0368 70.2206C42.8554 71.7893 46.1887 72.5736 50.0367 72.5736C53.8603 72.5736 57.1813 71.7893 60 70.2206L60.2941 70.0368L61.8014 69.8898L61.9118 69.853L64.2647 69.4853C69.5343 72.304 74.4608 76.63 79.0441 82.4633L80.8088 84.8162L81.2132 85.1839C85.3309 88.9339 90.6127 89.4118 97.0588 86.6177Z" fill="#F3F3F3"/>
</svg>
