<svg width="100" height="100" viewBox="0 0 100 100" fill="none" xmlns="http://www.w3.org/2000/svg">
<path d="M79.5588 97.0588H90.6985C94.8162 97.0588 96.9363 95.0613 97.0588 91.0662V11.9118V9.33823C97.0588 5.07353 94.9387 2.94118 90.6985 2.94118H9.30149C5.06129 2.94118 2.94118 5.07353 2.94118 9.33823V11.9118V91.0662C3.06373 95.0613 5.18384 97.0588 9.30149 97.0588H20.4412H79.5588ZM90.6985 0C96.8995 0 100 3.11274 100 9.33823V91.0662V91.1765C99.8529 97.0588 96.7524 100 90.6985 100H9.30149C3.24757 100 0.147059 97.0588 0 91.1765V91.0662V9.33823C0 3.11274 3.10051 0 9.30149 0H90.6985Z" fill="#8A1D03"/>
<path d="M2.94116 11.9117V9.33822C2.94116 5.07351 5.06128 2.94116 9.30147 2.94116H90.6985C94.9387 2.94116 97.0588 5.07351 97.0588 9.33822V11.9117C96.9363 7.89214 94.8161 5.88234 90.6985 5.88234H9.30147C5.18383 5.88234 3.06371 7.89214 2.94116 11.9117Z" fill="#F53707"/>
<path d="M2.94116 11.9117C3.06371 7.89213 5.18383 5.88232 9.30147 5.88232H90.6985C94.8161 5.88232 96.9363 7.89213 97.0588 11.9117V91.0661C96.9363 95.0612 94.8161 97.0588 90.6985 97.0588H79.5588L79.6691 95.2206C79.6691 89.7304 76.7647 85.0367 70.9559 81.1397C67.8676 79.0564 64.424 77.5367 60.625 76.5808C61.4338 75.5024 62.0588 74.3505 62.5 73.125L63.0883 70.7353L63.1618 70.1103L63.2353 69.0441V68.6764V64.2647V63.9706V61.6911L65.625 64.4485C69.1299 67.9779 72.5613 69.3014 75.9191 68.4191C79.2769 67.5122 81.5809 64.6446 82.8309 59.8162C84.0564 55.0122 83.8726 49.6446 82.2794 43.7132L82.1691 43.3088C81.2622 40.098 79.3504 37.647 76.4338 35.9559C73.3946 34.1911 70.1961 33.7622 66.8382 34.6691C63.5049 35.5514 60.9559 37.5245 59.1912 40.5882C57.5 43.4804 57.0466 46.5686 57.8309 49.8529L57.9412 50.2573L58.1617 50.9926C55.8333 49.1054 53.1127 48.1617 50 48.1617C46.9363 48.1617 44.2402 49.0809 41.9118 50.9191L42.0588 50.2941L42.2059 49.8897C43.0147 46.6054 42.5613 43.5049 40.8456 40.5882C39.1299 37.549 36.5809 35.5882 33.1985 34.7059C29.8407 33.7745 26.6421 34.1911 23.6029 35.9559C20.6862 37.647 18.7622 40.098 17.8309 43.3088L17.6838 43.7132C16.1152 49.6446 15.9681 55.0245 17.2426 59.8529C18.5171 64.6568 20.821 67.5245 24.1544 68.4559C27.5367 69.3382 30.9804 68.0024 34.4853 64.4485L36.7647 61.8382V63.9706V64.2647V68.6764V68.897L36.8382 70.1103L36.9117 70.7353C37.0343 71.5686 37.2304 72.3652 37.5 73.125C37.9167 74.3505 38.5294 75.5147 39.3382 76.6176C35.5637 77.5735 32.12 79.0809 29.0073 81.1397C23.223 85.0367 20.3309 89.7304 20.3309 95.2206L20.4412 97.0588H9.30147C5.18383 97.0588 3.06371 95.0612 2.94116 91.0661V11.9117ZM59.8529 14.6691L59.1544 13.5661C58.174 12.0956 56.9485 11.0416 55.4779 10.4044C53.8112 9.6936 52.3039 9.71811 50.9559 10.4779C49.6079 11.2622 48.8358 12.549 48.6397 14.3382C48.4436 15.9559 48.7377 17.549 49.522 19.1176L50.1838 20.2573C52.0956 23.5661 54.1789 26.1152 56.4338 27.9044C58.7377 29.6936 60.5637 30.196 61.9117 29.4117C63.2598 28.6519 63.7133 26.8382 63.2721 23.9706C62.9044 21.0784 61.7647 17.9779 59.8529 14.6691ZM45.3676 20.3309L45.8088 19.5588C46.3236 18.5049 46.5196 17.4632 46.397 16.4338C46.25 15.2328 45.7353 14.3627 44.8529 13.8235C43.9706 13.3088 42.9779 13.2965 41.875 13.7867C40.8946 14.2034 40.0735 14.9019 39.4117 15.8823L38.9706 16.6544C37.7206 18.8358 36.9608 20.8823 36.6912 22.7941C36.4216 24.7059 36.7279 25.9068 37.6103 26.397C38.4926 26.9362 39.6814 26.6054 41.1765 25.4044C42.7206 24.2279 44.1176 22.5367 45.3676 20.3309Z" fill="#D23007"/>
<path d="M45.3676 20.3307C44.1176 22.5366 42.7206 24.2278 41.1765 25.4042C39.6814 26.6052 38.4927 26.9361 37.6103 26.3969C36.728 25.9067 36.4216 24.7057 36.6912 22.7939C36.9608 20.8822 37.7206 18.8356 38.9706 16.6542L39.4118 15.8822C40.0735 14.9018 40.8946 14.2033 41.875 13.7866C42.9779 13.2964 43.9706 13.3086 44.853 13.8234C45.7353 14.3626 46.25 15.2327 46.3971 16.4336C46.5196 17.4631 46.3236 18.5047 45.8089 19.5586L45.3676 20.3307ZM59.853 14.6689C61.7647 17.9778 62.9045 21.0783 63.2721 23.9704C63.7133 26.8381 63.2598 28.6518 61.9117 29.4116C60.5637 30.1959 58.7378 29.6934 56.4338 27.9042C54.1789 26.115 52.0956 23.566 50.1838 20.2572L49.5221 19.1175C48.7377 17.5488 48.4437 15.9557 48.6397 14.3381C48.8358 12.5488 49.6079 11.2621 50.9559 10.4778C52.304 9.71796 53.8113 9.69345 55.4779 10.4042C56.9485 11.0415 58.174 12.0954 59.1544 13.566L59.853 14.6689Z" fill="#BB2905"/>
<path d="M58.1617 50.9926L57.9412 50.2573L57.8309 49.8529C57.0466 46.5685 57.5 43.4803 59.1912 40.5881C60.9559 37.5244 63.5049 35.5514 66.8382 34.669C70.1961 33.7622 73.3945 34.1911 76.4338 35.9558C79.3504 37.647 81.2622 40.0979 82.1691 43.3087L82.2794 43.7131C83.8725 49.6445 84.0564 55.0122 82.8309 59.8161C81.5809 64.6445 79.2769 67.5122 75.9191 68.419C72.5612 69.3014 69.1299 67.9778 65.625 64.4484L63.2353 61.6911V61.397C63.2353 60.245 63.0882 59.1421 62.7941 58.0881L62.647 57.4631L62.6103 57.3528L61.9853 55.7352C62.3039 56.3234 62.7329 56.8872 63.2721 57.4264C64.8407 58.9705 66.6666 59.7426 68.75 59.7426C70.8823 59.7426 72.7083 58.9705 74.2279 57.4264C75.7475 55.9558 76.5074 54.1543 76.5074 52.022C76.5074 49.8651 75.7475 48.0391 74.2279 46.544C72.7083 45.0489 70.8823 44.3014 68.75 44.3014C66.6666 44.3014 64.8407 45.0489 63.2721 46.544C61.8015 48.0391 61.0662 49.8651 61.0662 52.022C61.0662 53.1984 61.2867 54.2769 61.7279 55.2573C61.1151 54.1053 60.3186 53.0391 59.3382 52.0587L58.1617 50.9926ZM41.9117 50.919C41.4461 51.2622 41.0048 51.6421 40.5882 52.0587C39.0686 53.6028 38.0024 55.3676 37.3897 57.3528L37.353 57.4631L37.1691 58.0881C36.8995 59.1421 36.7647 60.245 36.7647 61.397V61.8381L34.4853 64.4484C30.9804 68.0024 27.5367 69.3381 24.1544 68.4558C20.821 67.5244 18.5171 64.6568 17.2426 59.8528C15.9681 55.0244 16.1152 49.6445 17.6838 43.7131L17.8309 43.3087C18.7622 40.0979 20.6862 37.647 23.6029 35.9558C26.6421 34.1911 29.8407 33.7744 33.1985 34.7058C36.5809 35.5881 39.1299 37.5489 40.8456 40.5881C42.5613 43.5048 43.0147 46.6053 42.2059 49.8896L42.0588 50.294L41.9117 50.919ZM23.3824 52.022C23.3824 54.1543 24.1299 55.9558 25.625 57.4264C27.1446 58.9705 28.9706 59.7426 31.103 59.7426C33.2108 59.7426 35.0367 58.9705 36.5809 57.4264C38.076 55.9558 38.8235 54.1543 38.8235 52.022C38.8235 49.8651 38.076 48.0391 36.5809 46.544C35.0367 45.0489 33.2108 44.3014 31.103 44.3014C28.9706 44.3014 27.1446 45.0489 25.625 46.544C24.1299 48.0391 23.3824 49.8651 23.3824 52.022Z" fill="#D5EEF7"/>
<path d="M23.3824 52.0221C23.3824 49.8652 24.1299 48.0393 25.625 46.5442C27.1446 45.0491 28.9707 44.3015 31.103 44.3015C33.2109 44.3015 35.0368 45.0491 36.5809 46.5442C38.076 48.0393 38.8236 49.8652 38.8236 52.0221C38.8236 54.1545 38.076 55.9559 36.5809 57.4265C35.0368 58.9706 33.2109 59.7427 31.103 59.7427C28.9707 59.7427 27.1446 58.9706 25.625 57.4265C24.1299 55.9559 23.3824 54.1545 23.3824 52.0221ZM61.728 55.2574C61.2868 54.277 61.0663 53.1986 61.0663 52.0221C61.0663 49.8652 61.8016 48.0393 63.2722 46.5442C64.8408 45.0491 66.6667 44.3015 68.7501 44.3015C70.8824 44.3015 72.7084 45.0491 74.228 46.5442C75.7476 48.0393 76.5074 49.8652 76.5074 52.0221C76.5074 54.1545 75.7476 55.9559 74.228 57.4265C72.7084 58.9706 70.8824 59.7427 68.7501 59.7427C66.6667 59.7427 64.8408 58.9706 63.2722 57.4265C62.7329 56.8873 62.304 56.3236 61.9854 55.7353L61.728 55.2574ZM72.2795 51.9853C72.2795 50.6128 71.8138 49.4731 70.8824 48.5662C69.9265 47.6103 68.7745 47.1324 67.4265 47.1324C66.103 47.1324 64.951 47.6103 63.9706 48.5662C63.0393 49.4731 62.5736 50.6128 62.5736 51.9853V52.4633C62.6716 53.5662 63.1373 54.5221 63.9706 55.3309C64.951 56.2623 66.103 56.728 67.4265 56.728C68.7745 56.728 69.9265 56.2623 70.8824 55.3309C71.6912 54.5221 72.1447 53.5662 72.2427 52.4633L72.2795 51.9853ZM27.6104 51.9853L27.6471 52.4633C27.7206 53.5662 28.1618 54.5221 28.9707 55.3309C29.9265 56.2623 31.0908 56.728 32.4633 56.728C33.7623 56.728 34.9021 56.2623 35.8824 55.3309C36.7403 54.5221 37.2059 53.5662 37.2794 52.4633L37.3162 51.9853C37.3162 50.6128 36.8383 49.4731 35.8824 48.5662C34.9021 47.6103 33.7623 47.1324 32.4633 47.1324C31.0908 47.1324 29.9265 47.6103 28.9707 48.5662C28.0638 49.4731 27.6104 50.6128 27.6104 51.9853Z" fill="white"/>
<path d="M27.6104 51.9851C27.6104 50.6126 28.0638 49.4729 28.9706 48.566C29.9265 47.6101 31.0907 47.1322 32.4633 47.1322C33.7623 47.1322 34.902 47.6101 35.8824 48.566C36.8383 49.4729 37.3162 50.6126 37.3162 51.9851L37.2794 52.4631C37.2059 53.566 36.7403 54.5219 35.8824 55.3307C34.902 56.2621 33.7623 56.7278 32.4633 56.7278C31.0907 56.7278 29.9265 56.2621 28.9706 55.3307C28.1618 54.5219 27.7206 53.566 27.6471 52.4631L27.6104 51.9851ZM72.2795 51.9851L72.2427 52.4631C72.1446 53.566 71.6912 54.5219 70.8824 55.3307C69.9265 56.2621 68.7745 56.7278 67.4265 56.7278C66.1029 56.7278 64.951 56.2621 63.9706 55.3307C63.1373 54.5219 62.6716 53.566 62.5735 52.4631V51.9851C62.5735 50.6126 63.0392 49.4729 63.9706 48.566C64.951 47.6101 66.1029 47.1322 67.4265 47.1322C68.7745 47.1322 69.9265 47.6101 70.8824 48.566C71.8138 49.4729 72.2795 50.6126 72.2795 51.9851Z" fill="#5B5B5B"/>
<path d="M58.1617 50.9926L59.3381 52.0588C60.3185 53.0392 61.1151 54.1054 61.7278 55.2573L61.9853 55.7353L62.6103 57.3529L62.647 57.4632L62.7941 58.0882C63.0882 59.1421 63.2352 60.2451 63.2352 61.397V61.6911V63.9706C63.2107 63.0147 63.0637 62.0833 62.7941 61.1764V61.0294L62.647 60.625L62.6103 60.5147C62.0955 58.9706 61.2622 57.5858 60.1102 56.3603L59.3381 55.5882C56.7891 53.1617 53.6764 51.9485 49.9999 51.9485C46.348 51.9485 43.2107 53.1617 40.5881 55.5882L40.0367 56.1397C38.8112 57.4387 37.9288 58.897 37.3896 60.5147L37.3529 60.625L37.1691 61.1764V61.2867C36.924 62.1446 36.7892 63.0392 36.7646 63.9706V61.8382V61.397C36.7646 60.2451 36.8995 59.1421 37.1691 58.0882L37.3529 57.4632L37.3896 57.3529C38.0024 55.3676 39.0685 53.6029 40.5881 52.0588C41.0048 51.6421 41.446 51.2622 41.9117 50.9191C44.2401 49.0809 46.9362 48.1617 49.9999 48.1617C53.1127 48.1617 55.8333 49.1054 58.1617 50.9926Z" fill="#61A3FF"/>
<path d="M63.2352 63.9705V64.2647V68.6764V69.0441L63.1617 70.1103L63.0882 70.7353C54.3627 72.9656 45.6372 72.9656 36.9117 70.7353L36.8382 70.1103L36.7646 68.897V68.6764V64.2647V63.9705C36.7892 63.0392 36.924 62.1446 37.1691 61.2867V61.1764L37.3529 60.625L37.3896 60.5147C37.9288 58.897 38.8112 57.4387 40.0367 56.1397L40.5881 55.5882C43.2107 53.1617 46.348 51.9485 49.9999 51.9485C53.6764 51.9485 56.7891 53.1617 59.3381 55.5882L60.1102 56.3603C61.2622 57.5857 62.0955 58.9706 62.6103 60.5147L62.647 60.625L62.7941 61.0294V61.1764C63.0637 62.0833 63.2107 63.0147 63.2352 63.9705Z" fill="#5D9CF3"/>
<path d="M63.0883 70.7352L62.5 73.1249C54.1667 75.0122 45.8333 75.0122 37.5 73.1249C37.2304 72.3651 37.0343 71.5686 36.9117 70.7352C45.6372 72.9656 54.3628 72.9656 63.0883 70.7352Z" fill="#3473CB"/>
<path d="M62.5 73.125C62.0588 74.3505 61.4338 75.5024 60.625 76.5809L59.3382 78.0515C56.7892 80.674 53.6765 81.9853 50 81.9853C46.348 81.9853 43.2107 80.674 40.5882 78.0515L39.3382 76.6176C38.5294 75.5147 37.9167 74.3505 37.5 73.125C45.8333 75.0123 54.1667 75.0123 62.5 73.125Z" fill="#397EDE"/>
<path d="M79.5588 97.0588H20.4412L20.3309 95.2205C20.3309 89.7303 23.223 85.0367 29.0073 81.1396C32.1201 79.0808 35.5638 77.5735 39.3383 76.6176L40.5882 78.0514C43.2108 80.6739 46.3481 81.9852 50 81.9852C53.6765 81.9852 56.7892 80.6739 59.3382 78.0514L60.625 76.5808C64.424 77.5367 67.8677 79.0563 70.9559 81.1396C76.7647 85.0367 79.6691 89.7303 79.6691 95.2205L79.5588 97.0588Z" fill="#FFCC00"/>
</svg>
